<?xml version="1.0" encoding="UTF-8"?>
<!DOCTYPE svg PUBLIC "-//W3C//DTD SVG 1.0//EN" "http://www.w3.org/TR/2001/REC-SVG-20010904/DTD/svg10.dtd">
<svg xmlns="http://www.w3.org/2000/svg">
<defs>
<font id="Uno" horiz-adv-x="2048">
<font-face units-per-em="2048" ascent="2048" />
<missing-glyph horiz-adv-x="2048" />
<glyph glyph-name="Tablet" unicode="&#xE70A;" d="M-4.57764e-05 1536C-4.57764e-05 1656.29 99.1428 1755.43 219.429 1755.43L1828.57 1755.43C1948.86 1755.43 2048 1656.29 2048 1536L2048 512C2048 391.714 1948.86 292.571 1828.57 292.571L219.429 292.571C99.1428 292.571 -4.57764e-05 391.714 -4.57764e-05 512L-4.57764e-05 1536ZM1828.57 1609.14L219.429 1609.14C178.857 1609.14 146.286 1576.57 146.286 1536L146.286 512C146.286 471.429 178.857 438.857 219.429 438.857L1828.57 438.857C1869.14 438.857 1901.71 471.429 1901.71 512L1901.71 1536C1901.71 1576.57 1869.14 1609.14 1828.57 1609.14ZM219.429 1024C219.429 1064.29 252.286 1097.14 292.571 1097.14C332.857 1097.14 365.714 1064.29 365.714 1024C365.714 983.714 332.857 950.857 292.571 950.857C252.286 950.857 219.429 983.714 219.429 1024Z" />
<glyph glyph-name="EMI" unicode="&#xE731;" d="M79.36 0.639984L79.36 2047.36L1968.64 2047.36L1968.64 0.639984L1102.72 0.639984L1102.72 315.52L945.28 315.52L945.28 0.639984L79.36 0.639984ZM1811.2 1889.92L236.8 1889.92L236.8 158.08L787.84 158.08L787.84 472.96L1260.16 472.96L1260.16 158.08L1811.2 158.08L1811.2 1889.92ZM394.24 315.52L394.24 472.96L709.12 472.96L709.12 315.52L394.24 315.52ZM1338.88 315.52L1338.88 472.96L1653.76 472.96L1653.76 315.52L1338.88 315.52ZM394.24 630.4L394.24 787.84L709.12 787.84L709.12 630.4L394.24 630.4ZM866.56 630.4L866.56 787.84L1181.44 787.84L1181.44 630.4L866.56 630.4ZM1338.88 630.4L1338.88 787.84L1653.76 787.84L1653.76 630.4L1338.88 630.4ZM394.24 945.28L394.24 1102.72L709.12 1102.72L709.12 945.28L394.24 945.28ZM866.56 945.28L866.56 1102.72L1181.44 1102.72L1181.44 945.28L866.56 945.28ZM1338.88 945.28L1338.88 1102.72L1653.76 1102.72L1653.76 945.28L1338.88 945.28ZM394.24 1260.16L394.24 1417.6L709.12 1417.6L709.12 1260.16L394.24 1260.16ZM866.56 1260.16L866.56 1417.6L1181.44 1417.6L1181.44 1260.16L866.56 1260.16ZM1338.88 1260.16L1338.88 1417.6L1653.76 1417.6L1653.76 1260.16L1338.88 1260.16ZM394.24 1575.04L394.24 1732.48L709.12 1732.48L709.12 1575.04L394.24 1575.04ZM866.56 1575.04L866.56 1732.48L1181.44 1732.48L1181.44 1575.04L866.56 1575.04ZM1338.88 1575.04L1338.88 1732.48L1653.76 1732.48L1653.76 1575.04L1338.88 1575.04Z" />
<glyph glyph-name="CalculatorEqualTo" unicode="&#xE94E;" d="M158.08 709.12L158.08 866.56L1889.92 866.56L1889.92 709.12L158.08 709.12ZM158.08 1181.44L158.08 1338.88L1889.92 1338.88L1889.92 1181.44L158.08 1181.44Z" />
<glyph glyph-name="PuncKey3" unicode="&#xE9B6;" d="M158.08 709.12L158.08 866.56L1889.92 866.56L1889.92 709.12L158.08 709.12ZM158.08 1181.44L158.08 1338.88L1889.92 1338.88L1889.92 1181.44L158.08 1181.44Z" />
<glyph glyph-name="Copy" unicode="&#xE16F;" d="M709.12 79.36L709.12 1653.76L1968.64 1653.76L1968.64 79.36L709.12 79.36ZM1811.2 1496.32L866.56 1496.32L866.56 236.8L1811.2 236.8L1811.2 1496.32ZM79.36 394.24L79.36 1968.64L1338.88 1968.64L1338.88 1732.48L1181.44 1732.48L1181.44 1811.2L236.8 1811.2L236.8 551.68L630.4 551.68L630.4 394.24L79.36 394.24Z" />
<glyph glyph-name="Copy" unicode="&#xE8C8;" d="M709.12 79.36L709.12 1653.76L1968.64 1653.76L1968.64 79.36L709.12 79.36ZM1811.2 1496.32L866.56 1496.32L866.56 236.8L1811.2 236.8L1811.2 1496.32ZM79.36 394.24L79.36 1968.64L1338.88 1968.64L1338.88 1732.48L1181.44 1732.48L1181.44 1811.2L236.8 1811.2L236.8 551.68L630.4 551.68L630.4 394.24L79.36 394.24Z" />
<glyph glyph-name="CopyTo" unicode="&#xF413;" d="M709.12 79.36L709.12 1653.76L1968.64 1653.76L1968.64 79.36L709.12 79.36ZM1811.2 1496.32L866.56 1496.32L866.56 236.8L1811.2 236.8L1811.2 1496.32ZM79.36 394.24L79.36 1968.64L1338.88 1968.64L1338.88 1732.48L1181.44 1732.48L1181.44 1811.2L236.8 1811.2L236.8 551.68L630.4 551.68L630.4 394.24L79.36 394.24Z" />
<glyph glyph-name="GlobalNavigationButton" unicode="&#xE700;" d="M79.36 315.52L79.36 472.96L1968.64 472.96L1968.64 315.52L79.36 315.52ZM79.36 945.28L79.36 1102.72L1968.64 1102.72L1968.64 945.28L79.36 945.28ZM79.36 1575.04L79.36 1732.48L1968.64 1732.48L1968.64 1575.04L79.36 1575.04Z" />
<glyph glyph-name="Target" unicode="&#xE1D2;" d="M79.36 1024C79.36 1544.91 503.095 1968.64 1024 1968.64C1544.91 1968.64 1968.64 1544.91 1968.64 1024C1968.64 503.095 1544.91 79.36 1024 79.36C503.095 79.36 79.36 503.095 79.36 1024ZM1811.2 1024C1811.2 1459.73 1459.73 1811.2 1024 1811.2C588.273 1811.2 236.8 1459.73 236.8 1024C236.8 588.273 588.273 236.8 1024 236.8C1459.73 236.8 1811.2 588.273 1811.2 1024ZM787.84 1024C787.84 1154.38 893.62 1260.16 1024 1260.16C1154.38 1260.16 1260.16 1154.38 1260.16 1024C1260.16 893.62 1154.38 787.84 1024 787.84C893.62 787.84 787.84 893.62 787.84 1024Z" />
<glyph glyph-name="Location" unicode="&#xE81D;" d="M79.36 1024C79.36 1544.91 503.095 1968.64 1024 1968.64C1544.91 1968.64 1968.64 1544.91 1968.64 1024C1968.64 503.095 1544.91 79.36 1024 79.36C503.095 79.36 79.36 503.095 79.36 1024ZM1811.2 1024C1811.2 1459.73 1459.73 1811.2 1024 1811.2C588.273 1811.2 236.8 1459.73 236.8 1024C236.8 588.273 588.273 236.8 1024 236.8C1459.73 236.8 1811.2 588.273 1811.2 1024ZM787.84 1024C787.84 1154.38 893.62 1260.16 1024 1260.16C1154.38 1260.16 1260.16 1154.38 1260.16 1024C1260.16 893.62 1154.38 787.84 1024 787.84C893.62 787.84 787.84 893.62 787.84 1024Z" />
<glyph glyph-name="MobLocation" unicode="&#xEC43;" d="M79.36 1024C79.36 1544.91 503.095 1968.64 1024 1968.64C1544.91 1968.64 1968.64 1544.91 1968.64 1024C1968.64 503.095 1544.91 79.36 1024 79.36C503.095 79.36 79.36 503.095 79.36 1024ZM1811.2 1024C1811.2 1459.73 1459.73 1811.2 1024 1811.2C588.273 1811.2 236.8 1459.73 236.8 1024C236.8 588.273 588.273 236.8 1024 236.8C1459.73 236.8 1811.2 588.273 1811.2 1024ZM787.84 1024C787.84 1154.38 893.62 1260.16 1024 1260.16C1154.38 1260.16 1260.16 1154.38 1260.16 1024C1260.16 893.62 1154.38 787.84 1024 787.84C893.62 787.84 787.84 893.62 787.84 1024Z" />
<glyph glyph-name="EmojiTabSmilesAnimals" unicode="&#xED54;" d="M0.639984 1024C0.639984 1588.26 459.735 2047.36 1024 2047.36C1588.26 2047.36 2047.36 1588.26 2047.36 1024C2047.36 459.735 1588.26 0.639984 1024 0.639984C459.735 0.639984 0.639984 459.735 0.639984 1024ZM1889.92 1024C1889.92 1501.44 1501.44 1889.92 1024 1889.92C546.563 1889.92 158.08 1501.44 158.08 1024C158.08 546.563 546.563 158.08 1024 158.08C1501.44 158.08 1889.92 546.563 1889.92 1024ZM1024 394.24C599.306 394.24 472.96 787.84 472.96 787.84L1575.04 787.84C1575.04 787.84 1448.69 394.24 1024 394.24ZM551.68 1220.8Q551.68 1223.7 551.822 1226.59Q551.964 1229.49 552.249 1232.37Q552.533 1235.26 552.958 1238.13Q553.383 1240.99 553.949 1243.84Q554.514 1246.68 555.219 1249.49Q555.923 1252.3 556.764 1255.08Q557.606 1257.85 558.582 1260.58Q559.559 1263.31 560.668 1265.99Q561.777 1268.67 563.017 1271.29Q564.256 1273.91 565.623 1276.46Q566.989 1279.02 568.479 1281.51Q569.969 1283.99 571.58 1286.4Q573.19 1288.81 574.917 1291.14Q576.644 1293.47 578.483 1295.71Q580.322 1297.95 582.268 1300.1Q584.215 1302.25 586.265 1304.3Q588.314 1306.34 590.462 1308.29Q592.61 1310.24 594.851 1312.08Q597.092 1313.92 599.42 1315.64Q601.748 1317.37 604.158 1318.98Q606.568 1320.59 609.055 1322.08Q611.541 1323.57 614.097 1324.94Q616.654 1326.3 619.274 1327.54Q621.895 1328.78 624.573 1329.89Q627.251 1331 629.98 1331.98Q632.709 1332.95 635.483 1333.8Q638.257 1334.64 641.069 1335.34Q643.881 1336.05 646.724 1336.61Q649.567 1337.18 652.434 1337.6Q655.301 1338.03 658.186 1338.31Q661.071 1338.6 663.966 1338.74Q666.861 1338.88 669.76 1338.88Q672.659 1338.88 675.554 1338.74Q678.449 1338.6 681.334 1338.31Q684.219 1338.03 687.086 1337.6Q689.953 1337.18 692.796 1336.61Q695.639 1336.05 698.451 1335.34Q701.263 1334.64 704.037 1333.8Q706.811 1332.95 709.54 1331.98Q712.269 1331 714.947 1329.89Q717.625 1328.78 720.246 1327.54Q722.866 1326.3 725.422 1324.94Q727.979 1323.57 730.465 1322.08Q732.951 1320.59 735.362 1318.98Q737.772 1317.37 740.1 1315.64Q742.428 1313.92 744.669 1312.08Q746.91 1310.24 749.058 1308.29Q751.205 1306.34 753.255 1304.3Q755.305 1302.25 757.251 1300.1Q759.198 1297.95 761.037 1295.71Q762.876 1293.47 764.603 1291.14Q766.329 1288.81 767.94 1286.4Q769.55 1283.99 771.041 1281.51Q772.531 1279.02 773.897 1276.46Q775.264 1273.91 776.503 1271.29Q777.742 1268.67 778.852 1265.99Q779.961 1263.31 780.937 1260.58Q781.914 1257.85 782.755 1255.08Q783.597 1252.3 784.301 1249.49Q785.005 1246.68 785.571 1243.84Q786.137 1240.99 786.562 1238.13Q786.987 1235.26 787.271 1232.37Q787.555 1229.49 787.698 1226.59Q787.84 1223.7 787.84 1220.8Q787.84 1217.9 787.698 1215.01Q787.556 1212.11 787.271 1209.23Q786.987 1206.34 786.562 1203.47Q786.137 1200.61 785.571 1197.76Q785.006 1194.92 784.301 1192.11Q783.597 1189.3 782.755 1186.52Q781.914 1183.75 780.938 1181.02Q779.961 1178.29 778.852 1175.61Q777.742 1172.93 776.503 1170.31Q775.264 1167.69 773.897 1165.14Q772.531 1162.58 771.041 1160.09Q769.55 1157.61 767.94 1155.2Q766.329 1152.79 764.603 1150.46Q762.876 1148.13 761.037 1145.89Q759.198 1143.65 757.251 1141.5Q755.305 1139.35 753.255 1137.3Q751.205 1135.26 749.058 1133.31Q746.91 1131.36 744.669 1129.52Q742.428 1127.68 740.1 1125.96Q737.772 1124.23 735.362 1122.62Q732.951 1121.01 730.465 1119.52Q727.979 1118.03 725.422 1116.66Q722.866 1115.3 720.246 1114.06Q717.625 1112.82 714.947 1111.71Q712.269 1110.6 709.54 1109.62Q706.811 1108.65 704.037 1107.8Q701.263 1106.96 698.451 1106.26Q695.639 1105.55 692.796 1104.99Q689.953 1104.42 687.086 1104Q684.219 1103.57 681.334 1103.29Q678.449 1103 675.554 1102.86Q672.659 1102.72 669.76 1102.72Q666.861 1102.72 663.966 1102.86Q661.071 1103 658.186 1103.29Q655.301 1103.57 652.434 1104Q649.567 1104.42 646.724 1104.99Q643.881 1105.55 641.069 1106.26Q638.257 1106.96 635.483 1107.8Q632.709 1108.65 629.98 1109.62Q627.251 1110.6 624.573 1111.71Q621.895 1112.82 619.274 1114.06Q616.654 1115.3 614.097 1116.66Q611.541 1118.03 609.055 1119.52Q606.568 1121.01 604.158 1122.62Q601.748 1124.23 599.42 1125.96Q597.092 1127.68 594.851 1129.52Q592.61 1131.36 590.462 1133.31Q588.314 1135.26 586.265 1137.3Q584.215 1139.35 582.268 1141.5Q580.322 1143.65 578.483 1145.89Q576.644 1148.13 574.917 1150.46Q573.19 1152.79 571.58 1155.2Q569.969 1157.61 568.479 1160.09Q566.989 1162.58 565.623 1165.14Q564.256 1167.69 563.017 1170.31Q561.777 1172.93 560.668 1175.61Q559.559 1178.29 558.582 1181.02Q557.606 1183.75 556.764 1186.52Q555.923 1189.3 555.219 1192.11Q554.514 1194.92 553.949 1197.76Q553.383 1200.61 552.958 1203.47Q552.533 1206.34 552.249 1209.23Q551.964 1212.11 551.822 1215.01Q551.68 1217.9 551.68 1220.8ZM1260.16 1220.8Q1260.16 1223.7 1260.3 1226.59Q1260.44 1229.49 1260.73 1232.37Q1261.01 1235.26 1261.44 1238.13Q1261.86 1240.99 1262.43 1243.84Q1262.99 1246.68 1263.7 1249.49Q1264.4 1252.3 1265.24 1255.08Q1266.09 1257.85 1267.06 1260.58Q1268.04 1263.31 1269.15 1265.99Q1270.26 1268.67 1271.5 1271.29Q1272.74 1273.91 1274.1 1276.46Q1275.47 1279.02 1276.96 1281.51Q1278.45 1283.99 1280.06 1286.4Q1281.67 1288.81 1283.4 1291.14Q1285.12 1293.47 1286.96 1295.71Q1288.8 1297.95 1290.75 1300.1Q1292.7 1302.25 1294.74 1304.3Q1296.79 1306.34 1298.94 1308.29Q1301.09 1310.24 1303.33 1312.08Q1305.57 1313.92 1307.9 1315.64Q1310.23 1317.37 1312.64 1318.98Q1315.05 1320.59 1317.53 1322.08Q1320.02 1323.57 1322.58 1324.94Q1325.13 1326.3 1327.75 1327.54Q1330.37 1328.78 1333.05 1329.89Q1335.73 1331 1338.46 1331.98Q1341.19 1332.95 1343.96 1333.8Q1346.74 1334.64 1349.55 1335.34Q1352.36 1336.05 1355.2 1336.61Q1358.05 1337.18 1360.91 1337.6Q1363.78 1338.03 1366.67 1338.31Q1369.55 1338.6 1372.45 1338.74Q1375.34 1338.88 1378.24 1338.88Q1381.14 1338.88 1384.03 1338.74Q1386.93 1338.6 1389.81 1338.31Q1392.7 1338.03 1395.57 1337.6Q1398.43 1337.18 1401.28 1336.61Q1404.12 1336.05 1406.93 1335.34Q1409.74 1334.64 1412.52 1333.8Q1415.29 1332.95 1418.02 1331.98Q1420.75 1331 1423.43 1329.89Q1426.11 1328.78 1428.73 1327.54Q1431.35 1326.3 1433.9 1324.94Q1436.46 1323.57 1438.94 1322.08Q1441.43 1320.59 1443.84 1318.98Q1446.25 1317.37 1448.58 1315.64Q1450.91 1313.92 1453.15 1312.08Q1455.39 1310.24 1457.54 1308.29Q1459.69 1306.34 1461.74 1304.3Q1463.78 1302.25 1465.73 1300.1Q1467.68 1297.95 1469.52 1295.71Q1471.36 1293.47 1473.08 1291.14Q1474.81 1288.81 1476.42 1286.4Q1478.03 1283.99 1479.52 1281.51Q1481.01 1279.02 1482.38 1276.46Q1483.74 1273.91 1484.98 1271.29Q1486.22 1268.67 1487.33 1265.99Q1488.44 1263.31 1489.42 1260.58Q1490.39 1257.85 1491.24 1255.08Q1492.08 1252.3 1492.78 1249.49Q1493.49 1246.68 1494.05 1243.84Q1494.62 1240.99 1495.04 1238.13Q1495.47 1235.26 1495.75 1232.37Q1496.04 1229.49 1496.18 1226.59Q1496.32 1223.7 1496.32 1220.8Q1496.32 1217.9 1496.18 1215.01Q1496.04 1212.11 1495.75 1209.23Q1495.47 1206.34 1495.04 1203.47Q1494.62 1200.61 1494.05 1197.76Q1493.49 1194.92 1492.78 1192.11Q1492.08 1189.3 1491.24 1186.52Q1490.39 1183.75 1489.42 1181.02Q1488.44 1178.29 1487.33 1175.61Q1486.22 1172.93 1484.98 1170.31Q1483.74 1167.69 1482.38 1165.14Q1481.01 1162.58 1479.52 1160.09Q1478.03 1157.61 1476.42 1155.2Q1474.81 1152.79 1473.08 1150.46Q1471.36 1148.13 1469.52 1145.89Q1467.68 1143.65 1465.73 1141.5Q1463.78 1139.35 1461.74 1137.3Q1459.69 1135.26 1457.54 1133.31Q1455.39 1131.36 1453.15 1129.52Q1450.91 1127.68 1448.58 1125.96Q1446.25 1124.23 1443.84 1122.62Q1441.43 1121.01 1438.95 1119.52Q1436.46 1118.03 1433.9 1116.66Q1431.35 1115.3 1428.73 1114.06Q1426.11 1112.82 1423.43 1111.71Q1420.75 1110.6 1418.02 1109.62Q1415.29 1108.65 1412.52 1107.8Q1409.74 1106.96 1406.93 1106.26Q1404.12 1105.55 1401.28 1104.99Q1398.43 1104.42 1395.57 1104Q1392.7 1103.57 1389.81 1103.29Q1386.93 1103 1384.03 1102.86Q1381.14 1102.72 1378.24 1102.72Q1375.34 1102.72 1372.45 1102.86Q1369.55 1103 1366.67 1103.29Q1363.78 1103.57 1360.91 1104Q1358.05 1104.42 1355.2 1104.99Q1352.36 1105.55 1349.55 1106.26Q1346.74 1106.96 1343.96 1107.8Q1341.19 1108.65 1338.46 1109.62Q1335.73 1110.6 1333.05 1111.71Q1330.37 1112.82 1327.75 1114.06Q1325.13 1115.3 1322.58 1116.66Q1320.02 1118.03 1317.53 1119.52Q1315.05 1121.01 1312.64 1122.62Q1310.23 1124.23 1307.9 1125.96Q1305.57 1127.68 1303.33 1129.52Q1301.09 1131.36 1298.94 1133.31Q1296.79 1135.26 1294.74 1137.3Q1292.7 1139.35 1290.75 1141.5Q1288.8 1143.65 1286.96 1145.89Q1285.12 1148.13 1283.4 1150.46Q1281.67 1152.79 1280.06 1155.2Q1278.45 1157.61 1276.96 1160.09Q1275.47 1162.58 1274.1 1165.14Q1272.74 1167.69 1271.5 1170.31Q1270.26 1172.93 1269.15 1175.61Q1268.04 1178.29 1267.06 1181.02Q1266.09 1183.75 1265.24 1186.52Q1264.4 1189.3 1263.7 1192.11Q1262.99 1194.92 1262.43 1197.76Q1261.86 1200.61 1261.44 1203.47Q1261.01 1206.34 1260.73 1209.23Q1260.44 1212.11 1260.3 1215.01Q1260.16 1217.9 1260.16 1220.8Z" />
<glyph glyph-name="Save" unicode="&#xE105;" d="M158.08 158.08L158.08 1889.92L1528.3 1889.92L1552.9 1867.78L1867.78 1552.9L1889.92 1528.3L1889.92 158.08L158.08 158.08ZM551.68 1732.48L315.52 1732.48L315.52 315.52L472.96 315.52L472.96 1024L1575.04 1024L1575.04 315.52L1732.48 315.52L1732.48 1461.88L1496.32 1698.04L1496.32 1260.16L551.68 1260.16L551.68 1732.48ZM1417.6 866.56L630.4 866.56L630.4 315.52L1417.6 315.52L1417.6 866.56ZM1024 1732.48L709.12 1732.48L709.12 1417.6L1338.88 1417.6L1338.88 1732.48L1181.44 1732.48L1181.44 1575.04L1024 1575.04L1024 1732.48Z" />
<glyph glyph-name="Save" unicode="&#xE74E;" d="M158.08 158.08L158.08 1889.92L1528.3 1889.92L1552.9 1867.78L1867.78 1552.9L1889.92 1528.3L1889.92 158.08L158.08 158.08ZM551.68 1732.48L315.52 1732.48L315.52 315.52L472.96 315.52L472.96 1024L1575.04 1024L1575.04 315.52L1732.48 315.52L1732.48 1461.88L1496.32 1698.04L1496.32 1260.16L551.68 1260.16L551.68 1732.48ZM1417.6 866.56L630.4 866.56L630.4 315.52L1417.6 315.52L1417.6 866.56ZM1024 1732.48L709.12 1732.48L709.12 1417.6L1338.88 1417.6L1338.88 1732.48L1181.44 1732.48L1181.44 1575.04L1024 1575.04L1024 1732.48Z" />
<glyph glyph-name="LocaleLanguage" unicode="&#xF2B7;" d="M79.36 551.68L79.36 1968.64L1496.32 1968.64L1496.32 1496.32L1968.64 1496.32L1968.64 79.36L551.68 79.36L551.68 551.68L79.36 551.68ZM1811.2 1338.88L1452.04 1338.88L709.12 595.96L709.12 236.8L1811.2 236.8L1811.2 1338.88ZM1265.08 969.88L1338.88 1193.74L1412.68 969.88L1570.12 497.56L1575.04 485.26L1575.04 394.24L1417.6 394.24L1417.6 463.12L1415.14 472.96L1262.62 472.96L1260.16 463.12L1260.16 394.24L1102.72 394.24L1102.72 485.26L1107.64 497.56L1265.08 969.88ZM1361.02 630.4L1338.88 699.28L1316.74 630.4L1361.02 630.4ZM1338.88 1811.2L236.8 1811.2L236.8 709.12L595.96 709.12L1338.88 1452.04L1338.88 1811.2ZM630.4 1575.04L630.4 1653.76L787.84 1653.76L787.84 1575.04L1024 1575.04L1024 1417.6L940.36 1417.6C932.057 1326.89 909.302 1243.25 866.56 1171.6L866.56 1024C821.665 1024 779.845 1029.23 738.64 1036.3C650.08 977.26 533.845 945.28 394.24 945.28L394.24 1102.72C445.9 1102.72 490.795 1106.72 529.54 1115.02C452.05 1166.99 394.24 1245.09 394.24 1338.88L551.68 1338.88C551.68 1305.98 572.59 1270.92 627.94 1238.02C647.927 1226.03 672.22 1214.96 699.28 1206.04C745.097 1255.85 772.773 1327.19 782.92 1417.6L394.24 1417.6L394.24 1575.04L630.4 1575.04Z" />
<glyph glyph-name="Italic" unicode="&#xE199;" d="M684.52 1816.12L689.44 1889.92L1479.1 1889.92L1471.72 1806.28L1456.96 1570.12L1452.04 1496.32L1294.6 1496.32L1225.72 551.68L1383.16 551.68L1378.24 468.04L1363.48 231.88L1358.56 158.08L568.9 158.08L576.28 241.72L591.04 477.88L595.96 551.68L753.4 551.68L822.28 1496.32L664.84 1496.32L669.76 1579.96L684.52 1816.12ZM1309.36 1732.48L837.04 1732.48L832.12 1653.76L989.56 1653.76L984.64 1570.12L905.92 468.04L901 394.24L743.56 394.24L738.64 315.52L1210.96 315.52L1215.88 394.24L1058.44 394.24L1063.36 477.88L1142.08 1579.96L1147 1653.76L1304.44 1653.76L1309.36 1732.48Z" />
<glyph glyph-name="Italic" unicode="&#xE8DB;" d="M684.52 1816.12L689.44 1889.92L1479.1 1889.92L1471.72 1806.28L1456.96 1570.12L1452.04 1496.32L1294.6 1496.32L1225.72 551.68L1383.16 551.68L1378.24 468.04L1363.48 231.88L1358.56 158.08L568.9 158.08L576.28 241.72L591.04 477.88L595.96 551.68L753.4 551.68L822.28 1496.32L664.84 1496.32L669.76 1579.96L684.52 1816.12ZM1309.36 1732.48L837.04 1732.48L832.12 1653.76L989.56 1653.76L984.64 1570.12L905.92 468.04L901 394.24L743.56 394.24L738.64 315.52L1210.96 315.52L1215.88 394.24L1058.44 394.24L1063.36 477.88L1142.08 1579.96L1147 1653.76L1304.44 1653.76L1309.36 1732.48Z" />
<glyph glyph-name="Down" unicode="&#xE74B;" d="M945.28 389.32L945.28 1968.64L1102.72 1968.64L1102.72 389.32L1636.54 923.14L1749.7 809.98L1080.58 140.86L1024 86.74L967.42 140.86L298.3 809.98L411.46 923.14L945.28 389.32Z" />
<glyph glyph-name="ArrowDown8" unicode="&#xF0AE;" d="M945.28 389.32L945.28 1968.64L1102.72 1968.64L1102.72 389.32L1636.54 923.14L1749.7 809.98L1080.58 140.86L1024 86.74L967.42 140.86L298.3 809.98L411.46 923.14L945.28 389.32Z" />
<glyph glyph-name="Back" unicode="&#xE112;" d="M140.86 1080.58L809.98 1749.7L923.14 1636.54L389.32 1102.72L1968.64 1102.72L1968.64 945.28L389.32 945.28L923.14 411.46L809.98 298.3L140.86 967.42L86.74 1024L140.86 1080.58Z" />
<glyph glyph-name="Back" unicode="&#xE72B;" d="M140.86 1080.58L809.98 1749.7L923.14 1636.54L389.32 1102.72L1968.64 1102.72L1968.64 945.28L389.32 945.28L923.14 411.46L809.98 298.3L140.86 967.42L86.74 1024L140.86 1080.58Z" />
<glyph glyph-name="ChromeBack" unicode="&#xE830;" d="M140.86 1080.58L809.98 1749.7L923.14 1636.54L389.32 1102.72L1968.64 1102.72L1968.64 945.28L389.32 945.28L923.14 411.46L809.98 298.3L140.86 967.42L86.74 1024L140.86 1080.58Z" />
<glyph glyph-name="LeftArrowKeyTime0" unicode="&#xEC52;" d="M140.86 1080.58L809.98 1749.7L923.14 1636.54L389.32 1102.72L1968.64 1102.72L1968.64 945.28L389.32 945.28L923.14 411.46L809.98 298.3L140.86 967.42L86.74 1024L140.86 1080.58Z" />
<glyph glyph-name="ArrowLeft8" unicode="&#xF0B0;" d="M140.86 1080.58L809.98 1749.7L923.14 1636.54L389.32 1102.72L1968.64 1102.72L1968.64 945.28L389.32 945.28L923.14 411.46L809.98 298.3L140.86 967.42L86.74 1024L140.86 1080.58Z" />
<glyph glyph-name="ForwardMirrored" unicode="&#xF0D3;" d="M140.86 1080.58L809.98 1749.7L923.14 1636.54L389.32 1102.72L1968.64 1102.72L1968.64 945.28L389.32 945.28L923.14 411.46L809.98 298.3L140.86 967.42L86.74 1024L140.86 1080.58Z" />
<glyph glyph-name="ChromeBackContrast" unicode="&#xF0D5;" d="M140.86 1080.58L809.98 1749.7L923.14 1636.54L389.32 1102.72L1968.64 1102.72L1968.64 945.28L389.32 945.28L923.14 411.46L809.98 298.3L140.86 967.42L86.74 1024L140.86 1080.58Z" />
<glyph glyph-name="HalfStarLeft" unicode="&#xE7C6;" d="M711.225 1364.06L1024 2065.6L1024 401.385L358.547 17.6046L517.868 769.027L-52.8137 1283.37L711.225 1364.06Z" />
<glyph glyph-name="ThreeQuarterStarLeft" unicode="&#xF0CC;" d="M711.225 1364.06L1024 2065.6L1024 401.385L358.547 17.6046L517.868 769.027L-52.8137 1283.37L711.225 1364.06Z" />
<glyph glyph-name="OutlineHalfStarLeft" unicode="&#xF0E7;" d="M711.225 1364.06L1024 2065.6L1024 401.385L358.547 17.6046L517.868 769.027L-52.8137 1283.37L711.225 1364.06Z" />
<glyph glyph-name="Leaf" unicode="&#xE8BE;" d="M1607.19 1864.61L1682.37 1898.79L1705.15 1819.05C1705.15 1819.05 1825.89 1409.57 1825.89 839.475C1825.89 548.165 1758.68 355.666 1655.03 235.782C1551.38 115.898 1414.12 76.3159 1301.93 76.3159C1176.06 76.3159 1068.14 133.553 982.994 192.498C897.851 251.444 825.237 318.647 812.138 326.905L889.593 449.922C940.85 417.459 991.537 364.209 1065.01 313.237C1138.47 262.265 1223.33 222.113 1301.93 222.113C1380.81 222.113 1469.65 246.318 1543.4 331.462C1617.16 416.605 1680.09 570.661 1680.09 839.475C1680.09 1313.32 1605.48 1616.59 1582.13 1705.15C1331.26 1612.03 1039.09 1569.89 803.026 1486.45C672.605 1440.32 563.542 1381.66 488.65 1299.65C413.758 1217.64 367.911 1111.71 367.911 951.101C367.911 809.86 445.081 721.869 529.655 661.784C573.508 630.461 616.222 610.812 648.116 597.998C773.41 798.185 965.624 1046.78 1263.2 1365.71L1367.99 1265.48C871.653 733.544 680.578 401.228 611.666 199.333C577.21 98.2425 572.939 30.1847 575.217 -19.3637C576.133 -39.2776 578.888 -55.6497 581.561 -71.5303C585.538 -95.1627 589.332 -117.707 586.607 -149.215L440.81 -135.546C440.81 -135.567 440.808 -135.578 440.804 -135.579C440.556 -135.624 432.225 -90.9971 429.419 -26.198C426.572 39.5818 432.836 130.705 472.703 247.172C494.63 311.813 527.947 386.99 572.939 470.425C535.635 486.941 491.212 510.576 445.366 543.324C337.726 619.924 222.113 754.616 222.113 951.101C222.113 1141.04 282.768 1289.68 381.58 1397.61C480.392 1505.53 612.521 1572.73 755.186 1623.14C1040.52 1723.94 1375.39 1762.38 1607.19 1864.61Z" />
<glyph glyph-name="Airplane" unicode="&#xE709;" d="M789.664 1805.12C789.664 1933.58 895.542 2039.46 1024 2039.46C1152.46 2039.46 1258.34 1933.58 1258.34 1805.12L1258.34 1231.49L1914.97 938.565L1961.34 919.037L1961.34 545.564L1258.34 623.676L1258.34 479.657L1458.5 345.402L1492.67 323.433L1492.67 -8.5435L1399.91 10.9845L1024 86.6555L648.086 10.9845L555.328 -8.5435L555.328 323.433L589.502 345.402L789.664 479.657L789.664 623.676L86.6555 545.564L86.6555 919.037L133.035 938.565L789.664 1231.49L789.664 1805.12ZM1102.11 1805.12C1102.11 1849.36 1068.24 1883.23 1024 1883.23C979.757 1883.23 945.888 1849.36 945.888 1805.12L945.888 1128.96L899.509 1109.44L242.88 816.515L242.88 721.316L945.888 799.428L945.888 394.222L911.714 372.253L711.552 237.998L711.552 181.855L1009.35 240.439L1024 245.321L1038.65 240.439L1336.45 181.855L1336.45 237.998L1136.29 372.253L1102.11 394.222L1102.11 799.428L1805.12 721.316L1805.12 816.515L1148.49 1109.44L1102.11 1128.96L1102.11 1805.12Z" />
<glyph glyph-name="MobAirplane" unicode="&#xEC40;" d="M789.664 1805.12C789.664 1933.58 895.542 2039.46 1024 2039.46C1152.46 2039.46 1258.34 1933.58 1258.34 1805.12L1258.34 1231.49L1914.97 938.565L1961.34 919.037L1961.34 545.564L1258.34 623.676L1258.34 479.657L1458.5 345.402L1492.67 323.433L1492.67 -8.5435L1399.91 10.9845L1024 86.6555L648.086 10.9845L555.328 -8.5435L555.328 323.433L589.502 345.402L789.664 479.657L789.664 623.676L86.6555 545.564L86.6555 919.037L133.035 938.565L789.664 1231.49L789.664 1805.12ZM1102.11 1805.12C1102.11 1849.36 1068.24 1883.23 1024 1883.23C979.757 1883.23 945.888 1849.36 945.888 1805.12L945.888 1128.96L899.509 1109.44L242.88 816.515L242.88 721.316L945.888 799.428L945.888 394.222L911.714 372.253L711.552 237.998L711.552 181.855L1009.35 240.439L1024 245.321L1038.65 240.439L1336.45 181.855L1336.45 237.998L1136.29 372.253L1102.11 394.222L1102.11 799.428L1805.12 721.316L1805.12 816.515L1148.49 1109.44L1102.11 1128.96L1102.11 1805.12Z" />
<glyph glyph-name="Stopwatch" unicode="&#xE916;" d="M158.08 866.56C158.08 1343.8 546.76 1732.48 1024 1732.48C1213.73 1732.48 1390.54 1671.59 1533.22 1567.66L1675.9 1710.34L1789.06 1597.18L1653.76 1461.88C1800.44 1306.59 1889.92 1096.26 1889.92 866.56C1889.92 389.32 1501.24 0.639984 1024 0.639984C546.76 0.639984 158.08 389.32 158.08 866.56ZM1732.48 866.56C1732.48 1258.62 1416.06 1575.04 1024 1575.04C631.938 1575.04 315.52 1258.62 315.52 866.56C315.52 474.497 631.938 158.08 1024 158.08C1416.06 158.08 1732.48 474.497 1732.48 866.56ZM945.28 1001.86L945.28 1417.6L1102.72 1417.6L1102.72 1001.86C1149.77 974.493 1181.44 924.677 1181.44 866.56C1181.44 808.443 1149.77 758.628 1102.72 731.26L1102.72 630.4L945.28 630.4L945.28 731.26C898.233 758.628 866.56 808.443 866.56 866.56C866.56 924.677 898.233 974.493 945.28 1001.86ZM787.84 1811.2L787.84 1968.64L1260.16 1968.64L1260.16 1811.2L787.84 1811.2Z" />
<glyph glyph-name="Click" unicode="&#xE8B0;" d="M472.96 67.06L472.96 2079.34L608.26 1946.5L1764.46 787.84L1877.62 674.68L1717.72 655L1319.2 605.8L1464.34 320.44L1498.78 249.1L1429.9 214.66L1186.36 89.2L1115.02 52.3L1080.58 123.64L920.68 440.98L603.34 175.3L472.96 67.06ZM1540.6 790.3L630.4 1698.04L630.4 406.54L893.62 627.94L969.88 691.9L1016.62 603.34L1186.36 263.86L1289.68 317.98L1127.32 632.86L1075.66 733.72L1186.36 748.48L1540.6 790.3Z" />
<glyph glyph-name="Emoji2" unicode="&#xE170;" d="M79.36 1024C79.36 1544.91 503.095 1968.64 1024 1968.64C1544.91 1968.64 1968.64 1544.91 1968.64 1024C1968.64 503.095 1544.91 79.36 1024 79.36C503.095 79.36 79.36 503.095 79.36 1024ZM1811.2 1024C1811.2 1459.73 1459.73 1811.2 1024 1811.2C588.273 1811.2 236.8 1459.73 236.8 1024C236.8 588.273 588.273 236.8 1024 236.8C1459.73 236.8 1811.2 588.273 1811.2 1024ZM480.34 709.12L615.64 787.84C697.435 646.698 848.725 551.68 1024 551.68C1199.28 551.68 1350.57 646.698 1432.36 787.84L1567.66 709.12C1458.81 521.237 1256.47 394.24 1024 394.24C791.53 394.24 589.195 521.237 480.34 709.12ZM551.68 1220.8C551.68 1285.99 604.57 1338.88 669.76 1338.88C734.95 1338.88 787.84 1285.99 787.84 1220.8C787.84 1155.61 734.95 1102.72 669.76 1102.72C604.57 1102.72 551.68 1155.61 551.68 1220.8ZM1260.16 1220.8C1260.16 1285.99 1313.05 1338.88 1378.24 1338.88C1443.43 1338.88 1496.32 1285.99 1496.32 1220.8C1496.32 1155.61 1443.43 1102.72 1378.24 1102.72C1313.05 1102.72 1260.16 1155.61 1260.16 1220.8Z" />
<glyph glyph-name="Emoji2" unicode="&#xE76E;" d="M79.36 1024C79.36 1544.91 503.095 1968.64 1024 1968.64C1544.91 1968.64 1968.64 1544.91 1968.64 1024C1968.64 503.095 1544.91 79.36 1024 79.36C503.095 79.36 79.36 503.095 79.36 1024ZM1811.2 1024C1811.2 1459.73 1459.73 1811.2 1024 1811.2C588.273 1811.2 236.8 1459.73 236.8 1024C236.8 588.273 588.273 236.8 1024 236.8C1459.73 236.8 1811.2 588.273 1811.2 1024ZM480.34 709.12L615.64 787.84C697.435 646.698 848.725 551.68 1024 551.68C1199.28 551.68 1350.57 646.698 1432.36 787.84L1567.66 709.12C1458.81 521.237 1256.47 394.24 1024 394.24C791.53 394.24 589.195 521.237 480.34 709.12ZM551.68 1220.8C551.68 1285.99 604.57 1338.88 669.76 1338.88C734.95 1338.88 787.84 1285.99 787.84 1220.8C787.84 1155.61 734.95 1102.72 669.76 1102.72C604.57 1102.72 551.68 1155.61 551.68 1220.8ZM1260.16 1220.8C1260.16 1285.99 1313.05 1338.88 1378.24 1338.88C1443.43 1338.88 1496.32 1285.99 1496.32 1220.8C1496.32 1155.61 1443.43 1102.72 1378.24 1102.72C1313.05 1102.72 1260.16 1155.61 1260.16 1220.8Z" />
<glyph glyph-name="RemoveFrom" unicode="&#xECC9;" d="M0.639984 1024C0.639984 1588.26 459.737 2047.36 1024 2047.36C1588.26 2047.36 2047.36 1588.26 2047.36 1024C2047.36 459.737 1588.26 0.639984 1024 0.639984C459.737 0.639984 0.639984 459.737 0.639984 1024ZM1889.92 1024C1889.92 1503.08 1503.08 1889.92 1024 1889.92C544.915 1889.92 158.08 1503.08 158.08 1024C158.08 544.915 544.915 158.08 1024 158.08C1503.08 158.08 1889.92 544.915 1889.92 1024ZM551.68 945.28L551.68 1102.72L1496.32 1102.72L1496.32 945.28L551.68 945.28Z" />
<glyph glyph-name="Blocked2" unicode="&#xECE4;" d="M0.639984 1024C0.639984 1588.26 459.737 2047.36 1024 2047.36C1588.26 2047.36 2047.36 1588.26 2047.36 1024C2047.36 459.737 1588.26 0.639984 1024 0.639984C459.737 0.639984 0.639984 459.737 0.639984 1024ZM1889.92 1024C1889.92 1503.08 1503.08 1889.92 1024 1889.92C544.915 1889.92 158.08 1503.08 158.08 1024C158.08 544.915 544.915 158.08 1024 158.08C1503.08 158.08 1889.92 544.915 1889.92 1024ZM551.68 945.28L551.68 1102.72L1496.32 1102.72L1496.32 945.28L551.68 945.28Z" />
<glyph glyph-name="StatusCircleBlock2" unicode="&#xF141;" d="M0.639984 1024C0.639984 1588.26 459.737 2047.36 1024 2047.36C1588.26 2047.36 2047.36 1588.26 2047.36 1024C2047.36 459.737 1588.26 0.639984 1024 0.639984C459.737 0.639984 0.639984 459.737 0.639984 1024ZM1889.92 1024C1889.92 1503.08 1503.08 1889.92 1024 1889.92C544.915 1889.92 158.08 1503.08 158.08 1024C158.08 544.915 544.915 158.08 1024 158.08C1503.08 158.08 1889.92 544.915 1889.92 1024ZM551.68 945.28L551.68 1102.72L1496.32 1102.72L1496.32 945.28L551.68 945.28Z" />
<glyph glyph-name="CalculatorDivide" unicode="&#xE94A;" d="M787.84 472.96C787.84 602.417 894.542 709.12 1024 709.12C1153.46 709.12 1260.16 602.417 1260.16 472.96C1260.16 343.503 1153.46 236.8 1024 236.8C894.542 236.8 787.84 343.503 787.84 472.96ZM1102.72 472.96C1102.72 517.24 1068.28 551.68 1024 551.68C979.72 551.68 945.28 517.24 945.28 472.96C945.28 428.68 979.72 394.24 1024 394.24C1068.28 394.24 1102.72 428.68 1102.72 472.96ZM158.08 945.28L158.08 1102.72L1889.92 1102.72L1889.92 945.28L158.08 945.28ZM787.84 1575.04C787.84 1704.5 894.542 1811.2 1024 1811.2C1153.46 1811.2 1260.16 1704.5 1260.16 1575.04C1260.16 1445.58 1153.46 1338.88 1024 1338.88C894.542 1338.88 787.84 1445.58 787.84 1575.04ZM1102.72 1575.04C1102.72 1619.32 1068.28 1653.76 1024 1653.76C979.72 1653.76 945.28 1619.32 945.28 1575.04C945.28 1530.76 979.72 1496.32 1024 1496.32C1068.28 1496.32 1102.72 1530.76 1102.72 1575.04Z" />
<glyph glyph-name="PuncKey8" unicode="&#xE9BC;" d="M787.84 472.96C787.84 602.417 894.542 709.12 1024 709.12C1153.46 709.12 1260.16 602.417 1260.16 472.96C1260.16 343.503 1153.46 236.8 1024 236.8C894.542 236.8 787.84 343.503 787.84 472.96ZM1102.72 472.96C1102.72 517.24 1068.28 551.68 1024 551.68C979.72 551.68 945.28 517.24 945.28 472.96C945.28 428.68 979.72 394.24 1024 394.24C1068.28 394.24 1102.72 428.68 1102.72 472.96ZM158.08 945.28L158.08 1102.72L1889.92 1102.72L1889.92 945.28L158.08 945.28ZM787.84 1575.04C787.84 1704.5 894.542 1811.2 1024 1811.2C1153.46 1811.2 1260.16 1704.5 1260.16 1575.04C1260.16 1445.58 1153.46 1338.88 1024 1338.88C894.542 1338.88 787.84 1445.58 787.84 1575.04ZM1102.72 1575.04C1102.72 1619.32 1068.28 1653.76 1024 1653.76C979.72 1653.76 945.28 1619.32 945.28 1575.04C945.28 1530.76 979.72 1496.32 1024 1496.32C1068.28 1496.32 1102.72 1530.76 1102.72 1575.04Z" />
<glyph glyph-name="Battery10" unicode="&#xE83F;" d="M0.639984 394.24L0.639984 1653.76L1889.92 1653.76L1889.92 1260.16L2047.36 1260.16L2047.36 787.84L1889.92 787.84L1889.92 394.24L0.639984 394.24ZM1732.48 1496.32L158.08 1496.32L158.08 551.68L1732.48 551.68L1732.48 1496.32ZM315.52 709.12L315.52 1338.88L1575.04 1338.88L1575.04 709.12L315.52 709.12Z" />
<glyph glyph-name="BandBattery6" unicode="&#xECBF;" d="M0.639984 394.24L0.639984 1653.76L1889.92 1653.76L1889.92 1260.16L2047.36 1260.16L2047.36 787.84L1889.92 787.84L1889.92 394.24L0.639984 394.24ZM1732.48 1496.32L158.08 1496.32L158.08 551.68L1732.48 551.68L1732.48 1496.32ZM315.52 709.12L315.52 1338.88L1575.04 1338.88L1575.04 709.12L315.52 709.12Z" />
<glyph glyph-name="ChromeMaximize" unicode="&#xE922;" d="M158.08 158.08L158.08 1889.92L1889.92 1889.92L1889.92 158.08L158.08 158.08ZM1732.48 1732.48L315.52 1732.48L315.52 315.52L1732.48 315.52L1732.48 1732.48ZM472.96 551.68L472.96 1496.32L1575.04 1496.32L1575.04 551.68L472.96 551.68ZM1417.6 1024L630.4 1024L630.4 709.12L1417.6 709.12L1417.6 1024ZM1417.6 1338.88L630.4 1338.88L630.4 1181.44L1417.6 1181.44L1417.6 1338.88Z" />
<glyph glyph-name="QuickNote" unicode="&#xE70B;" d="M158.08 158.08L158.08 1889.92L1889.92 1889.92L1889.92 677.14L1867.78 652.54L1395.46 180.22L1370.86 158.08L158.08 158.08ZM1732.48 1732.48L315.52 1732.48L315.52 315.52L1260.16 315.52L1260.16 787.84L1732.48 787.84L1732.48 1732.48ZM1619.32 630.4L1417.6 630.4L1417.6 428.68L1619.32 630.4Z" />
<glyph glyph-name="Sticker2" unicode="&#xF4AA;" d="M158.08 158.08L158.08 1889.92L1889.92 1889.92L1889.92 677.14L1867.78 652.54L1395.46 180.22L1370.86 158.08L158.08 158.08ZM1732.48 1732.48L315.52 1732.48L315.52 315.52L1260.16 315.52L1260.16 787.84L1732.48 787.84L1732.48 1732.48ZM1619.32 630.4L1417.6 630.4L1417.6 428.68L1619.32 630.4Z" />
<glyph glyph-name="Volume0" unicode="&#xE992;" d="M809.98 1789.06L945.28 1921.9L945.28 126.1L809.98 258.94L438.52 630.4L79.36 630.4L79.36 1417.6L438.52 1417.6L809.98 1789.06ZM787.84 507.4L787.84 1540.6L529.54 1282.3L504.94 1260.16L236.8 1260.16L236.8 787.84L504.94 787.84L529.54 765.7L787.84 507.4ZM1242.94 1242.94L1356.1 1356.1L1575.04 1137.16L1793.98 1356.1L1907.14 1242.94L1688.2 1024L1907.14 805.06L1793.98 691.9L1575.04 910.84L1356.1 691.9L1242.94 805.06L1461.88 1024L1242.94 1242.94Z" />
<glyph glyph-name="AlignRight" unicode="&#xE1A0;" d="M0.639984 315.52L0.639984 472.96L2047.36 472.96L2047.36 315.52L0.639984 315.52ZM630.4 630.4L630.4 787.84L2047.36 787.84L2047.36 630.4L630.4 630.4ZM0.639984 945.28L0.639984 1102.72L2047.36 1102.72L2047.36 945.28L0.639984 945.28ZM630.4 1260.16L630.4 1417.6L2047.36 1417.6L2047.36 1260.16L630.4 1260.16ZM0.639984 1575.04L0.639984 1732.48L2047.36 1732.48L2047.36 1575.04L0.639984 1575.04Z" />
<glyph glyph-name="AlignRight" unicode="&#xE8E2;" d="M0.639984 315.52L0.639984 472.96L2047.36 472.96L2047.36 315.52L0.639984 315.52ZM630.4 630.4L630.4 787.84L2047.36 787.84L2047.36 630.4L630.4 630.4ZM0.639984 945.28L0.639984 1102.72L2047.36 1102.72L2047.36 945.28L0.639984 945.28ZM630.4 1260.16L630.4 1417.6L2047.36 1417.6L2047.36 1260.16L630.4 1260.16ZM0.639984 1575.04L0.639984 1732.48L2047.36 1732.48L2047.36 1575.04L0.639984 1575.04Z" />
<glyph glyph-name="Switch" unicode="&#xE13C;" d="M60.6469 501.503L562.15 1003.01L667.116 895.708L347.554 576.146L1919.71 576.146L1919.71 426.861L347.554 426.861L667.116 107.298L562.15 -4.57764e-05L60.6469 501.503ZM1380.88 1940.7L1485.85 2048L1987.35 1546.5L1485.85 1044.99L1380.88 1152.29L1700.45 1471.85L128.292 1471.85L128.292 1621.14L1700.45 1621.14L1380.88 1940.7Z" />
<glyph glyph-name="Switch" unicode="&#xE8AB;" d="M60.6469 501.503L562.15 1003.01L667.116 895.708L347.554 576.146L1919.71 576.146L1919.71 426.861L347.554 426.861L667.116 107.298L562.15 -4.57764e-05L60.6469 501.503ZM1380.88 1940.7L1485.85 2048L1987.35 1546.5L1485.85 1044.99L1380.88 1152.29L1700.45 1471.85L128.292 1471.85L128.292 1621.14L1700.45 1621.14L1380.88 1940.7Z" />
<glyph glyph-name="Remove" unicode="&#xE108;" d="M158.08 1102.72L158.08 945.28L1889.92 945.28L1889.92 1102.72L158.08 1102.72Z" />
<glyph glyph-name="Remove" unicode="&#xE738;" d="M158.08 1102.72L158.08 945.28L1889.92 945.28L1889.92 1102.72L158.08 1102.72Z" />
<glyph glyph-name="CalculatorSubtract" unicode="&#xE949;" d="M158.08 1102.72L158.08 945.28L1889.92 945.28L1889.92 1102.72L158.08 1102.72Z" />
<glyph glyph-name="DashKey" unicode="&#xE9AE;" d="M158.08 1102.72L158.08 945.28L1889.92 945.28L1889.92 1102.72L158.08 1102.72Z" />
<glyph glyph-name="ChromeMinimizeContrast" unicode="&#xEF2D;" d="M158.08 1102.72L158.08 945.28L1889.92 945.28L1889.92 1102.72L158.08 1102.72Z" />
<glyph glyph-name="Ferry" unicode="&#xE7E3;" d="M945.28 1889.92L945.28 2047.36L1102.72 2047.36L1102.72 1889.92L1417.6 1889.92L1417.6 1653.76L1732.48 1653.76L1732.48 1186.36L1798.9 1171.6C1940.97 1140.85 2011.38 976.338 1936.66 851.8L1811.2 640.24L1811.2 246.64C1876.7 264.167 1919.44 298.3 1919.44 298.3L2017.84 175.3C2017.84 175.3 1901.3 79.36 1734.94 79.36C1619.01 79.36 1542.14 117.797 1496.32 145.78C1450.81 117.49 1377.63 79.36 1262.62 79.36C1146.69 79.36 1069.82 117.797 1024 145.78C978.49 117.49 905.305 79.36 790.3 79.36C674.372 79.36 597.497 117.797 551.68 145.78C506.17 117.49 432.985 79.36 317.98 79.36C151.623 79.36 30.16 175.3 30.16 175.3L128.56 298.3C128.56 298.3 173.147 266.935 236.8 249.1L236.8 640.24L111.34 851.8C36.6175 976.338 107.035 1140.85 249.1 1171.6L249.1 1174.06L315.52 1188.82L315.52 1653.76L630.4 1653.76L630.4 1889.92L945.28 1889.92ZM1764.46 1019.08L1024 1176.52L283.54 1019.08C242.335 1010.16 222.347 969.265 244.18 932.98L381.94 701.74L394.24 684.52L394.24 246.64C459.737 264.167 502.48 298.3 502.48 298.3L551.68 337.66L600.88 298.3C600.88 298.3 684.828 236.8 790.3 236.8C895.772 236.8 974.8 298.3 974.8 298.3L1024 337.66L1073.2 298.3C1073.2 298.3 1157.15 236.8 1262.62 236.8C1368.09 236.8 1447.12 298.3 1447.12 298.3L1496.32 337.66L1545.52 298.3C1545.52 298.3 1590.11 266.935 1653.76 249.1L1653.76 684.52L1666.06 701.74L1803.82 932.98C1825.65 968.958 1805.67 1010.16 1764.46 1019.08ZM551.68 905.92C551.68 968.958 583.045 1024 630.4 1024C677.755 1024 709.12 968.958 709.12 905.92C709.12 842.882 677.755 787.84 630.4 787.84C583.045 787.84 551.68 842.882 551.68 905.92ZM1338.88 905.92C1338.88 968.958 1370.24 1024 1417.6 1024C1464.95 1024 1496.32 968.958 1496.32 905.92C1496.32 842.882 1464.95 787.84 1417.6 787.84C1370.24 787.84 1338.88 842.882 1338.88 905.92ZM1260.16 1496.32L1260.16 1732.48L787.84 1732.48L787.84 1496.32L472.96 1496.32L472.96 1220.8L1006.78 1336.42L1024 1338.88L1041.22 1336.42L1575.04 1220.8L1575.04 1496.32L1260.16 1496.32Z" />
<glyph glyph-name="Bold" unicode="&#xE19B;" d="M158.08 1889.92L1024 1889.92C1330.89 1889.92 1575.04 1645.77 1575.04 1338.88C1575.04 1268.16 1559.36 1197.12 1535.68 1134.08C1653.76 1031.99 1732.48 874.555 1732.48 709.12C1732.48 402.235 1488.32 158.08 1181.44 158.08L158.08 158.08L158.08 1889.92ZM1417.6 1338.88C1417.6 1559.36 1244.48 1732.48 1024 1732.48L315.52 1732.48L315.52 315.52L1181.44 315.52C1401.92 315.52 1575.04 488.643 1575.04 709.12C1575.04 882.243 1464.95 1024 1315.2 1079.04C1378.24 1150.07 1417.6 1236.48 1417.6 1338.88ZM1181.44 472.96L472.96 472.96L472.96 945.28L1181.44 945.28C1315.2 945.28 1417.6 842.882 1417.6 709.12C1417.6 575.357 1315.2 472.96 1181.44 472.96ZM1181.44 787.84L630.4 787.84L630.4 630.4L1181.44 630.4C1228.8 630.4 1260.16 661.765 1260.16 709.12C1260.16 756.475 1228.8 787.84 1181.44 787.84ZM1024 1102.72L472.96 1102.72L472.96 1575.04L1024 1575.04C1157.76 1575.04 1260.16 1472.64 1260.16 1338.88C1260.16 1205.12 1157.76 1102.72 1024 1102.72ZM1024 1417.6L630.4 1417.6L630.4 1260.16L1024 1260.16C1071.35 1260.16 1102.72 1291.53 1102.72 1338.88C1102.72 1386.23 1071.35 1417.6 1024 1417.6Z" />
<glyph glyph-name="Bold" unicode="&#xE8DD;" d="M158.08 1889.92L1024 1889.92C1330.89 1889.92 1575.04 1645.77 1575.04 1338.88C1575.04 1268.16 1559.36 1197.12 1535.68 1134.08C1653.76 1031.99 1732.48 874.555 1732.48 709.12C1732.48 402.235 1488.32 158.08 1181.44 158.08L158.08 158.08L158.08 1889.92ZM1417.6 1338.88C1417.6 1559.36 1244.48 1732.48 1024 1732.48L315.52 1732.48L315.52 315.52L1181.44 315.52C1401.92 315.52 1575.04 488.643 1575.04 709.12C1575.04 882.243 1464.95 1024 1315.2 1079.04C1378.24 1150.07 1417.6 1236.48 1417.6 1338.88ZM1181.44 472.96L472.96 472.96L472.96 945.28L1181.44 945.28C1315.2 945.28 1417.6 842.882 1417.6 709.12C1417.6 575.357 1315.2 472.96 1181.44 472.96ZM1181.44 787.84L630.4 787.84L630.4 630.4L1181.44 630.4C1228.8 630.4 1260.16 661.765 1260.16 709.12C1260.16 756.475 1228.8 787.84 1181.44 787.84ZM1024 1102.72L472.96 1102.72L472.96 1575.04L1024 1575.04C1157.76 1575.04 1260.16 1472.64 1260.16 1338.88C1260.16 1205.12 1157.76 1102.72 1024 1102.72ZM1024 1417.6L630.4 1417.6L630.4 1260.16L1024 1260.16C1071.35 1260.16 1102.72 1291.53 1102.72 1338.88C1102.72 1386.23 1071.35 1417.6 1024 1417.6Z" />
<glyph glyph-name="ChevronDown" unicode="&#xE70D;" d="M0 1316.92L111.357 1428.27L1024 515.631L1936.64 1428.27L2048 1316.92L1079.68 348.596L1024 295.338L968.322 348.596L0 1316.92Z" />
<glyph glyph-name="PageRight" unicode="&#xE761;" d="M0.639984 1024C0.639984 1588.26 459.737 2047.36 1024 2047.36C1588.26 2047.36 2047.36 1588.26 2047.36 1024C2047.36 459.737 1588.26 0.639984 1024 0.639984C459.737 0.639984 0.639984 459.737 0.639984 1024ZM1889.92 1024C1889.92 1503.08 1503.08 1889.92 1024 1889.92C544.915 1889.92 158.08 1503.08 158.08 1024C158.08 544.915 544.915 158.08 1024 158.08C1503.08 158.08 1889.92 544.915 1889.92 1024ZM770.62 1439.74L883.78 1552.9L1356.1 1080.58L1410.22 1024L1356.1 967.42L883.78 495.1L770.62 608.26L1186.36 1024L770.62 1439.74Z" />
<glyph glyph-name="Movies" unicode="&#xE8B2;" d="M79.36 79.36L79.36 1968.64L1968.64 1968.64L1968.64 79.36L79.36 79.36ZM394.24 1811.2L236.8 1811.2L236.8 236.8L394.24 236.8L394.24 315.52L551.68 315.52L551.68 236.8L1496.32 236.8L1496.32 315.52L1653.76 315.52L1653.76 236.8L1811.2 236.8L1811.2 1811.2L1653.76 1811.2L1653.76 1732.48L1496.32 1732.48L1496.32 1811.2L551.68 1811.2L551.68 1732.48L394.24 1732.48L394.24 1811.2ZM394.24 472.96L394.24 630.4L551.68 630.4L551.68 472.96L394.24 472.96ZM1496.32 472.96L1496.32 630.4L1653.76 630.4L1653.76 472.96L1496.32 472.96ZM394.24 787.84L394.24 945.28L551.68 945.28L551.68 787.84L394.24 787.84ZM1496.32 787.84L1496.32 945.28L1653.76 945.28L1653.76 787.84L1496.32 787.84ZM394.24 1102.72L394.24 1260.16L551.68 1260.16L551.68 1102.72L394.24 1102.72ZM1496.32 1102.72L1496.32 1260.16L1653.76 1260.16L1653.76 1102.72L1496.32 1102.72ZM394.24 1417.6L394.24 1575.04L551.68 1575.04L551.68 1417.6L394.24 1417.6ZM1496.32 1417.6L1496.32 1575.04L1653.76 1575.04L1653.76 1417.6L1496.32 1417.6Z" />
<glyph glyph-name="People" unicode="&#xE125;" d="M136.533 1228.8C136.533 1454.13 320.8 1638.4 546.133 1638.4C771.467 1638.4 955.733 1454.13 955.733 1228.8C955.733 1093.33 889.067 972.8 787.2 898.133C886.667 848.8 970.133 770.933 1024 674.133C1077.87 770.933 1161.33 848.8 1260.8 898.133C1158.93 972.8 1092.27 1093.33 1092.27 1228.8C1092.27 1454.13 1276.53 1638.4 1501.87 1638.4C1727.2 1638.4 1911.47 1454.13 1911.47 1228.8C1911.47 1093.33 1844.8 972.8 1742.93 898.133C1922.93 808.8 2048 623.733 2048 409.6L1911.47 409.6C1911.47 636.533 1728.8 819.2 1501.87 819.2C1274.93 819.2 1092.27 636.533 1092.27 409.6L955.733 409.6C955.733 636.533 773.067 819.2 546.133 819.2C319.2 819.2 136.533 636.533 136.533 409.6L-5.34058e-05 409.6C-5.34058e-05 623.733 125.067 808.8 305.067 898.133C203.2 972.8 136.533 1093.33 136.533 1228.8ZM819.2 1228.8C819.2 1380.53 697.867 1501.87 546.133 1501.87C394.4 1501.87 273.067 1380.53 273.067 1228.8C273.067 1077.07 394.4 955.733 546.133 955.733C697.867 955.733 819.2 1077.07 819.2 1228.8ZM1774.93 1228.8C1774.93 1380.53 1653.6 1501.87 1501.87 1501.87C1350.13 1501.87 1228.8 1380.53 1228.8 1228.8C1228.8 1077.07 1350.13 955.733 1501.87 955.733C1653.6 955.733 1774.93 1077.07 1774.93 1228.8Z" />
<glyph glyph-name="People" unicode="&#xE716;" d="M136.533 1228.8C136.533 1454.13 320.8 1638.4 546.133 1638.4C771.467 1638.4 955.733 1454.13 955.733 1228.8C955.733 1093.33 889.067 972.8 787.2 898.133C886.667 848.8 970.133 770.933 1024 674.133C1077.87 770.933 1161.33 848.8 1260.8 898.133C1158.93 972.8 1092.27 1093.33 1092.27 1228.8C1092.27 1454.13 1276.53 1638.4 1501.87 1638.4C1727.2 1638.4 1911.47 1454.13 1911.47 1228.8C1911.47 1093.33 1844.8 972.8 1742.93 898.133C1922.93 808.8 2048 623.733 2048 409.6L1911.47 409.6C1911.47 636.533 1728.8 819.2 1501.87 819.2C1274.93 819.2 1092.27 636.533 1092.27 409.6L955.733 409.6C955.733 636.533 773.067 819.2 546.133 819.2C319.2 819.2 136.533 636.533 136.533 409.6L-5.34058e-05 409.6C-5.34058e-05 623.733 125.067 808.8 305.067 898.133C203.2 972.8 136.533 1093.33 136.533 1228.8ZM819.2 1228.8C819.2 1380.53 697.867 1501.87 546.133 1501.87C394.4 1501.87 273.067 1380.53 273.067 1228.8C273.067 1077.07 394.4 955.733 546.133 955.733C697.867 955.733 819.2 1077.07 819.2 1228.8ZM1774.93 1228.8C1774.93 1380.53 1653.6 1501.87 1501.87 1501.87C1350.13 1501.87 1228.8 1380.53 1228.8 1228.8C1228.8 1077.07 1350.13 955.733 1501.87 955.733C1653.6 955.733 1774.93 1077.07 1774.93 1228.8Z" />
<glyph glyph-name="ChromeRestore" unicode="&#xE923;" d="M158.08 158.08L158.08 1889.92L1889.92 1889.92L1889.92 158.08L158.08 158.08ZM1732.48 1732.48L315.52 1732.48L315.52 315.52L1732.48 315.52L1732.48 1732.48ZM709.12 1260.16L709.12 1575.04L1575.04 1575.04L1575.04 787.84L1338.88 787.84L1338.88 472.96L472.96 472.96L472.96 1260.16L709.12 1260.16ZM709.12 864.1L630.4 864.1L630.4 630.4L1181.44 630.4L1181.44 787.84L709.12 787.84L709.12 864.1ZM1417.6 1181.44L866.56 1181.44L866.56 945.28L1417.6 945.28L1417.6 1181.44ZM709.12 1102.72L630.4 1102.72L630.4 1021.54L709.12 1021.54L709.12 1102.72ZM1417.6 1417.6L866.56 1417.6L866.56 1338.88L1417.6 1338.88L1417.6 1417.6Z" />
<glyph glyph-name="MicOff" unicode="&#xEC54;" d="M-4.57764e-05 1940.7L107.298 2048L650.788 1504.51L650.788 1770.42C650.788 1852.65 717.85 1919.71 800.073 1919.71L1247.93 1919.71C1330.15 1919.71 1397.21 1852.65 1397.21 1770.42L1397.21 874.715C1397.21 842.059 1387.01 810.569 1369.22 786.077L1474.19 681.112C1519.38 733.011 1546.5 800.656 1546.5 874.715L1546.5 1173.28L1695.78 1173.28L1695.78 874.715C1695.78 759.544 1650.88 655.453 1579.15 576.146L2048 107.298L1940.7 -4.57764e-05L-4.57764e-05 1940.7ZM352.219 874.715L352.219 1173.28L501.503 1173.28L501.503 874.715C501.503 709.977 635.335 576.146 800.073 576.146L1159.29 576.146L1303.91 431.526C1285.54 429.194 1266.88 426.861 1247.93 426.861L1098.64 426.861L1098.64 277.576L1397.21 277.576L1397.21 128.292L650.788 128.292L650.788 277.576L949.358 277.576L949.358 426.861L800.073 426.861C553.112 426.861 352.219 627.754 352.219 874.715ZM650.788 874.715L650.788 1084.65L800.073 935.362L800.073 874.715L860.72 874.715L1010 725.431L800.073 725.431C717.85 725.431 650.788 792.492 650.788 874.715ZM1247.93 1770.42L800.073 1770.42L800.073 1355.23L1247.93 907.371L1247.93 1770.42Z" />
<glyph glyph-name="MicOff2" unicode="&#xF781;" d="M-4.57764e-05 1940.7L107.298 2048L650.788 1504.51L650.788 1770.42C650.788 1852.65 717.85 1919.71 800.073 1919.71L1247.93 1919.71C1330.15 1919.71 1397.21 1852.65 1397.21 1770.42L1397.21 874.715C1397.21 842.059 1387.01 810.569 1369.22 786.077L1474.19 681.112C1519.38 733.011 1546.5 800.656 1546.5 874.715L1546.5 1173.28L1695.78 1173.28L1695.78 874.715C1695.78 759.544 1650.88 655.453 1579.15 576.146L2048 107.298L1940.7 -4.57764e-05L-4.57764e-05 1940.7ZM352.219 874.715L352.219 1173.28L501.503 1173.28L501.503 874.715C501.503 709.977 635.335 576.146 800.073 576.146L1159.29 576.146L1303.91 431.526C1285.54 429.194 1266.88 426.861 1247.93 426.861L1098.64 426.861L1098.64 277.576L1397.21 277.576L1397.21 128.292L650.788 128.292L650.788 277.576L949.358 277.576L949.358 426.861L800.073 426.861C553.112 426.861 352.219 627.754 352.219 874.715ZM650.788 874.715L650.788 1084.65L800.073 935.362L800.073 874.715L860.72 874.715L1010 725.431L800.073 725.431C717.85 725.431 650.788 792.492 650.788 874.715ZM1247.93 1770.42L800.073 1770.42L800.073 1355.23L1247.93 907.371L1247.93 1770.42Z" />
<glyph glyph-name="Favorite" unicode="&#xE113;" d="M1321.43 1347.38L2048 1270.65L1505.31 781.532L1656.82 66.9645L1024 431.921L391.185 66.9645L542.692 781.532L-1.52588e-05 1270.65L726.566 1347.38L1024 2014.52L1321.43 1347.38Z" />
<glyph glyph-name="SolidStar" unicode="&#xE1CF;" d="M1321.43 1347.38L2048 1270.65L1505.31 781.532L1656.82 66.9645L1024 431.921L391.185 66.9645L542.692 781.532L-1.52588e-05 1270.65L726.566 1347.38L1024 2014.52L1321.43 1347.38Z" />
<glyph glyph-name="FavoriteStarFill" unicode="&#xE735;" d="M1321.43 1347.38L2048 1270.65L1505.31 781.532L1656.82 66.9645L1024 431.921L391.185 66.9645L542.692 781.532L-1.52588e-05 1270.65L726.566 1347.38L1024 2014.52L1321.43 1347.38Z" />
<glyph glyph-name="Battery1" unicode="&#xE851;" d="M0.639984 394.24L0.639984 1653.76L1889.92 1653.76L1889.92 1260.16L2047.36 1260.16L2047.36 787.84L1889.92 787.84L1889.92 394.24L0.639984 394.24ZM1732.48 1496.32L158.08 1496.32L158.08 551.68L1732.48 551.68L1732.48 1496.32ZM315.52 709.12L315.52 1338.88L630.4 1338.88L630.4 709.12L315.52 709.12Z" />
<glyph glyph-name="Battery2" unicode="&#xE852;" d="M0.639984 394.24L0.639984 1653.76L1889.92 1653.76L1889.92 1260.16L2047.36 1260.16L2047.36 787.84L1889.92 787.84L1889.92 394.24L0.639984 394.24ZM1732.48 1496.32L158.08 1496.32L158.08 551.68L1732.48 551.68L1732.48 1496.32ZM315.52 709.12L315.52 1338.88L630.4 1338.88L630.4 709.12L315.52 709.12Z" />
<glyph glyph-name="Battery3" unicode="&#xE853;" d="M0.639984 394.24L0.639984 1653.76L1889.92 1653.76L1889.92 1260.16L2047.36 1260.16L2047.36 787.84L1889.92 787.84L1889.92 394.24L0.639984 394.24ZM1732.48 1496.32L158.08 1496.32L158.08 551.68L1732.48 551.68L1732.48 1496.32ZM315.52 709.12L315.52 1338.88L630.4 1338.88L630.4 709.12L315.52 709.12Z" />
<glyph glyph-name="Battery4" unicode="&#xE854;" d="M0.639984 394.24L0.639984 1653.76L1889.92 1653.76L1889.92 1260.16L2047.36 1260.16L2047.36 787.84L1889.92 787.84L1889.92 394.24L0.639984 394.24ZM1732.48 1496.32L158.08 1496.32L158.08 551.68L1732.48 551.68L1732.48 1496.32ZM315.52 709.12L315.52 1338.88L630.4 1338.88L630.4 709.12L315.52 709.12Z" />
<glyph glyph-name="BandBattery1" unicode="&#xECBA;" d="M0.639984 394.24L0.639984 1653.76L1889.92 1653.76L1889.92 1260.16L2047.36 1260.16L2047.36 787.84L1889.92 787.84L1889.92 394.24L0.639984 394.24ZM1732.48 1496.32L158.08 1496.32L158.08 551.68L1732.48 551.68L1732.48 1496.32ZM315.52 709.12L315.52 1338.88L630.4 1338.88L630.4 709.12L315.52 709.12Z" />
<glyph glyph-name="BandBattery2" unicode="&#xECBB;" d="M0.639984 394.24L0.639984 1653.76L1889.92 1653.76L1889.92 1260.16L2047.36 1260.16L2047.36 787.84L1889.92 787.84L1889.92 394.24L0.639984 394.24ZM1732.48 1496.32L158.08 1496.32L158.08 551.68L1732.48 551.68L1732.48 1496.32ZM315.52 709.12L315.52 1338.88L630.4 1338.88L630.4 709.12L315.52 709.12Z" />
<glyph glyph-name="ActionCenterNotification" unicode="&#xE7E7;" d="M0.639984 236.8L0.639984 1811.2L2047.36 1811.2L2047.36 236.8L1292.76 236.8L1024 -31.955L755.245 236.8L0.639984 236.8ZM1889.92 1653.76L158.08 1653.76L158.08 394.24L820.435 394.24L1024 190.675L1227.57 394.24L1889.92 394.24L1889.92 1653.76ZM472.96 630.4L472.96 787.84L1260.16 787.84L1260.16 630.4L472.96 630.4ZM472.96 945.28L472.96 1102.72L1575.04 1102.72L1575.04 945.28L472.96 945.28ZM472.96 1260.16L472.96 1417.6L1575.04 1417.6L1575.04 1260.16L472.96 1260.16Z" />
<glyph glyph-name="MobActionCenter" unicode="&#xEC42;" d="M0.639984 236.8L0.639984 1811.2L2047.36 1811.2L2047.36 236.8L1292.76 236.8L1024 -31.955L755.245 236.8L0.639984 236.8ZM1889.92 1653.76L158.08 1653.76L158.08 394.24L820.435 394.24L1024 190.675L1227.57 394.24L1889.92 394.24L1889.92 1653.76ZM472.96 630.4L472.96 787.84L1260.16 787.84L1260.16 630.4L472.96 630.4ZM472.96 945.28L472.96 1102.72L1575.04 1102.72L1575.04 945.28L472.96 945.28ZM472.96 1260.16L472.96 1417.6L1575.04 1417.6L1575.04 1260.16L472.96 1260.16Z" />
<glyph glyph-name="Filter" unicode="&#xE16E;" d="M158.08 1784.14L158.08 1968.64L1889.92 1968.64L1889.92 1784.14L1872.7 1762L1260.16 996.94L1260.16 433.6L1228.18 409L913.3 172.84L787.84 79.36L787.84 996.94L175.3 1762L158.08 1784.14ZM1102.72 945.28L945.28 945.28L945.28 394.24L1102.72 512.32L1102.72 945.28ZM1710.34 1811.2L337.66 1811.2L903.46 1102.72L1144.54 1102.72L1710.34 1811.2Z" />
<glyph glyph-name="Filter" unicode="&#xE71C;" d="M158.08 1784.14L158.08 1968.64L1889.92 1968.64L1889.92 1784.14L1872.7 1762L1260.16 996.94L1260.16 433.6L1228.18 409L913.3 172.84L787.84 79.36L787.84 996.94L175.3 1762L158.08 1784.14ZM1102.72 945.28L945.28 945.28L945.28 394.24L1102.72 512.32L1102.72 945.28ZM1710.34 1811.2L337.66 1811.2L903.46 1102.72L1144.54 1102.72L1710.34 1811.2Z" />
<glyph glyph-name="Processing" unicode="&#xE9F5;" d="M394.603 937.95L394.603 1024L551.952 1024L551.952 935.491C599.894 925.042 645.071 907.832 684.716 881.402L743.721 940.408L854.358 829.772L795.352 770.766C824.24 728.355 843.909 680.106 854.358 628.168L942.867 630.627L947.784 473.277L854.358 470.819C843.601 420.725 823.318 374.319 795.352 333.138L854.358 274.132L743.721 163.496L684.716 222.502C645.071 196.072 599.894 178.862 551.952 168.413L551.952 79.904L394.603 79.904L394.603 165.954C341.743 176.096 292.571 195.765 249.546 224.96L188.082 163.496L74.9868 274.132L138.91 338.055C112.173 378.929 92.5042 424.106 82.3626 473.277L1.22932 473.277L1.22932 630.627L82.3626 630.627C92.5042 679.798 112.173 724.975 138.91 765.849L74.9868 829.772L188.082 940.408L249.546 878.944C292.571 908.139 341.743 927.808 394.603 937.95ZM1496.05 935.491L1496.05 1024L1653.4 1024L1653.4 933.032C1700.11 922.583 1744.67 904.451 1783.7 878.944L1845.17 940.408L1955.8 829.772L1894.34 768.307C1922.61 726.204 1945.66 679.491 1955.8 628.168L2044.31 630.627L2049.23 473.277L1955.8 470.819C1945.05 420.418 1925.07 374.319 1896.8 333.138L1955.8 274.132L1845.17 163.496L1783.7 224.96C1744.06 198.838 1701.03 178.862 1653.4 168.413L1653.4 79.904L1496.05 79.904L1496.05 168.413C1444.11 178.555 1393.71 196.379 1350.99 224.96L1289.53 163.496L1176.43 274.132L1240.36 338.055C1213.62 378.622 1193.95 424.413 1183.81 473.277L1102.67 473.277L1102.67 630.627L1183.81 630.627C1193.95 679.491 1213.62 725.282 1240.36 765.849L1176.43 829.772L1289.53 940.408L1350.99 878.944C1393.71 907.525 1444.11 925.349 1496.05 935.491ZM704.384 551.952C704.384 683.179 599.587 787.976 468.36 787.976C337.133 787.976 232.336 683.179 232.336 551.952C232.336 420.725 337.133 315.928 468.36 315.928C599.587 315.928 704.384 420.725 704.384 551.952ZM1805.83 551.952C1805.83 683.179 1701.03 787.976 1569.81 787.976C1438.58 787.976 1333.78 683.179 1333.78 551.952C1333.78 420.725 1438.58 315.928 1569.81 315.928C1701.03 315.928 1805.83 420.725 1805.83 551.952ZM945.325 1879.59L945.325 1968.1L1102.67 1968.1L1102.67 1879.59C1150.62 1869.14 1195.79 1851.93 1235.44 1825.5L1294.44 1884.5L1405.08 1773.87L1346.07 1714.86C1374.35 1673.07 1394.63 1625.74 1405.08 1574.72L1496.05 1574.72L1496.05 1417.37L1405.08 1417.37C1394.63 1366.36 1374.35 1319.03 1346.07 1277.23L1405.08 1218.23L1294.44 1107.59L1235.44 1166.6C1195.79 1140.17 1150.62 1122.96 1102.67 1112.51L1102.67 1024L945.325 1024L945.325 1112.51C893.388 1122.65 842.987 1140.48 800.269 1169.06L738.804 1107.59L625.709 1218.23L689.633 1282.15C662.896 1322.72 643.227 1368.51 633.085 1417.37L551.952 1417.37L551.952 1574.72L633.085 1574.72C643.227 1623.59 662.896 1669.38 689.633 1709.94L625.709 1773.87L738.804 1884.5L800.269 1823.04C842.987 1851.62 893.388 1869.45 945.325 1879.59ZM1255.11 1496.05C1255.11 1627.27 1150.31 1732.07 1019.08 1732.07C887.856 1732.07 783.059 1627.27 783.059 1496.05C783.059 1364.82 887.856 1260.02 1019.08 1260.02C1150.31 1260.02 1255.11 1364.82 1255.11 1496.05Z" />
<glyph glyph-name="CalculatorPercentage" unicode="&#xE94C;" d="M650.08 236.8L453.28 236.8L1397.92 1811.2L1594.72 1811.2L650.08 236.8ZM1260.16 748.48C1260.16 899.77 1384.39 1024 1535.68 1024C1686.97 1024 1811.2 899.77 1811.2 748.48L1811.2 512.32C1811.2 361.03 1686.97 236.8 1535.68 236.8C1384.39 236.8 1260.16 361.03 1260.16 512.32L1260.16 748.48ZM1653.76 748.48C1653.76 814.593 1601.79 866.56 1535.68 866.56C1469.57 866.56 1417.6 814.593 1417.6 748.48L1417.6 512.32C1417.6 446.208 1469.57 394.24 1535.68 394.24C1601.79 394.24 1653.76 446.208 1653.76 512.32L1653.76 748.48ZM236.8 1535.68C236.8 1686.97 361.03 1811.2 512.32 1811.2C663.61 1811.2 787.84 1686.97 787.84 1535.68L787.84 1299.52C787.84 1148.23 663.61 1024 512.32 1024C361.03 1024 236.8 1148.23 236.8 1299.52L236.8 1535.68ZM630.4 1535.68C630.4 1601.79 578.432 1653.76 512.32 1653.76C446.208 1653.76 394.24 1601.79 394.24 1535.68L394.24 1299.52C394.24 1233.41 446.208 1181.44 512.32 1181.44C578.432 1181.44 630.4 1233.41 630.4 1299.52L630.4 1535.68Z" />
<glyph glyph-name="PuncKey1" unicode="&#xE9B4;" d="M650.08 236.8L453.28 236.8L1397.92 1811.2L1594.72 1811.2L650.08 236.8ZM1260.16 748.48C1260.16 899.77 1384.39 1024 1535.68 1024C1686.97 1024 1811.2 899.77 1811.2 748.48L1811.2 512.32C1811.2 361.03 1686.97 236.8 1535.68 236.8C1384.39 236.8 1260.16 361.03 1260.16 512.32L1260.16 748.48ZM1653.76 748.48C1653.76 814.593 1601.79 866.56 1535.68 866.56C1469.57 866.56 1417.6 814.593 1417.6 748.48L1417.6 512.32C1417.6 446.208 1469.57 394.24 1535.68 394.24C1601.79 394.24 1653.76 446.208 1653.76 512.32L1653.76 748.48ZM236.8 1535.68C236.8 1686.97 361.03 1811.2 512.32 1811.2C663.61 1811.2 787.84 1686.97 787.84 1535.68L787.84 1299.52C787.84 1148.23 663.61 1024 512.32 1024C361.03 1024 236.8 1148.23 236.8 1299.52L236.8 1535.68ZM630.4 1535.68C630.4 1601.79 578.432 1653.76 512.32 1653.76C446.208 1653.76 394.24 1601.79 394.24 1535.68L394.24 1299.52C394.24 1233.41 446.208 1181.44 512.32 1181.44C578.432 1181.44 630.4 1233.41 630.4 1299.52L630.4 1535.68Z" />
<glyph glyph-name="Undo" unicode="&#xE10E;" d="M140.86 1238.02L770.62 1867.78L883.78 1754.62L389.32 1260.16L1417.6 1260.16C1720.18 1260.16 1968.64 1011.7 1968.64 709.12L1968.64 158.08L1811.2 158.08L1811.2 709.12C1811.2 925.907 1634.39 1102.72 1417.6 1102.72L389.32 1102.72L883.78 608.26L770.62 495.1L140.86 1124.86L86.74 1181.44L140.86 1238.02Z" />
<glyph glyph-name="Undo" unicode="&#xE7A7;" d="M140.86 1238.02L770.62 1867.78L883.78 1754.62L389.32 1260.16L1417.6 1260.16C1720.18 1260.16 1968.64 1011.7 1968.64 709.12L1968.64 158.08L1811.2 158.08L1811.2 709.12C1811.2 925.907 1634.39 1102.72 1417.6 1102.72L389.32 1102.72L883.78 608.26L770.62 495.1L140.86 1124.86L86.74 1181.44L140.86 1238.02Z" />
<glyph glyph-name="RevToggleKey" unicode="&#xE845;" d="M140.86 1238.02L770.62 1867.78L883.78 1754.62L389.32 1260.16L1417.6 1260.16C1720.18 1260.16 1968.64 1011.7 1968.64 709.12L1968.64 158.08L1811.2 158.08L1811.2 709.12C1811.2 925.907 1634.39 1102.72 1417.6 1102.72L389.32 1102.72L883.78 608.26L770.62 495.1L140.86 1124.86L86.74 1181.44L140.86 1238.02Z" />
<glyph glyph-name="Mail" unicode="&#xE119;" d="M0.639984 236.8L0.639984 1653.76L2047.36 1653.76L2047.36 236.8L0.639984 236.8ZM979.72 878.86L158.08 1427.44L158.08 394.24L1889.92 394.24L1889.92 1427.44L1068.28 878.86L1024 851.8L979.72 878.86ZM1024 1041.22L1707.88 1496.32L340.12 1496.32L1024 1041.22Z" />
<glyph glyph-name="Mail" unicode="&#xE715;" d="M0.639984 236.8L0.639984 1653.76L2047.36 1653.76L2047.36 236.8L0.639984 236.8ZM979.72 878.86L158.08 1427.44L158.08 394.24L1889.92 394.24L1889.92 1427.44L1068.28 878.86L1024 851.8L979.72 878.86ZM1024 1041.22L1707.88 1496.32L340.12 1496.32L1024 1041.22Z" />
<glyph glyph-name="MailBadge12" unicode="&#xEDB3;" d="M0.639984 236.8L0.639984 1653.76L2047.36 1653.76L2047.36 236.8L0.639984 236.8ZM979.72 878.86L158.08 1427.44L158.08 394.24L1889.92 394.24L1889.92 1427.44L1068.28 878.86L1024 851.8L979.72 878.86ZM1024 1041.22L1707.88 1496.32L340.12 1496.32L1024 1041.22Z" />
<glyph glyph-name="Design" unicode="&#xEB3C;" d="M404.08 1990.78L458.2 2047.36L1024 1481.56L1412.68 1870.24C1476.03 1933.58 1558.74 1966.18 1641.46 1966.18C1724.18 1966.18 1806.9 1933.58 1870.24 1870.24C1996.93 1743.55 1996.93 1539.37 1870.24 1412.68L1481.56 1024L2044.9 460.66L1988.32 406.54L1641.46 59.68L1587.34 3.09999L1024 566.44L630.4 172.84L605.8 167.92L172.84 81.82L57.22 57.22L81.82 172.84L167.92 605.8L172.84 630.4L566.44 1024L0.639984 1589.8L57.22 1643.92L404.08 1990.78ZM1557.82 726.34L1370.86 913.3L1134.7 677.14L1584.88 226.96L1821.04 463.12L1670.98 613.18L1552.9 495.1L1439.74 608.26L1557.82 726.34ZM519.7 310.6C480.032 405.003 405.003 480.032 310.6 519.7L258.94 258.94L519.7 310.6ZM1597.18 1363.48L1363.48 1597.18L411.46 645.16C511.398 593.193 593.193 511.398 645.16 411.46L1597.18 1363.48ZM610.72 1668.52L458.2 1823.5L222.04 1589.8L677.14 1134.7L910.84 1368.4L723.88 1555.36L608.26 1439.74L495.1 1552.9L610.72 1668.52ZM1759.54 1759.54C1723.87 1795.21 1682.36 1813.66 1641.46 1813.66C1600.56 1813.66 1561.51 1795.21 1525.84 1759.54L1474.18 1707.88L1707.88 1474.18L1759.54 1525.84C1830.57 1596.87 1830.57 1688.51 1759.54 1759.54Z" />
<glyph glyph-name="Battery5" unicode="&#xE855;" d="M0.639984 394.24L0.639984 1653.76L1889.92 1653.76L1889.92 1260.16L2047.36 1260.16L2047.36 787.84L1889.92 787.84L1889.92 394.24L0.639984 394.24ZM1732.48 551.68L1732.48 1496.32L158.08 1496.32L158.08 551.68L1732.48 551.68ZM315.52 709.12L315.52 1338.88L945.28 1338.88L945.28 709.12L315.52 709.12Z" />
<glyph glyph-name="BandBattery3" unicode="&#xECBC;" d="M0.639984 394.24L0.639984 1653.76L1889.92 1653.76L1889.92 1260.16L2047.36 1260.16L2047.36 787.84L1889.92 787.84L1889.92 394.24L0.639984 394.24ZM1732.48 551.68L1732.48 1496.32L158.08 1496.32L158.08 551.68L1732.48 551.68ZM315.52 709.12L315.52 1338.88L945.28 1338.88L945.28 709.12L315.52 709.12Z" />
<glyph glyph-name="Headset" unicode="&#xE95B;" d="M158.08 1181.44C158.08 1657.45 547.99 2047.36 1024 2047.36C1500.01 2047.36 1889.92 1657.45 1889.92 1181.44L1889.92 709.12C1889.92 579.662 1783.22 472.96 1653.76 472.96L1417.6 472.96L1417.6 1181.44L1732.48 1181.44C1732.48 1571.35 1413.91 1889.92 1024 1889.92C634.09 1889.92 315.52 1571.35 315.52 1181.44L630.4 1181.44L630.4 472.96L472.96 472.96C472.96 342.58 578.74 236.8 709.12 236.8L809.98 236.8C837.348 283.847 887.162 315.52 945.28 315.52L1102.72 315.52C1189.44 315.52 1260.16 244.795 1260.16 158.08C1260.16 71.365 1189.44 0.639984 1102.72 0.639984L945.28 0.639984C887.162 0.639984 837.348 32.3125 809.98 79.36L709.12 79.36C492.948 79.36 315.52 256.787 315.52 472.96L315.52 487.72C224.5 520.622 158.08 607.337 158.08 709.12L158.08 1181.44ZM472.96 630.4L472.96 1024L315.52 1024L315.52 709.12C315.52 665.455 350.575 630.4 394.24 630.4L472.96 630.4ZM1732.48 709.12L1732.48 1024L1575.04 1024L1575.04 630.4L1653.76 630.4C1697.43 630.4 1732.48 665.455 1732.48 709.12Z" />
<glyph glyph-name="Train" unicode="&#xE7C0;" d="M662.38 1889.92C697.128 1977.25 767.545 2047.36 866.56 2047.36L1181.44 2047.36C1280.45 2047.36 1350.87 1977.25 1385.62 1889.92L1496.32 1889.92C1712.8 1889.92 1889.92 1712.8 1889.92 1496.32L1889.92 630.4C1889.92 439.443 1775.84 274.315 1611.94 199.9L1811.2 0.639984L1626.7 0.639984L1466.8 160.54C1451.12 159.002 1433.9 158.08 1417.6 158.08L630.4 158.08C614.102 158.08 596.883 159.002 581.2 160.54L421.3 0.639984L236.8 0.639984L436.06 199.9C272.163 274.315 158.08 439.443 158.08 630.4L158.08 1496.32C158.08 1712.8 335.2 1889.92 551.68 1889.92L662.38 1889.92ZM1732.48 866.56L315.52 866.56L315.52 630.4C315.52 455.74 455.74 315.52 630.4 315.52L1417.6 315.52C1592.26 315.52 1732.48 455.74 1732.48 630.4L1732.48 866.56ZM866.56 630.4C866.56 717.422 936.978 787.84 1024 787.84C1111.02 787.84 1181.44 717.422 1181.44 630.4C1181.44 543.378 1111.02 472.96 1024 472.96C936.978 472.96 866.56 543.378 866.56 630.4ZM1732.48 1417.6L315.52 1417.6L315.52 1024L1732.48 1024L1732.48 1417.6ZM1181.44 1889.92L866.56 1889.92C821.973 1889.92 787.84 1855.79 787.84 1811.2L787.84 1732.48L551.68 1732.48C447.745 1732.48 359.8 1667.29 327.82 1575.04L1720.18 1575.04C1688.2 1667.29 1600.26 1732.48 1496.32 1732.48L1260.16 1732.48L1260.16 1811.2C1260.16 1855.79 1226.03 1889.92 1181.44 1889.92Z" />
<glyph glyph-name="FolderOpen" unicode="&#xE838;" d="M211.265 151.233L211.265 1984.51L1836.73 1984.51L1836.73 1215.64L1815.95 1192.55L1688.96 1065.56L1688.96 137.38L1245.66 137.38L1245.66 -63.4949L1155.61 -45.0236L268.988 139.689L211.265 151.233ZM950.115 1668.18L359.035 1815.95L359.035 271.297L1097.89 116.6L1097.89 880.848L970.895 1007.84L950.115 1030.93L950.115 1668.18ZM1688.96 1836.73L885.466 1836.73L1097.89 1783.63L1097.89 1093.27L1224.87 966.277L1245.66 943.188L1245.66 285.15L1541.2 285.15L1541.2 1127.9L1561.98 1150.99L1688.96 1277.98L1688.96 1836.73Z" />
<glyph glyph-name="TreeFolderFolderOpen" unicode="&#xED43;" d="M211.265 151.233L211.265 1984.51L1836.73 1984.51L1836.73 1215.64L1815.95 1192.55L1688.96 1065.56L1688.96 137.38L1245.66 137.38L1245.66 -63.4949L1155.61 -45.0236L268.988 139.689L211.265 151.233ZM950.115 1668.18L359.035 1815.95L359.035 271.297L1097.89 116.6L1097.89 880.848L970.895 1007.84L950.115 1030.93L950.115 1668.18ZM1688.96 1836.73L885.466 1836.73L1097.89 1783.63L1097.89 1093.27L1224.87 966.277L1245.66 943.188L1245.66 285.15L1541.2 285.15L1541.2 1127.9L1561.98 1150.99L1688.96 1277.98L1688.96 1836.73Z" />
<glyph glyph-name="Video" unicode="&#xE116;" d="M-4.57764e-05 438.857L-4.57764e-05 1609.14L1609.14 1609.14L1609.14 1362.29L2048 1581.71L2048 466.286L1609.14 685.714L1609.14 438.857L-4.57764e-05 438.857ZM1462.86 1462.86L146.286 1462.86L146.286 585.143L1462.86 585.143L1462.86 1462.86ZM1901.71 704L1901.71 1344L1609.14 1197.71L1609.14 850.286L1901.71 704Z" />
<glyph glyph-name="Video" unicode="&#xE714;" d="M-4.57764e-05 438.857L-4.57764e-05 1609.14L1609.14 1609.14L1609.14 1362.29L2048 1581.71L2048 466.286L1609.14 685.714L1609.14 438.857L-4.57764e-05 438.857ZM1462.86 1462.86L146.286 1462.86L146.286 585.143L1462.86 585.143L1462.86 1462.86ZM1901.71 704L1901.71 1344L1609.14 1197.71L1609.14 850.286L1901.71 704Z" />
<glyph glyph-name="PresenceChickletVideo" unicode="&#xE979;" d="M-4.57764e-05 438.857L-4.57764e-05 1609.14L1609.14 1609.14L1609.14 1362.29L2048 1581.71L2048 466.286L1609.14 685.714L1609.14 438.857L-4.57764e-05 438.857ZM1462.86 1462.86L146.286 1462.86L146.286 585.143L1462.86 585.143L1462.86 1462.86ZM1901.71 704L1901.71 1344L1609.14 1197.71L1609.14 850.286L1901.71 704Z" />
<glyph glyph-name="VideoSolid" unicode="&#xEA0C;" d="M-4.57764e-05 438.857L-4.57764e-05 1609.14L1609.14 1609.14L1609.14 1362.29L2048 1581.71L2048 466.286L1609.14 685.714L1609.14 438.857L-4.57764e-05 438.857ZM1462.86 1462.86L146.286 1462.86L146.286 585.143L1462.86 585.143L1462.86 1462.86ZM1901.71 704L1901.71 1344L1609.14 1197.71L1609.14 850.286L1901.71 704Z" />
<glyph glyph-name="Folder" unicode="&#xE188;" d="M236.8 0.639984L236.8 2047.36L1968.64 2047.36L1968.64 1228.18L1946.5 1203.58L1811.2 1068.28L1811.2 0.639984L236.8 0.639984ZM1496.32 1889.92L394.24 1889.92L394.24 158.08L1653.76 158.08L1653.76 1068.28L1518.46 1203.58L1496.32 1228.18L1496.32 1889.92ZM1811.2 1294.6L1811.2 1889.92L1653.76 1889.92L1653.76 1294.6L1732.48 1215.88L1811.2 1294.6Z" />
<glyph glyph-name="Folder" unicode="&#xE8B7;" d="M236.8 0.639984L236.8 2047.36L1968.64 2047.36L1968.64 1228.18L1946.5 1203.58L1811.2 1068.28L1811.2 0.639984L236.8 0.639984ZM1496.32 1889.92L394.24 1889.92L394.24 158.08L1653.76 158.08L1653.76 1068.28L1518.46 1203.58L1496.32 1228.18L1496.32 1889.92ZM1811.2 1294.6L1811.2 1889.92L1653.76 1889.92L1653.76 1294.6L1732.48 1215.88L1811.2 1294.6Z" />
<glyph glyph-name="TreeFolderFolder" unicode="&#xED41;" d="M236.8 0.639984L236.8 2047.36L1968.64 2047.36L1968.64 1228.18L1946.5 1203.58L1811.2 1068.28L1811.2 0.639984L236.8 0.639984ZM1496.32 1889.92L394.24 1889.92L394.24 158.08L1653.76 158.08L1653.76 1068.28L1518.46 1203.58L1496.32 1228.18L1496.32 1889.92ZM1811.2 1294.6L1811.2 1889.92L1653.76 1889.92L1653.76 1294.6L1732.48 1215.88L1811.2 1294.6Z" />
<glyph glyph-name="Battery0" unicode="&#xE850;" d="M0.639984 394.24L0.639984 1653.76L1889.92 1653.76L1889.92 1260.16L2047.36 1260.16L2047.36 787.84L1889.92 787.84L1889.92 394.24L0.639984 394.24ZM1732.48 1496.32L158.08 1496.32L158.08 551.68L1732.48 551.68L1732.48 1496.32Z" />
<glyph glyph-name="BandBattery0" unicode="&#xECB9;" d="M0.639984 394.24L0.639984 1653.76L1889.92 1653.76L1889.92 1260.16L2047.36 1260.16L2047.36 787.84L1889.92 787.84L1889.92 394.24L0.639984 394.24ZM1732.48 1496.32L158.08 1496.32L158.08 551.68L1732.48 551.68L1732.48 1496.32Z" />
<glyph glyph-name="SettingsBattery" unicode="&#xEE63;" d="M0.639984 394.24L0.639984 1653.76L1889.92 1653.76L1889.92 1260.16L2047.36 1260.16L2047.36 787.84L1889.92 787.84L1889.92 394.24L0.639984 394.24ZM1732.48 1496.32L158.08 1496.32L158.08 551.68L1732.48 551.68L1732.48 1496.32Z" />
<glyph glyph-name="Flag" unicode="&#xE129;" d="M158.08 0.639984L158.08 1889.92L1102.72 1889.92L1102.72 1653.76L1889.92 1653.76L1889.92 551.68L945.28 551.68L945.28 787.84L315.52 787.84L315.52 0.639984L158.08 0.639984ZM1732.48 1496.32L1102.72 1496.32L1102.72 709.12L1732.48 709.12L1732.48 1496.32ZM945.28 1732.48L315.52 1732.48L315.52 945.28L945.28 945.28L945.28 1732.48Z" />
<glyph glyph-name="Flag" unicode="&#xE7C1;" d="M158.08 0.639984L158.08 1889.92L1102.72 1889.92L1102.72 1653.76L1889.92 1653.76L1889.92 551.68L945.28 551.68L945.28 787.84L315.52 787.84L315.52 0.639984L158.08 0.639984ZM1732.48 1496.32L1102.72 1496.32L1102.72 709.12L1732.48 709.12L1732.48 1496.32ZM945.28 1732.48L315.52 1732.48L315.52 945.28L945.28 945.28L945.28 1732.48Z" />
<glyph glyph-name="EndPoint" unicode="&#xE81B;" d="M158.08 0.639984L158.08 1889.92L1102.72 1889.92L1102.72 1653.76L1889.92 1653.76L1889.92 551.68L945.28 551.68L945.28 787.84L315.52 787.84L315.52 0.639984L158.08 0.639984ZM1732.48 1496.32L1102.72 1496.32L1102.72 709.12L1732.48 709.12L1732.48 1496.32ZM945.28 1732.48L315.52 1732.48L315.52 945.28L945.28 945.28L945.28 1732.48Z" />
<glyph glyph-name="Calculator" unicode="&#xE1D0;" d="M236.8 0.639984L236.8 2047.36L1811.2 2047.36L1811.2 0.639984L236.8 0.639984ZM1653.76 1889.92L394.24 1889.92L394.24 158.08L1653.76 158.08L1653.76 1889.92ZM630.4 315.52L630.4 472.96L787.84 472.96L787.84 315.52L630.4 315.52ZM945.28 315.52L945.28 472.96L1102.72 472.96L1102.72 315.52L945.28 315.52ZM1260.16 315.52L1260.16 472.96L1417.6 472.96L1417.6 315.52L1260.16 315.52ZM630.4 630.4L630.4 787.84L787.84 787.84L787.84 630.4L630.4 630.4ZM945.28 630.4L945.28 787.84L1102.72 787.84L1102.72 630.4L945.28 630.4ZM1260.16 630.4L1260.16 787.84L1417.6 787.84L1417.6 630.4L1260.16 630.4ZM630.4 945.28L630.4 1102.72L787.84 1102.72L787.84 945.28L630.4 945.28ZM945.28 945.28L945.28 1102.72L1102.72 1102.72L1102.72 945.28L945.28 945.28ZM1260.16 945.28L1260.16 1102.72L1417.6 1102.72L1417.6 945.28L1260.16 945.28ZM551.68 1260.16L551.68 1732.48L1496.32 1732.48L1496.32 1260.16L551.68 1260.16ZM1338.88 1575.04L709.12 1575.04L709.12 1417.6L1338.88 1417.6L1338.88 1575.04Z" />
<glyph glyph-name="Calculator" unicode="&#xE8EF;" d="M236.8 0.639984L236.8 2047.36L1811.2 2047.36L1811.2 0.639984L236.8 0.639984ZM1653.76 1889.92L394.24 1889.92L394.24 158.08L1653.76 158.08L1653.76 1889.92ZM630.4 315.52L630.4 472.96L787.84 472.96L787.84 315.52L630.4 315.52ZM945.28 315.52L945.28 472.96L1102.72 472.96L1102.72 315.52L945.28 315.52ZM1260.16 315.52L1260.16 472.96L1417.6 472.96L1417.6 315.52L1260.16 315.52ZM630.4 630.4L630.4 787.84L787.84 787.84L787.84 630.4L630.4 630.4ZM945.28 630.4L945.28 787.84L1102.72 787.84L1102.72 630.4L945.28 630.4ZM1260.16 630.4L1260.16 787.84L1417.6 787.84L1417.6 630.4L1260.16 630.4ZM630.4 945.28L630.4 1102.72L787.84 1102.72L787.84 945.28L630.4 945.28ZM945.28 945.28L945.28 1102.72L1102.72 1102.72L1102.72 945.28L945.28 945.28ZM1260.16 945.28L1260.16 1102.72L1417.6 1102.72L1417.6 945.28L1260.16 945.28ZM551.68 1260.16L551.68 1732.48L1496.32 1732.48L1496.32 1260.16L551.68 1260.16ZM1338.88 1575.04L709.12 1575.04L709.12 1417.6L1338.88 1417.6L1338.88 1575.04Z" />
<glyph glyph-name="RightQuote" unicode="&#xE849;" d="M79.36 1181.44C79.36 1441.28 291.843 1653.76 551.68 1653.76L551.68 1496.32C377.02 1496.32 236.8 1356.1 236.8 1181.44L866.56 1181.44L866.56 394.24L79.36 394.24L79.36 1181.44ZM1181.44 1181.44C1181.44 1441.28 1393.92 1653.76 1653.76 1653.76L1653.76 1496.32C1479.1 1496.32 1338.88 1356.1 1338.88 1181.44L1968.64 1181.44L1968.64 394.24L1181.44 394.24L1181.44 1181.44ZM709.12 1024L236.8 1024L236.8 551.68L709.12 551.68L709.12 1024ZM1811.2 1024L1338.88 1024L1338.88 551.68L1811.2 551.68L1811.2 1024Z" />
<glyph glyph-name="LeftDoubleQuote" unicode="&#xE9B2;" d="M79.36 1181.44C79.36 1441.28 291.843 1653.76 551.68 1653.76L551.68 1496.32C377.02 1496.32 236.8 1356.1 236.8 1181.44L866.56 1181.44L866.56 394.24L79.36 394.24L79.36 1181.44ZM1181.44 1181.44C1181.44 1441.28 1393.92 1653.76 1653.76 1653.76L1653.76 1496.32C1479.1 1496.32 1338.88 1356.1 1338.88 1181.44L1968.64 1181.44L1968.64 394.24L1181.44 394.24L1181.44 1181.44ZM709.12 1024L236.8 1024L236.8 551.68L709.12 551.68L709.12 1024ZM1811.2 1024L1338.88 1024L1338.88 551.68L1811.2 551.68L1811.2 1024Z" />
<glyph glyph-name="CollapseContentSingle" unicode="&#xF166;" d="M158.08 158.08L158.08 1889.92L1889.92 1889.92L1889.92 158.08L158.08 158.08ZM1732.48 1732.48L315.52 1732.48L315.52 315.52L1732.48 315.52L1732.48 1732.48ZM630.4 945.28L630.4 1102.72L1417.6 1102.72L1417.6 945.28L630.4 945.28Z" />
<glyph glyph-name="EmojiTabFoodPlants" unicode="&#xED56;" d="M714.04 1916.98L738.64 1983.4L807.52 1966.18C807.52 1966.18 1250.63 1855.17 1552.9 1552.9C1855.17 1250.63 1966.18 807.52 1966.18 807.52L1983.4 738.64L1916.98 714.04L192.52 84.28L145.78 67.06L67.06 145.78L84.28 192.52L714.04 1916.98ZM841.96 1486.48C798.91 1503.7 765.085 1513.85 738.64 1520.92L669.76 1333.96C737.717 1316.43 787.84 1254.93 787.84 1181.44C787.84 1094.42 717.422 1024 630.4 1024C605.492 1024 582.43 1031.07 561.52 1041.22L286 286L514.78 369.64C513.242 377.328 512.32 385.938 512.32 394.24C512.32 459.43 565.21 512.32 630.4 512.32C675.295 512.32 713.732 487.72 733.72 450.82L1520.92 736.18C1513.85 762.625 1504.32 797.68 1486.48 841.96C1483.41 849.647 1477.56 858.565 1474.18 866.56C1446.81 819.512 1397 787.84 1338.88 787.84C1251.86 787.84 1181.44 858.257 1181.44 945.28C1181.44 1030.46 1249.4 1099.95 1333.96 1102.72C1302.59 1143 1267.85 1183.59 1225.72 1225.72C1081.81 1369.63 943.435 1445.58 841.96 1486.48ZM748.48 787.84C748.48 853.03 801.37 905.92 866.56 905.92C931.75 905.92 984.64 853.03 984.64 787.84C984.64 722.65 931.75 669.76 866.56 669.76C801.37 669.76 748.48 722.65 748.48 787.84ZM1439.74 1439.74C1215.27 1664.21 924.063 1761.39 834.58 1789.06L790.3 1668.52C822.28 1659.91 858.565 1648.53 901 1631.62C1020 1583.65 1176.21 1496.63 1336.42 1336.42C1496.63 1176.21 1586.11 1020 1634.08 901C1650.99 858.872 1660.53 821.973 1668.52 790.3L1789.06 834.58C1761.39 924.063 1664.21 1215.27 1439.74 1439.74Z" />
<glyph glyph-name="Package" unicode="&#xE7B8;" d="M79.36 1417.6L79.36 1889.92L1968.64 1889.92L1968.64 1417.6L1889.92 1417.6L1889.92 158.08L158.08 158.08L158.08 1417.6L79.36 1417.6ZM1732.48 1417.6L315.52 1417.6L315.52 315.52L1732.48 315.52L1732.48 1417.6ZM701.74 1174.06C697.742 1217.42 729.722 1256.16 773.08 1260.16L1260.16 1260.16C1288.45 1260.47 1314.9 1245.71 1329.35 1221.11C1343.49 1196.51 1343.49 1166.37 1329.35 1141.77C1314.9 1117.17 1288.45 1102.41 1260.16 1102.72L787.84 1102.72C744.482 1098.72 705.737 1130.7 701.74 1174.06ZM1811.2 1732.48L236.8 1732.48L236.8 1575.04L1811.2 1575.04L1811.2 1732.48Z" />
<glyph glyph-name="PlayerSettings" unicode="&#xEF58;" d="M1638.37 713.037L1638.37 872.296L1790.07 872.296L1790.07 713.037C1835.59 705.452 1881.19 682.607 1919.11 659.852L2032.89 773.63L2138.96 667.556L2025.19 553.778C2047.94 508.267 2070.79 462.696 2078.37 417.185L2237.63 417.185L2237.63 265.481L2063.11 265.481C2055.53 212.385 2040.41 166.815 2010.07 128.889L2123.85 15.1111L2017.63 -90.963L1903.85 22.8148C1865.93 0.0592346 1820.47 -22.7852 1774.96 -30.3704L1774.96 -189.63L1623.26 -189.63L1623.26 -30.3704C1577.75 -22.7852 1532.15 0.0592346 1494.22 22.8148L1380.44 -90.963L1274.37 15.1111L1388.15 128.889C1365.39 174.4 1342.55 219.97 1334.96 265.481L1175.7 265.481L1175.7 417.185L1350.22 417.185C1357.81 470.281 1372.92 515.852 1403.26 553.778L1289.48 667.556L1395.7 773.63L1509.48 659.852C1547.41 682.607 1592.86 705.452 1638.37 713.037ZM1934.22 341.333C1934.22 470.281 1835.61 568.889 1706.67 568.889C1577.72 568.889 1479.11 470.281 1479.11 341.333C1479.11 212.385 1577.72 113.778 1706.67 113.778C1835.61 113.778 1934.22 212.385 1934.22 341.333ZM493.037 1327.41C493.037 1623.23 728.178 1858.37 1024 1858.37C1319.82 1858.37 1554.96 1623.23 1554.96 1327.41C1554.96 1031.59 1319.82 796.444 1024 796.444C690.252 796.444 417.185 523.378 417.185 189.63L265.481 189.63C265.481 501.109 455.87 770.099 725.926 886.519C584.815 981.407 493.037 1142.52 493.037 1327.41ZM1678.81 410.667C1687.7 414.815 1697.19 417.185 1706.67 417.185C1744.59 417.185 1782.52 379.259 1782.52 341.333C1782.52 303.407 1744.59 265.481 1706.67 265.481C1697.19 265.481 1687.7 267.852 1678.81 272C1652.15 284.444 1630.81 312.889 1630.81 341.333C1630.81 350.815 1633.19 360.296 1637.33 369.185C1641.48 378.074 1647.41 386.37 1654.52 393.482C1661.63 400.593 1669.93 406.518 1678.81 410.667ZM1403.26 1327.41C1403.26 1539.79 1236.39 1706.67 1024 1706.67C811.615 1706.67 644.741 1539.79 644.741 1327.41C644.741 1115.02 811.615 948.148 1024 948.148C1236.39 948.148 1403.26 1115.02 1403.26 1327.41Z" />
<glyph glyph-name="Warning" unicode="&#xE7BA;" d="M958.688 1866.06L1024 1978.02L1089.31 1866.06L1985.02 314.897L2048 202.934L-4.57764e-05 202.934L62.9795 314.897L958.688 1866.06ZM1789.08 352.219L1024 1679.45L258.916 352.219L1789.08 352.219ZM949.358 501.503L949.358 650.788L1098.64 650.788L1098.64 501.503L949.358 501.503ZM949.358 725.431L949.358 1173.28L1098.64 1173.28L1098.64 725.431L949.358 725.431Z" />
<glyph glyph-name="IncidentTriangle" unicode="&#xE814;" d="M958.688 1866.06L1024 1978.02L1089.31 1866.06L1985.02 314.897L2048 202.934L-4.57764e-05 202.934L62.9795 314.897L958.688 1866.06ZM1789.08 352.219L1024 1679.45L258.916 352.219L1789.08 352.219ZM949.358 501.503L949.358 650.788L1098.64 650.788L1098.64 501.503L949.358 501.503ZM949.358 725.431L949.358 1173.28L1098.64 1173.28L1098.64 725.431L949.358 725.431Z" />
<glyph glyph-name="StatusTriangleExclamation" unicode="&#xF13B;" d="M958.688 1866.06L1024 1978.02L1089.31 1866.06L1985.02 314.897L2048 202.934L-4.57764e-05 202.934L62.9795 314.897L958.688 1866.06ZM1789.08 352.219L1024 1679.45L258.916 352.219L1789.08 352.219ZM949.358 501.503L949.358 650.788L1098.64 650.788L1098.64 501.503L949.358 501.503ZM949.358 725.431L949.358 1173.28L1098.64 1173.28L1098.64 725.431L949.358 725.431Z" />
<glyph glyph-name="Courthouse" unicode="&#xEC08;" d="M49.84 1570.12L1024 1976.02L1998.16 1570.12L2047.36 1547.98L2047.36 1338.88L1889.92 1338.88L1889.92 472.96L2047.36 472.96L2047.36 79.36L0.639984 79.36L0.639984 472.96L158.08 472.96L158.08 1338.88L0.639984 1338.88L0.639984 1547.98L49.84 1570.12ZM1889.92 315.52L158.08 315.52L158.08 236.8L1889.92 236.8L1889.92 315.52ZM472.96 1338.88L315.52 1338.88L315.52 472.96L472.96 472.96L472.96 1338.88ZM787.84 1338.88L630.4 1338.88L630.4 472.96L787.84 472.96L787.84 1338.88ZM1102.72 1338.88L945.28 1338.88L945.28 472.96L1102.72 472.96L1102.72 1338.88ZM1417.6 1338.88L1260.16 1338.88L1260.16 472.96L1417.6 472.96L1417.6 1338.88ZM1732.48 1338.88L1575.04 1338.88L1575.04 472.96L1732.48 472.96L1732.48 1338.88ZM1762 1496.32L1024 1803.82L286 1496.32L1762 1496.32Z" />
<glyph glyph-name="TouchPointer" unicode="&#xE1E3;" d="M585.143 1828.57C585.143 1948.86 684.286 2048 804.571 2048C924.857 2048 1024 1948.86 1024 1828.57L1024 1522.29C1047.14 1530.57 1071.43 1536 1097.14 1536C1153.14 1536 1204.57 1514 1243.43 1478.86C1282.29 1514 1333.71 1536 1389.71 1536C1491.71 1536 1578.29 1464.29 1602.29 1369.14C1629.14 1381.14 1658 1389.71 1689.14 1389.71C1809.43 1389.71 1908.57 1290.57 1908.57 1170.29L1908.57 598.857C1908.57 267.143 1641.43 -4.57764e-05 1309.71 -4.57764e-05L1184 -4.57764e-05C1042.57 -4.57764e-05 916.857 49.4285 818.286 123.429L816 128L811.429 130.286L212.571 722.286L212.571 724.571C128.286 808.857 128.286 946.571 212.571 1030.86C296.857 1115.14 434.571 1115.14 518.857 1030.86L537.143 1014.86L585.143 964.571L585.143 1828.57ZM877.714 1828.57C877.714 1869.14 845.143 1901.71 804.571 1901.71C764 1901.71 731.429 1869.14 731.429 1828.57L731.429 612.571L416 928C383.429 960.571 348 960.571 315.429 928C282.857 895.428 282.857 860 315.429 827.429L907.429 242.286C984.286 184.571 1076.86 146.286 1184 146.286L1309.71 146.286C1563.14 146.286 1762.29 345.429 1762.29 598.857L1762.29 1170.29C1762.29 1210.86 1729.71 1243.43 1689.14 1243.43C1648.57 1243.43 1616 1210.86 1616 1170.29L1616 1024L1462.86 1024L1462.86 1316.57C1462.86 1357.14 1430.29 1389.71 1389.71 1389.71C1349.14 1389.71 1316.57 1357.14 1316.57 1316.57L1316.57 1024L1170.29 1024L1170.29 1316.57C1170.29 1357.14 1137.71 1389.71 1097.14 1389.71C1056.57 1389.71 1024 1357.14 1024 1316.57L1024 1024L877.714 1024L877.714 1828.57Z" />
<glyph glyph-name="TouchPointer" unicode="&#xE7C9;" d="M585.143 1828.57C585.143 1948.86 684.286 2048 804.571 2048C924.857 2048 1024 1948.86 1024 1828.57L1024 1522.29C1047.14 1530.57 1071.43 1536 1097.14 1536C1153.14 1536 1204.57 1514 1243.43 1478.86C1282.29 1514 1333.71 1536 1389.71 1536C1491.71 1536 1578.29 1464.29 1602.29 1369.14C1629.14 1381.14 1658 1389.71 1689.14 1389.71C1809.43 1389.71 1908.57 1290.57 1908.57 1170.29L1908.57 598.857C1908.57 267.143 1641.43 -4.57764e-05 1309.71 -4.57764e-05L1184 -4.57764e-05C1042.57 -4.57764e-05 916.857 49.4285 818.286 123.429L816 128L811.429 130.286L212.571 722.286L212.571 724.571C128.286 808.857 128.286 946.571 212.571 1030.86C296.857 1115.14 434.571 1115.14 518.857 1030.86L537.143 1014.86L585.143 964.571L585.143 1828.57ZM877.714 1828.57C877.714 1869.14 845.143 1901.71 804.571 1901.71C764 1901.71 731.429 1869.14 731.429 1828.57L731.429 612.571L416 928C383.429 960.571 348 960.571 315.429 928C282.857 895.428 282.857 860 315.429 827.429L907.429 242.286C984.286 184.571 1076.86 146.286 1184 146.286L1309.71 146.286C1563.14 146.286 1762.29 345.429 1762.29 598.857L1762.29 1170.29C1762.29 1210.86 1729.71 1243.43 1689.14 1243.43C1648.57 1243.43 1616 1210.86 1616 1170.29L1616 1024L1462.86 1024L1462.86 1316.57C1462.86 1357.14 1430.29 1389.71 1389.71 1389.71C1349.14 1389.71 1316.57 1357.14 1316.57 1316.57L1316.57 1024L1170.29 1024L1170.29 1316.57C1170.29 1357.14 1137.71 1389.71 1097.14 1389.71C1056.57 1389.71 1024 1357.14 1024 1316.57L1024 1024L877.714 1024L877.714 1828.57Z" />
<glyph glyph-name="PointerHand" unicode="&#xF271;" d="M585.143 1828.57C585.143 1948.86 684.286 2048 804.571 2048C924.857 2048 1024 1948.86 1024 1828.57L1024 1522.29C1047.14 1530.57 1071.43 1536 1097.14 1536C1153.14 1536 1204.57 1514 1243.43 1478.86C1282.29 1514 1333.71 1536 1389.71 1536C1491.71 1536 1578.29 1464.29 1602.29 1369.14C1629.14 1381.14 1658 1389.71 1689.14 1389.71C1809.43 1389.71 1908.57 1290.57 1908.57 1170.29L1908.57 598.857C1908.57 267.143 1641.43 -4.57764e-05 1309.71 -4.57764e-05L1184 -4.57764e-05C1042.57 -4.57764e-05 916.857 49.4285 818.286 123.429L816 128L811.429 130.286L212.571 722.286L212.571 724.571C128.286 808.857 128.286 946.571 212.571 1030.86C296.857 1115.14 434.571 1115.14 518.857 1030.86L537.143 1014.86L585.143 964.571L585.143 1828.57ZM877.714 1828.57C877.714 1869.14 845.143 1901.71 804.571 1901.71C764 1901.71 731.429 1869.14 731.429 1828.57L731.429 612.571L416 928C383.429 960.571 348 960.571 315.429 928C282.857 895.428 282.857 860 315.429 827.429L907.429 242.286C984.286 184.571 1076.86 146.286 1184 146.286L1309.71 146.286C1563.14 146.286 1762.29 345.429 1762.29 598.857L1762.29 1170.29C1762.29 1210.86 1729.71 1243.43 1689.14 1243.43C1648.57 1243.43 1616 1210.86 1616 1170.29L1616 1024L1462.86 1024L1462.86 1316.57C1462.86 1357.14 1430.29 1389.71 1389.71 1389.71C1349.14 1389.71 1316.57 1357.14 1316.57 1316.57L1316.57 1024L1170.29 1024L1170.29 1316.57C1170.29 1357.14 1137.71 1389.71 1097.14 1389.71C1056.57 1389.71 1024 1357.14 1024 1316.57L1024 1024L877.714 1024L877.714 1828.57Z" />
<glyph glyph-name="Emoji" unicode="&#xE11D;" d="M0.639984 1024C0.639984 1588.26 459.735 2047.36 1024 2047.36C1588.26 2047.36 2047.36 1588.26 2047.36 1024C2047.36 459.735 1588.26 0.639984 1024 0.639984C459.735 0.639984 0.639984 459.735 0.639984 1024ZM1889.92 1024C1889.92 1501.44 1501.44 1889.92 1024 1889.92C546.563 1889.92 158.08 1501.44 158.08 1024C158.08 546.563 546.563 158.08 1024 158.08C1501.44 158.08 1889.92 546.563 1889.92 1024ZM1024 394.24C599.306 394.24 472.96 787.84 472.96 787.84L1575.04 787.84C1575.04 787.84 1448.69 394.24 1024 394.24ZM346.27 1243.86C346.27 1243.86 465.56 1338.88 630.4 1338.88C795.24 1338.88 914.526 1243.86 914.684 1243.86L818.744 1119.02C818.744 1119.02 733.598 1181.44 630.554 1181.44C527.509 1181.44 442.21 1119.02 442.21 1119.02L346.27 1243.86ZM1133.47 1243.86C1133.47 1243.86 1252.76 1338.88 1417.6 1338.88C1582.44 1338.88 1701.73 1243.86 1701.88 1243.86L1605.94 1119.02C1605.94 1119.02 1520.8 1181.44 1417.75 1181.44C1314.71 1181.44 1229.41 1119.02 1229.41 1119.02L1133.47 1243.86Z" />
<glyph glyph-name="Emoji" unicode="&#xE899;" d="M0.639984 1024C0.639984 1588.26 459.735 2047.36 1024 2047.36C1588.26 2047.36 2047.36 1588.26 2047.36 1024C2047.36 459.735 1588.26 0.639984 1024 0.639984C459.735 0.639984 0.639984 459.735 0.639984 1024ZM1889.92 1024C1889.92 1501.44 1501.44 1889.92 1024 1889.92C546.563 1889.92 158.08 1501.44 158.08 1024C158.08 546.563 546.563 158.08 1024 158.08C1501.44 158.08 1889.92 546.563 1889.92 1024ZM1024 394.24C599.306 394.24 472.96 787.84 472.96 787.84L1575.04 787.84C1575.04 787.84 1448.69 394.24 1024 394.24ZM346.27 1243.86C346.27 1243.86 465.56 1338.88 630.4 1338.88C795.24 1338.88 914.526 1243.86 914.684 1243.86L818.744 1119.02C818.744 1119.02 733.598 1181.44 630.554 1181.44C527.509 1181.44 442.21 1119.02 442.21 1119.02L346.27 1243.86ZM1133.47 1243.86C1133.47 1243.86 1252.76 1338.88 1417.6 1338.88C1582.44 1338.88 1701.73 1243.86 1701.88 1243.86L1605.94 1119.02C1605.94 1119.02 1520.8 1181.44 1417.75 1181.44C1314.71 1181.44 1229.41 1119.02 1229.41 1119.02L1133.47 1243.86Z" />
<glyph glyph-name="Robot" unicode="&#xE99A;" d="M877.714 1974.86C877.714 2055.71 943.143 2121.14 1024 2121.14C1104.86 2121.14 1170.29 2055.71 1170.29 1974.86C1170.29 1920.86 1140.86 1874.57 1097.14 1849.14L1097.14 1682.29L1462.86 1682.29C1664 1682.29 1828.57 1517.71 1828.57 1316.57L1828.57 1170.29L2048 1170.29L2048 585.143L1828.57 585.143L1828.57 219.429L219.429 219.429L219.429 585.143L-4.57764e-05 585.143L-4.57764e-05 1170.29L219.429 1170.29L219.429 1316.57C219.429 1517.71 384 1682.29 585.143 1682.29L950.857 1682.29L950.857 1849.14C907.143 1874.57 877.714 1920.86 877.714 1974.86ZM1462.86 1536L585.143 1536C463.143 1536 365.714 1438.57 365.714 1316.57L365.714 365.714L512 365.714L512 731.429L1536 731.429L1536 365.714L1682.29 365.714L1682.29 1316.57C1682.29 1438.57 1584.86 1536 1462.86 1536ZM804.571 585.143L658.286 585.143L658.286 365.714L804.571 365.714L804.571 585.143ZM1097.14 585.143L950.857 585.143L950.857 365.714L1097.14 365.714L1097.14 585.143ZM1389.71 585.143L1243.43 585.143L1243.43 365.714L1389.71 365.714L1389.71 585.143ZM219.429 1024L146.286 1024L146.286 731.429L219.429 731.429L219.429 1024ZM1901.71 1024L1828.57 1024L1828.57 731.429L1901.71 731.429L1901.71 1024ZM585.143 1097.14C585.143 1178 650.571 1243.43 731.429 1243.43C812.286 1243.43 877.714 1178 877.714 1097.14C877.714 1016.29 812.286 950.857 731.429 950.857C650.571 950.857 585.143 1016.29 585.143 1097.14ZM1170.29 1097.14C1170.29 1178 1235.71 1243.43 1316.57 1243.43C1397.43 1243.43 1462.86 1178 1462.86 1097.14C1462.86 1016.29 1397.43 950.857 1316.57 950.857C1235.71 950.857 1170.29 1016.29 1170.29 1097.14Z" />
<glyph glyph-name="Camera" unicode="&#xE114;" d="M645.16 1779.22L669.76 1811.2L1378.24 1811.2L1402.84 1779.22L1496.32 1653.76L2047.36 1653.76L2047.36 236.8L0.639984 236.8L0.639984 1653.76L551.68 1653.76L645.16 1779.22ZM1393 1528.3L1299.52 1653.76L748.48 1653.76L655 1528.3L630.4 1496.32L158.08 1496.32L158.08 394.24L1889.92 394.24L1889.92 1496.32L1417.6 1496.32L1393 1528.3ZM551.68 945.28C551.68 1205.12 764.162 1417.6 1024 1417.6C1283.84 1417.6 1496.32 1205.12 1496.32 945.28C1496.32 685.443 1283.84 472.96 1024 472.96C764.162 472.96 551.68 685.443 551.68 945.28ZM1338.88 945.28C1338.88 1120.25 1198.97 1260.16 1024 1260.16C849.032 1260.16 709.12 1120.25 709.12 945.28C709.12 770.313 849.032 630.4 1024 630.4C1198.97 630.4 1338.88 770.313 1338.88 945.28ZM315.52 1338.88C315.52 1382.24 350.883 1417.6 394.24 1417.6C437.597 1417.6 472.96 1382.24 472.96 1338.88C472.96 1295.52 437.597 1260.16 394.24 1260.16C350.883 1260.16 315.52 1295.52 315.52 1338.88Z" />
<glyph glyph-name="Camera" unicode="&#xE722;" d="M645.16 1779.22L669.76 1811.2L1378.24 1811.2L1402.84 1779.22L1496.32 1653.76L2047.36 1653.76L2047.36 236.8L0.639984 236.8L0.639984 1653.76L551.68 1653.76L645.16 1779.22ZM1393 1528.3L1299.52 1653.76L748.48 1653.76L655 1528.3L630.4 1496.32L158.08 1496.32L158.08 394.24L1889.92 394.24L1889.92 1496.32L1417.6 1496.32L1393 1528.3ZM551.68 945.28C551.68 1205.12 764.162 1417.6 1024 1417.6C1283.84 1417.6 1496.32 1205.12 1496.32 945.28C1496.32 685.443 1283.84 472.96 1024 472.96C764.162 472.96 551.68 685.443 551.68 945.28ZM1338.88 945.28C1338.88 1120.25 1198.97 1260.16 1024 1260.16C849.032 1260.16 709.12 1120.25 709.12 945.28C709.12 770.313 849.032 630.4 1024 630.4C1198.97 630.4 1338.88 770.313 1338.88 945.28ZM315.52 1338.88C315.52 1382.24 350.883 1417.6 394.24 1417.6C437.597 1417.6 472.96 1382.24 472.96 1338.88C472.96 1295.52 437.597 1260.16 394.24 1260.16C350.883 1260.16 315.52 1295.52 315.52 1338.88Z" />
<glyph glyph-name="BodyCam" unicode="&#xEC80;" d="M645.16 1779.22L669.76 1811.2L1378.24 1811.2L1402.84 1779.22L1496.32 1653.76L2047.36 1653.76L2047.36 236.8L0.639984 236.8L0.639984 1653.76L551.68 1653.76L645.16 1779.22ZM1393 1528.3L1299.52 1653.76L748.48 1653.76L655 1528.3L630.4 1496.32L158.08 1496.32L158.08 394.24L1889.92 394.24L1889.92 1496.32L1417.6 1496.32L1393 1528.3ZM551.68 945.28C551.68 1205.12 764.162 1417.6 1024 1417.6C1283.84 1417.6 1496.32 1205.12 1496.32 945.28C1496.32 685.443 1283.84 472.96 1024 472.96C764.162 472.96 551.68 685.443 551.68 945.28ZM1338.88 945.28C1338.88 1120.25 1198.97 1260.16 1024 1260.16C849.032 1260.16 709.12 1120.25 709.12 945.28C709.12 770.313 849.032 630.4 1024 630.4C1198.97 630.4 1338.88 770.313 1338.88 945.28ZM315.52 1338.88C315.52 1382.24 350.883 1417.6 394.24 1417.6C437.597 1417.6 472.96 1382.24 472.96 1338.88C472.96 1295.52 437.597 1260.16 394.24 1260.16C350.883 1260.16 315.52 1295.52 315.52 1338.88Z" />
<glyph glyph-name="Color" unicode="&#xE790;" d="M870.57 1996.51C911.878 2002.71 953.186 2007.13 993.314 2008.31C1033.44 2009.49 1072.09 2007.43 1111.34 2003.59C1660.15 1951.66 2082.08 1447.7 1996.51 870.57L1996.51 868.209C1931.01 466.93 1615 133.514 1212.84 58.5691L1210.48 58.5691C1097.17 34.6694 991.249 35.5545 887.093 51.4877C886.887 51.8991 886.108 51.7369 885.455 51.6009C885.171 51.5418 884.911 51.4877 884.732 51.4877C707.402 76.2726 629.802 306.418 759.628 436.244C852.571 529.187 852.571 666.684 759.628 759.628C666.684 852.571 529.187 852.571 436.244 759.628C306.418 629.802 76.2726 707.402 51.4877 884.732C51.4877 884.911 51.5418 885.171 51.6009 885.455C51.7369 886.108 51.8992 886.887 51.4877 887.093C35.5546 992.134 34.0793 1098.65 58.5691 1212.84C140.3 1613.82 466.045 1930.71 868.209 1996.51L870.57 1996.51ZM1097.17 1854.88C1063.83 1857.83 1029.9 1858.42 995.674 1857.24C961.448 1856.06 927.221 1853.11 891.814 1847.8C553.677 1792.63 276.617 1521.17 207.279 1182.15C186.624 1085.67 186.329 996.56 200.197 905.977C207.869 844.014 277.207 815.394 327.662 865.849C476.372 1014.56 717.139 1014.56 865.849 865.849C1014.56 717.139 1014.56 476.372 865.849 327.662C815.394 277.207 844.015 207.869 905.977 200.197C996.56 186.329 1085.67 186.624 1182.15 207.279L1184.51 207.279C1521.47 269.241 1792.63 553.677 1847.8 891.814C1920.98 1385.45 1565.14 1812.1 1097.17 1854.88ZM1099.53 495.255C1099.53 578.757 1167.1 646.325 1250.6 646.325C1334.11 646.325 1401.67 578.757 1401.67 495.255C1401.67 411.754 1334.11 344.186 1250.6 344.186C1167.1 344.186 1099.53 411.754 1099.53 495.255ZM1401.67 872.93C1401.67 956.432 1469.24 1024 1552.74 1024C1636.25 1024 1703.81 956.432 1703.81 872.93C1703.81 789.429 1636.25 721.86 1552.74 721.86C1469.24 721.86 1401.67 789.429 1401.67 872.93ZM344.186 1250.6C344.186 1334.11 411.754 1401.67 495.255 1401.67C578.757 1401.67 646.325 1334.11 646.325 1250.6C646.325 1167.1 578.757 1099.53 495.255 1099.53C411.754 1099.53 344.186 1167.1 344.186 1250.6ZM1250.6 1401.67C1250.6 1485.18 1318.17 1552.74 1401.67 1552.74C1485.18 1552.74 1552.74 1485.18 1552.74 1401.67C1552.74 1318.17 1485.18 1250.6 1401.67 1250.6C1318.17 1250.6 1250.6 1318.17 1250.6 1401.67ZM721.86 1552.74C721.86 1636.25 789.429 1703.81 872.93 1703.81C956.432 1703.81 1024 1636.25 1024 1552.74C1024 1469.24 956.432 1401.67 872.93 1401.67C789.429 1401.67 721.86 1469.24 721.86 1552.74Z" />
<glyph glyph-name="GripperBarHorizontal" unicode="&#xE76F;" d="M0.639984 630.4L0.639984 787.84L2047.36 787.84L2047.36 630.4L0.639984 630.4ZM0.639984 1260.16L0.639984 1417.6L2047.36 1417.6L2047.36 1260.16L0.639984 1260.16Z" />
<glyph glyph-name="ChatBubbles" unicode="&#xE8F2;" d="M1609.14 1389.71L1609.14 1536L2048 1536L2048 365.714L1755.43 365.714L1755.43 -6.85719L1291.43 365.714L610.286 365.714L793.143 512L1341.71 512L1609.14 299.429L1609.14 512L1901.71 512L1901.71 1389.71L1609.14 1389.71ZM-4.57764e-05 658.286L-4.57764e-05 1828.57L1462.86 1828.57L1462.86 658.286L756.571 658.286L411.429 381.714L292.571 285.714L292.571 658.286L-4.57764e-05 658.286ZM1316.57 1682.29L146.286 1682.29L146.286 804.571L438.857 804.571L438.857 592L685.714 788.571L706.286 804.571L1316.57 804.571L1316.57 1682.29Z" />
<glyph glyph-name="DialUp" unicode="&#xE83C;" d="M394.24 315.52C394.24 402.542 464.657 472.96 551.68 472.96C638.703 472.96 709.12 402.542 709.12 315.52C709.12 228.497 638.703 158.08 551.68 158.08C464.657 158.08 394.24 228.497 394.24 315.52ZM866.56 315.52C866.56 402.542 936.978 472.96 1024 472.96C1111.02 472.96 1181.44 402.542 1181.44 315.52C1181.44 228.497 1111.02 158.08 1024 158.08C936.978 158.08 866.56 228.497 866.56 315.52ZM1338.88 315.52C1338.88 402.542 1409.3 472.96 1496.32 472.96C1583.34 472.96 1653.76 402.542 1653.76 315.52C1653.76 228.497 1583.34 158.08 1496.32 158.08C1409.3 158.08 1338.88 228.497 1338.88 315.52ZM394.24 787.84C394.24 874.863 464.657 945.28 551.68 945.28C638.703 945.28 709.12 874.863 709.12 787.84C709.12 700.818 638.703 630.4 551.68 630.4C464.657 630.4 394.24 700.818 394.24 787.84ZM866.56 787.84C866.56 874.863 936.978 945.28 1024 945.28C1111.02 945.28 1181.44 874.863 1181.44 787.84C1181.44 700.818 1111.02 630.4 1024 630.4C936.978 630.4 866.56 700.818 866.56 787.84ZM1338.88 787.84C1338.88 874.863 1409.3 945.28 1496.32 945.28C1583.34 945.28 1653.76 874.863 1653.76 787.84C1653.76 700.818 1583.34 630.4 1496.32 630.4C1409.3 630.4 1338.88 700.818 1338.88 787.84ZM283.54 1860.4C457.893 1912.37 717.422 1968.64 1024 1968.64C1330.58 1968.64 1590.11 1912.06 1764.46 1860.4C1931.43 1810.58 2047.36 1656.22 2047.36 1481.56L2047.36 1260.16C2047.36 1174.06 1976.02 1102.72 1889.92 1102.72L1575.04 1102.72C1488.94 1102.72 1417.6 1174.06 1417.6 1260.16L1417.6 1466.8C1402.84 1473.57 1399.77 1476.33 1356.1 1488.94C1284.45 1509.85 1174.98 1530.76 1024 1530.76C873.017 1530.76 763.547 1509.85 691.9 1488.94C648.235 1476.33 645.16 1473.57 630.4 1466.8L630.4 1260.16C630.4 1174.06 559.06 1102.72 472.96 1102.72L158.08 1102.72C71.98 1102.72 0.639984 1174.06 0.639984 1260.16L0.639984 1481.56C0.639984 1656.22 116.567 1810.89 283.54 1860.4ZM1720.18 1710.34C1556.9 1758.93 1311.2 1811.2 1024 1811.2C736.795 1811.2 491.102 1758.93 327.82 1710.34C226.037 1680.2 158.08 1587.03 158.08 1481.56L158.08 1260.16L472.96 1260.16L472.96 1565.2L512.32 1587.34C512.32 1587.34 562.443 1616.55 647.62 1641.46C732.797 1666.37 857.95 1688.2 1024 1688.2C1190.05 1688.2 1315.2 1666.37 1400.38 1641.46C1485.56 1616.55 1535.68 1587.34 1535.68 1587.34L1575.04 1565.2L1575.04 1260.16L1889.92 1260.16L1889.92 1481.56C1889.92 1587.03 1821.96 1680.2 1720.18 1710.34Z" />
<glyph glyph-name="ChevronRight" unicode="&#xE76C;" d="M682.667 1995.49L737.566 2048L792.466 1995.49L1709.05 1078.9L1761.57 1024L1709.05 969.1L792.466 52.5128L737.566 -1.52588e-05L682.667 52.5128L408.168 329.399L355.655 381.911L408.168 436.811L995.357 1024L408.168 1611.19L355.655 1666.09L408.168 1718.6L682.667 1995.49ZM1544.35 1024L737.566 1830.79L570.48 1663.7L1157.67 1078.9L1212.57 1024L1157.67 969.1L570.48 384.298L737.566 217.212L1544.35 1024Z" />
<glyph glyph-name="ChevronRightSmall" unicode="&#xE970;" d="M682.667 1995.49L737.566 2048L792.466 1995.49L1709.05 1078.9L1761.57 1024L1709.05 969.1L792.466 52.5128L737.566 -1.52588e-05L682.667 52.5128L408.168 329.399L355.655 381.911L408.168 436.811L995.357 1024L408.168 1611.19L355.655 1666.09L408.168 1718.6L682.667 1995.49ZM1544.35 1024L737.566 1830.79L570.48 1663.7L1157.67 1078.9L1212.57 1024L1157.67 969.1L570.48 384.298L737.566 217.212L1544.35 1024Z" />
<glyph glyph-name="ChevronRightMed" unicode="&#xE974;" d="M682.667 1995.49L737.566 2048L792.466 1995.49L1709.05 1078.9L1761.57 1024L1709.05 969.1L792.466 52.5128L737.566 -1.52588e-05L682.667 52.5128L408.168 329.399L355.655 381.911L408.168 436.811L995.357 1024L408.168 1611.19L355.655 1666.09L408.168 1718.6L682.667 1995.49ZM1544.35 1024L737.566 1830.79L570.48 1663.7L1157.67 1078.9L1212.57 1024L1157.67 969.1L570.48 384.298L737.566 217.212L1544.35 1024Z" />
<glyph glyph-name="CheveronRight20" unicode="&#xF745;" d="M682.667 1995.49L737.566 2048L792.466 1995.49L1709.05 1078.9L1761.57 1024L1709.05 969.1L792.466 52.5128L737.566 -1.52588e-05L682.667 52.5128L408.168 329.399L355.655 381.911L408.168 436.811L995.357 1024L408.168 1611.19L355.655 1666.09L408.168 1718.6L682.667 1995.49ZM1544.35 1024L737.566 1830.79L570.48 1663.7L1157.67 1078.9L1212.57 1024L1157.67 969.1L570.48 384.298L737.566 217.212L1544.35 1024Z" />
<glyph glyph-name="CheveronRight32" unicode="&#xF746;" d="M682.667 1995.49L737.566 2048L792.466 1995.49L1709.05 1078.9L1761.57 1024L1709.05 969.1L792.466 52.5128L737.566 -1.52588e-05L682.667 52.5128L408.168 329.399L355.655 381.911L408.168 436.811L995.357 1024L408.168 1611.19L355.655 1666.09L408.168 1718.6L682.667 1995.49ZM1544.35 1024L737.566 1830.79L570.48 1663.7L1157.67 1078.9L1212.57 1024L1157.67 969.1L570.48 384.298L737.566 217.212L1544.35 1024Z" />
<glyph glyph-name="ClosedCaption" unicode="&#xE190;" d="M-4.57764e-05 445.714L-4.57764e-05 1755.43L2048 1755.43L2048 445.714L-4.57764e-05 445.714ZM1901.71 1609.14L146.286 1609.14L146.286 592L1901.71 592L1901.71 1609.14ZM365.714 1097.14C365.714 1298.29 530.286 1462.86 731.429 1462.86C818.857 1462.86 898 1430.57 960 1380.57L868.571 1266.29C830 1297.43 783.143 1316.57 731.429 1316.57C609.429 1316.57 512 1219.14 512 1097.14C512 975.143 609.429 877.714 731.429 877.714C783.143 877.714 830 896.857 868.571 928L960 813.714C898 763.714 818.857 731.429 731.429 731.429C530.286 731.429 365.714 896 365.714 1097.14ZM1097.14 1097.14C1097.14 1298.29 1261.71 1462.86 1462.86 1462.86C1550.29 1462.86 1629.43 1430.57 1691.43 1380.57L1600 1266.29C1561.43 1297.43 1514.57 1316.57 1462.86 1316.57C1340.86 1316.57 1243.43 1219.14 1243.43 1097.14C1243.43 975.143 1340.86 877.714 1462.86 877.714C1514.57 877.714 1561.43 896.857 1600 928L1691.43 813.714C1629.43 763.714 1550.29 731.429 1462.86 731.429C1261.71 731.429 1097.14 896 1097.14 1097.14Z" />
<glyph glyph-name="Dislike" unicode="&#xE19E;" d="M332.74 1624.24C356.11 1732.79 452.972 1811.2 563.98 1811.2L1889.92 1811.2L1889.92 551.68L1528.3 551.68L994.48 22.78L969.88 0.639984L937.9 0.639984C810.595 0.639984 709.12 97.5025 709.12 209.74C709.12 314.905 746.02 393.01 782.92 443.44C805.983 475.112 816.13 480.34 832.12 492.64L846.88 551.68L394.24 551.68C245.717 551.68 131.943 691.592 163 837.04L332.74 1624.24ZM1417.6 1653.76L563.98 1653.76C526.465 1653.76 493.255 1629.16 485.26 1592.26L317.98 805.06C307.217 754.323 342.273 709.12 394.24 709.12L1051.06 709.12L1026.46 610.72L979.72 433.6L969.88 401.62L942.82 386.86C942.82 386.86 928.675 380.095 908.38 352.42C888.085 324.745 866.56 280.772 866.56 209.74C866.56 185.447 880.09 171.917 913.3 165.46L1417.6 662.38L1417.6 1653.76ZM1732.48 1653.76L1575.04 1653.76L1575.04 709.12L1732.48 709.12L1732.48 1653.76Z" />
<glyph glyph-name="Dislike" unicode="&#xE8E0;" d="M332.74 1624.24C356.11 1732.79 452.972 1811.2 563.98 1811.2L1889.92 1811.2L1889.92 551.68L1528.3 551.68L994.48 22.78L969.88 0.639984L937.9 0.639984C810.595 0.639984 709.12 97.5025 709.12 209.74C709.12 314.905 746.02 393.01 782.92 443.44C805.983 475.112 816.13 480.34 832.12 492.64L846.88 551.68L394.24 551.68C245.717 551.68 131.943 691.592 163 837.04L332.74 1624.24ZM1417.6 1653.76L563.98 1653.76C526.465 1653.76 493.255 1629.16 485.26 1592.26L317.98 805.06C307.217 754.323 342.273 709.12 394.24 709.12L1051.06 709.12L1026.46 610.72L979.72 433.6L969.88 401.62L942.82 386.86C942.82 386.86 928.675 380.095 908.38 352.42C888.085 324.745 866.56 280.772 866.56 209.74C866.56 185.447 880.09 171.917 913.3 165.46L1417.6 662.38L1417.6 1653.76ZM1732.48 1653.76L1575.04 1653.76L1575.04 709.12L1732.48 709.12L1732.48 1653.76Z" />
</font>
</defs>
</svg>
