<?xml version="1.0" encoding="UTF-8"?>
<!DOCTYPE svg PUBLIC "-//W3C//DTD SVG 1.0//EN" "http://www.w3.org/TR/2001/REC-SVG-20010904/DTD/svg10.dtd">
<svg xmlns="http://www.w3.org/2000/svg">
<defs>
<font id="Uno" horiz-adv-x="1024">
<font-face font-family="Uno" units-per-em="1024" ascent="1024" descent="0" />
<missing-glyph horiz-adv-x="1024" />
<glyph glyph-name="Tablet" unicode="&#xE70A;" d="M0 768C0 828.143 49.5714 877.714 109.714 877.714L914.286 877.714C974.429 877.714 1024 828.143 1024 768L1024 256C1024 195.857 974.429 146.286 914.286 146.286L109.714 146.286C49.5714 146.286 0 195.857 0 256L0 768ZM914.286 804.571L109.714 804.571C89.4286 804.571 73.1428 788.286 73.1428 768L73.1428 256C73.1428 235.714 89.4286 219.429 109.714 219.429L914.286 219.429C934.571 219.429 950.857 235.714 950.857 256L950.857 768C950.857 788.286 934.571 804.571 914.286 804.571ZM109.714 512C109.714 532.143 126.143 548.571 146.286 548.571C166.429 548.571 182.857 532.143 182.857 512C182.857 491.857 166.429 475.429 146.286 475.429C126.143 475.429 109.714 491.857 109.714 512Z" />
<glyph glyph-name="EMI" unicode="&#xE731;" d="M39.3846 0L39.3846 1024L984.615 1024L984.615 0L551.385 0L551.385 157.538L472.615 157.538L472.615 0L39.3846 0ZM905.846 945.231L118.154 945.231L118.154 78.7692L393.846 78.7692L393.846 236.308L630.154 236.308L630.154 78.7692L905.846 78.7692L905.846 945.231ZM196.923 157.538L196.923 236.308L354.462 236.308L354.462 157.538L196.923 157.538ZM669.538 157.538L669.538 236.308L827.077 236.308L827.077 157.538L669.538 157.538ZM196.923 315.077L196.923 393.846L354.462 393.846L354.462 315.077L196.923 315.077ZM433.231 315.077L433.231 393.846L590.769 393.846L590.769 315.077L433.231 315.077ZM669.538 315.077L669.538 393.846L827.077 393.846L827.077 315.077L669.538 315.077ZM196.923 472.615L196.923 551.385L354.462 551.385L354.462 472.615L196.923 472.615ZM433.231 472.615L433.231 551.385L590.769 551.385L590.769 472.615L433.231 472.615ZM669.538 472.615L669.538 551.385L827.077 551.385L827.077 472.615L669.538 472.615ZM196.923 630.154L196.923 708.923L354.462 708.923L354.462 630.154L196.923 630.154ZM433.231 630.154L433.231 708.923L590.769 708.923L590.769 630.154L433.231 630.154ZM669.538 630.154L669.538 708.923L827.077 708.923L827.077 630.154L669.538 630.154ZM196.923 787.692L196.923 866.462L354.462 866.462L354.462 787.692L196.923 787.692ZM433.231 787.692L433.231 866.462L590.769 866.462L590.769 787.692L433.231 787.692ZM669.538 787.692L669.538 866.462L827.077 866.462L827.077 787.692L669.538 787.692Z" />
<glyph glyph-name="CalculatorEqualTo" unicode="&#xE94E;" d="M0 325.818L0 418.909L1024 418.909L1024 325.818L0 325.818ZM0 605.091L0 698.182L1024 698.182L1024 605.091L0 605.091Z" />
<glyph glyph-name="PuncKey3" unicode="&#xE9B6;" d="M0 325.818L0 418.909L1024 418.909L1024 325.818L0 325.818ZM0 605.091L0 698.182L1024 698.182L1024 605.091L0 605.091Z" />
<glyph glyph-name="Copy" unicode="&#xE16F;" d="M341.333 0L341.333 853.333L1024 853.333L1024 0L341.333 0ZM938.667 768L426.667 768L426.667 85.3333L938.667 85.3333L938.667 768ZM0 170.667L0 1024L682.667 1024L682.667 896L597.333 896L597.333 938.667L85.3333 938.667L85.3333 256L298.667 256L298.667 170.667L0 170.667Z" />
<glyph glyph-name="Copy" unicode="&#xE8C8;" d="M341.333 0L341.333 853.333L1024 853.333L1024 0L341.333 0ZM938.667 768L426.667 768L426.667 85.3333L938.667 85.3333L938.667 768ZM0 170.667L0 1024L682.667 1024L682.667 896L597.333 896L597.333 938.667L85.3333 938.667L85.3333 256L298.667 256L298.667 170.667L0 170.667Z" />
<glyph glyph-name="CopyTo" unicode="&#xF413;" d="M341.333 0L341.333 853.333L1024 853.333L1024 0L341.333 0ZM938.667 768L426.667 768L426.667 85.3333L938.667 85.3333L938.667 768ZM0 170.667L0 1024L682.667 1024L682.667 896L597.333 896L597.333 938.667L85.3333 938.667L85.3333 256L298.667 256L298.667 170.667L0 170.667Z" />
<glyph glyph-name="GlobalNavigationButton" unicode="&#xE700;" d="M0 128L0 213.333L1024 213.333L1024 128L0 128ZM0 469.333L0 554.667L1024 554.667L1024 469.333L0 469.333ZM0 810.667L0 896L1024 896L1024 810.667L0 810.667Z" />
<glyph glyph-name="Target" unicode="&#xE1D2;" d="M0 512C0 794.333 229.667 1024 512 1024C794.333 1024 1024 794.333 1024 512C1024 229.667 794.333 0 512 0C229.667 0 0 229.667 0 512ZM938.667 512C938.667 748.167 748.167 938.667 512 938.667C275.833 938.667 85.3333 748.167 85.3333 512C85.3333 275.833 275.833 85.3333 512 85.3333C748.167 85.3333 938.667 275.833 938.667 512ZM384 512C384 582.667 441.333 640 512 640C582.667 640 640 582.667 640 512C640 441.333 582.667 384 512 384C441.333 384 384 441.333 384 512Z" />
<glyph glyph-name="Location" unicode="&#xE81D;" d="M0 512C0 794.333 229.667 1024 512 1024C794.333 1024 1024 794.333 1024 512C1024 229.667 794.333 0 512 0C229.667 0 0 229.667 0 512ZM938.667 512C938.667 748.167 748.167 938.667 512 938.667C275.833 938.667 85.3333 748.167 85.3333 512C85.3333 275.833 275.833 85.3333 512 85.3333C748.167 85.3333 938.667 275.833 938.667 512ZM384 512C384 582.667 441.333 640 512 640C582.667 640 640 582.667 640 512C640 441.333 582.667 384 512 384C441.333 384 384 441.333 384 512Z" />
<glyph glyph-name="MobLocation" unicode="&#xEC43;" d="M0 512C0 794.333 229.667 1024 512 1024C794.333 1024 1024 794.333 1024 512C1024 229.667 794.333 0 512 0C229.667 0 0 229.667 0 512ZM938.667 512C938.667 748.167 748.167 938.667 512 938.667C275.833 938.667 85.3333 748.167 85.3333 512C85.3333 275.833 275.833 85.3333 512 85.3333C748.167 85.3333 938.667 275.833 938.667 512ZM384 512C384 582.667 441.333 640 512 640C582.667 640 640 582.667 640 512C640 441.333 582.667 384 512 384C441.333 384 384 441.333 384 512Z" />
<glyph glyph-name="EmojiTabSmilesAnimals" unicode="&#xED54;" d="M0 512C0 794.309 229.691 1024 512 1024C794.309 1024 1024 794.309 1024 512C1024 229.691 794.309 0 512 0C229.691 0 0 229.691 0 512ZM945.231 512C945.231 750.868 750.868 945.231 512 945.231C273.132 945.231 78.7692 750.868 78.7692 512C78.7692 273.132 273.132 78.7692 512 78.7692C750.868 78.7692 945.231 273.132 945.231 512ZM512 196.923C299.52 196.923 236.308 393.846 236.308 393.846L787.692 393.846C787.692 393.846 724.48 196.923 512 196.923ZM275.692 610.462Q275.692 611.912 275.763 613.36Q275.835 614.809 275.977 616.252Q276.119 617.695 276.332 619.13Q276.544 620.564 276.827 621.987Q277.11 623.409 277.463 624.816Q277.815 626.223 278.236 627.611Q278.657 628.998 279.146 630.364Q279.634 631.729 280.189 633.069Q280.744 634.409 281.364 635.72Q281.984 637.031 282.668 638.31Q283.352 639.589 284.097 640.833Q284.843 642.077 285.649 643.283Q286.454 644.489 287.318 645.654Q288.182 646.818 289.102 647.94Q290.022 649.061 290.996 650.135Q291.97 651.21 292.996 652.235Q294.021 653.261 295.096 654.235Q296.17 655.208 297.291 656.129Q298.412 657.049 299.577 657.912Q300.742 658.776 301.948 659.582Q303.154 660.388 304.398 661.133Q305.642 661.879 306.921 662.563Q308.2 663.246 309.511 663.866Q310.822 664.487 312.161 665.041Q313.501 665.596 314.867 666.085Q316.232 666.574 317.62 666.995Q319.008 667.416 320.415 667.768Q321.822 668.12 323.244 668.403Q324.666 668.686 326.101 668.899Q327.535 669.112 328.979 669.254Q330.422 669.396 331.87 669.467Q333.319 669.538 334.769 669.538Q336.219 669.538 337.668 669.467Q339.117 669.396 340.56 669.254Q342.003 669.112 343.438 668.899Q344.872 668.686 346.295 668.403Q347.717 668.12 349.124 667.768Q350.53 667.416 351.918 666.995Q353.306 666.574 354.672 666.085Q356.037 665.596 357.377 665.041Q358.717 664.486 360.028 663.866Q361.339 663.246 362.618 662.563Q363.897 661.879 365.141 661.133Q366.385 660.388 367.591 659.582Q368.796 658.776 369.961 657.913Q371.126 657.049 372.247 656.129Q373.368 655.208 374.443 654.234Q375.517 653.261 376.543 652.235Q377.568 651.21 378.542 650.135Q379.516 649.06 380.436 647.939Q381.356 646.818 382.22 645.654Q383.084 644.489 383.89 643.283Q384.696 642.077 385.441 640.833Q386.187 639.589 386.87 638.31Q387.554 637.031 388.174 635.72Q388.794 634.409 389.349 633.069Q389.904 631.729 390.393 630.364Q390.881 628.998 391.302 627.611Q391.723 626.223 392.076 624.816Q392.428 623.409 392.711 621.987Q392.994 620.564 393.207 619.13Q393.419 617.695 393.562 616.252Q393.704 614.809 393.775 613.36Q393.846 611.912 393.846 610.462Q393.846 609.011 393.775 607.563Q393.704 606.114 393.562 604.671Q393.419 603.228 393.207 601.793Q392.994 600.359 392.711 598.936Q392.428 597.514 392.076 596.107Q391.723 594.7 391.302 593.312Q390.881 591.925 390.393 590.559Q389.904 589.194 389.349 587.854Q388.794 586.514 388.174 585.203Q387.554 583.892 386.87 582.613Q386.187 581.334 385.441 580.09Q384.696 578.846 383.89 577.64Q383.084 576.434 382.22 575.269Q381.356 574.105 380.436 572.984Q379.516 571.862 378.542 570.788Q377.568 569.713 376.543 568.688Q375.517 567.662 374.443 566.688Q373.368 565.714 372.247 564.794Q371.126 563.874 369.961 563.01Q368.796 562.147 367.591 561.341Q366.385 560.535 365.141 559.789Q363.897 559.044 362.618 558.36Q361.339 557.677 360.028 557.057Q358.717 556.437 357.377 555.882Q356.037 555.326 354.672 554.838Q353.306 554.349 351.918 553.928Q350.53 553.508 349.124 553.155Q347.717 552.803 346.294 552.52Q344.872 552.237 343.438 552.024Q342.003 551.811 340.56 551.669Q339.117 551.527 337.668 551.456Q336.219 551.385 334.769 551.385Q333.319 551.385 331.87 551.456Q330.422 551.527 328.979 551.669Q327.535 551.811 326.101 552.024Q324.666 552.237 323.244 552.52Q321.822 552.803 320.415 553.155Q319.008 553.508 317.62 553.928Q316.232 554.349 314.867 554.838Q313.501 555.326 312.161 555.882Q310.822 556.437 309.511 557.057Q308.2 557.677 306.921 558.36Q305.642 559.044 304.398 559.789Q303.154 560.535 301.948 561.341Q300.742 562.147 299.577 563.01Q298.412 563.874 297.291 564.794Q296.17 565.714 295.096 566.688Q294.021 567.662 292.995 568.688Q291.97 569.713 290.996 570.788Q290.022 571.862 289.102 572.984Q288.182 574.105 287.318 575.269Q286.454 576.434 285.648 577.64Q284.843 578.846 284.097 580.09Q283.352 581.334 282.668 582.613Q281.984 583.892 281.364 585.203Q280.744 586.514 280.189 587.854Q279.634 589.193 279.146 590.559Q278.657 591.924 278.236 593.312Q277.815 594.7 277.463 596.107Q277.11 597.514 276.827 598.936Q276.544 600.359 276.332 601.793Q276.119 603.228 275.977 604.671Q275.835 606.114 275.763 607.563Q275.692 609.011 275.692 610.462ZM630.154 610.462Q630.154 611.912 630.225 613.36Q630.296 614.809 630.438 616.252Q630.58 617.695 630.793 619.13Q631.006 620.564 631.289 621.987Q631.572 623.409 631.924 624.816Q632.277 626.223 632.698 627.611Q633.119 628.998 633.607 630.364Q634.096 631.729 634.651 633.069Q635.206 634.409 635.826 635.72Q636.446 637.031 637.13 638.31Q637.813 639.589 638.559 640.833Q639.304 642.077 640.11 643.283Q640.916 644.489 641.78 645.654Q642.644 646.818 643.564 647.94Q644.484 649.061 645.458 650.135Q646.432 651.21 647.457 652.235Q648.483 653.261 649.557 654.235Q650.632 655.208 651.753 656.129Q652.874 657.049 654.039 657.912Q655.203 658.776 656.409 659.582Q657.615 660.388 658.859 661.133Q660.103 661.879 661.382 662.563Q662.661 663.246 663.972 663.866Q665.283 664.487 666.623 665.041Q667.963 665.596 669.328 666.085Q670.694 666.574 672.082 666.995Q673.469 667.416 674.876 667.768Q676.283 668.12 677.705 668.403Q679.128 668.686 680.562 668.899Q681.997 669.112 683.44 669.254Q684.883 669.396 686.332 669.467Q687.78 669.538 689.231 669.538Q690.681 669.538 692.129 669.467Q693.578 669.396 695.021 669.254Q696.465 669.112 697.899 668.899Q699.334 668.686 700.756 668.403Q702.178 668.12 703.585 667.768Q704.992 667.416 706.38 666.995Q707.768 666.574 709.133 666.085Q710.499 665.596 711.839 665.041Q713.178 664.486 714.489 663.866Q715.8 663.246 717.079 662.563Q718.358 661.879 719.602 661.133Q720.846 660.388 722.052 659.582Q723.258 658.776 724.423 657.913Q725.588 657.049 726.709 656.129Q727.83 655.208 728.904 654.234Q729.979 653.261 731.005 652.235Q732.03 651.21 733.004 650.135Q733.978 649.06 734.898 647.939Q735.818 646.818 736.682 645.654Q737.546 644.489 738.351 643.283Q739.157 642.077 739.903 640.833Q740.648 639.589 741.332 638.31Q742.016 637.031 742.636 635.72Q743.256 634.409 743.811 633.069Q744.366 631.729 744.854 630.364Q745.343 628.998 745.764 627.611Q746.185 626.223 746.537 624.816Q746.89 623.409 747.172 621.987Q747.455 620.564 747.668 619.13Q747.881 617.695 748.023 616.252Q748.165 614.809 748.237 613.36Q748.308 611.912 748.308 610.462Q748.308 609.011 748.237 607.563Q748.165 606.114 748.023 604.671Q747.881 603.228 747.668 601.793Q747.455 600.359 747.172 598.936Q746.89 597.514 746.537 596.107Q746.185 594.7 745.764 593.312Q745.343 591.925 744.854 590.559Q744.366 589.194 743.811 587.854Q743.256 586.514 742.636 585.203Q742.016 583.892 741.332 582.613Q740.648 581.334 739.903 580.09Q739.157 578.846 738.351 577.64Q737.546 576.434 736.682 575.269Q735.818 574.105 734.898 572.984Q733.978 571.862 733.004 570.788Q732.03 569.713 731.004 568.688Q729.979 567.662 728.904 566.688Q727.83 565.714 726.709 564.794Q725.588 563.874 724.423 563.01Q723.258 562.147 722.052 561.341Q720.846 560.535 719.602 559.789Q718.358 559.044 717.079 558.36Q715.8 557.677 714.489 557.057Q713.178 556.437 711.838 555.882Q710.499 555.326 709.133 554.838Q707.768 554.349 706.38 553.928Q704.992 553.508 703.585 553.155Q702.178 552.803 700.756 552.52Q699.334 552.237 697.899 552.024Q696.465 551.811 695.021 551.669Q693.578 551.527 692.129 551.456Q690.681 551.385 689.231 551.385Q687.78 551.385 686.332 551.456Q684.883 551.527 683.44 551.669Q681.997 551.811 680.562 552.024Q679.128 552.237 677.705 552.52Q676.283 552.803 674.876 553.155Q673.469 553.508 672.082 553.928Q670.694 554.349 669.328 554.838Q667.963 555.326 666.623 555.882Q665.283 556.437 663.972 557.057Q662.661 557.677 661.382 558.36Q660.103 559.044 658.859 559.789Q657.615 560.535 656.409 561.341Q655.203 562.147 654.039 563.01Q652.874 563.874 651.753 564.794Q650.632 565.714 649.557 566.688Q648.483 567.662 647.457 568.688Q646.432 569.713 645.458 570.788Q644.484 571.862 643.564 572.984Q642.644 574.105 641.78 575.269Q640.916 576.434 640.11 577.64Q639.304 578.846 638.559 580.09Q637.813 581.334 637.13 582.613Q636.446 583.892 635.826 585.203Q635.206 586.514 634.651 587.854Q634.096 589.193 633.607 590.559Q633.119 591.924 632.698 593.312Q632.277 594.7 631.924 596.107Q631.572 597.514 631.289 598.936Q631.006 600.359 630.793 601.793Q630.58 603.228 630.438 604.671Q630.296 606.114 630.225 607.563Q630.154 609.011 630.154 610.462Z" />
<glyph glyph-name="Save" unicode="&#xE105;" d="M0 0L0 1024L810.182 1024L824.727 1010.91L1010.91 824.727L1024 810.182L1024 0L0 0ZM232.727 930.909L93.0909 930.909L93.0909 93.0909L186.182 93.0909L186.182 512L837.818 512L837.818 93.0909L930.909 93.0909L930.909 770.909L791.273 910.545L791.273 651.636L232.727 651.636L232.727 930.909ZM744.727 418.909L279.273 418.909L279.273 93.0909L744.727 93.0909L744.727 418.909ZM512 930.909L325.818 930.909L325.818 744.727L698.182 744.727L698.182 930.909L605.091 930.909L605.091 837.818L512 837.818L512 930.909Z" />
<glyph glyph-name="Save" unicode="&#xE74E;" d="M0 0L0 1024L810.182 1024L824.727 1010.91L1010.91 824.727L1024 810.182L1024 0L0 0ZM232.727 930.909L93.0909 930.909L93.0909 93.0909L186.182 93.0909L186.182 512L837.818 512L837.818 93.0909L930.909 93.0909L930.909 770.909L791.273 910.545L791.273 651.636L232.727 651.636L232.727 930.909ZM744.727 418.909L279.273 418.909L279.273 93.0909L744.727 93.0909L744.727 418.909ZM512 930.909L325.818 930.909L325.818 744.727L698.182 744.727L698.182 930.909L605.091 930.909L605.091 837.818L512 837.818L512 930.909Z" />
<glyph glyph-name="LocaleLanguage" unicode="&#xF2B7;" d="M0 256L0 1024L768 1024L768 768L1024 768L1024 0L256 0L256 256L0 256ZM938.667 682.667L744 682.667L341.333 280L341.333 85.3333L938.667 85.3333L938.667 682.667ZM642.667 482.667L682.667 604L722.667 482.667L808 226.667L810.667 220L810.667 170.667L725.333 170.667L725.333 208L724 213.333L641.333 213.333L640 208L640 170.667L554.667 170.667L554.667 220L557.333 226.667L642.667 482.667ZM694.667 298.667L682.667 336L670.667 298.667L694.667 298.667ZM682.667 938.667L85.3333 938.667L85.3333 341.333L280 341.333L682.667 744L682.667 938.667ZM298.667 810.667L298.667 853.333L384 853.333L384 810.667L512 810.667L512 725.333L466.667 725.333C462.167 676.167 449.833 630.833 426.667 592L426.667 512C402.333 512 379.667 514.833 357.333 518.667C309.333 486.667 246.333 469.333 170.667 469.333L170.667 554.667C198.667 554.667 223 556.833 244 561.333C202 589.5 170.667 631.833 170.667 682.667L256 682.667C256 664.833 267.333 645.833 297.333 628C308.167 621.5 321.333 615.5 336 610.667C360.833 637.667 375.833 676.333 381.333 725.333L170.667 725.333L170.667 810.667L298.667 810.667Z" />
<glyph glyph-name="Italic" unicode="&#xE199;" d="M311.273 980.364L314.182 1024L781.091 1024L776.727 974.545L768 834.909L765.091 791.273L672 791.273L631.273 232.727L724.364 232.727L721.455 183.273L712.727 43.6364L709.818 0L242.909 0L247.273 49.4545L256 189.091L258.909 232.727L352 232.727L392.727 791.273L299.636 791.273L302.545 840.727L311.273 980.364ZM680.727 930.909L401.455 930.909L398.545 884.364L491.636 884.364L488.727 834.909L442.182 183.273L439.273 139.636L346.182 139.636L343.273 93.0909L622.545 93.0909L625.455 139.636L532.364 139.636L535.273 189.091L581.818 840.727L584.727 884.364L677.818 884.364L680.727 930.909Z" />
<glyph glyph-name="Italic" unicode="&#xE8DB;" d="M311.273 980.364L314.182 1024L781.091 1024L776.727 974.545L768 834.909L765.091 791.273L672 791.273L631.273 232.727L724.364 232.727L721.455 183.273L712.727 43.6364L709.818 0L242.909 0L247.273 49.4545L256 189.091L258.909 232.727L352 232.727L392.727 791.273L299.636 791.273L302.545 840.727L311.273 980.364ZM680.727 930.909L401.455 930.909L398.545 884.364L491.636 884.364L488.727 834.909L442.182 183.273L439.273 139.636L346.182 139.636L343.273 93.0909L622.545 93.0909L625.455 139.636L532.364 139.636L535.273 189.091L581.818 840.727L584.727 884.364L677.818 884.364L680.727 930.909Z" />
<glyph glyph-name="Down" unicode="&#xE74B;" d="M469.333 168L469.333 1024L554.667 1024L554.667 168L844 457.333L905.333 396L542.667 33.3333L512 4L481.333 33.3333L118.667 396L180 457.333L469.333 168Z" />
<glyph glyph-name="ArrowDown8" unicode="&#xF0AE;" d="M469.333 168L469.333 1024L554.667 1024L554.667 168L844 457.333L905.333 396L542.667 33.3333L512 4L481.333 33.3333L118.667 396L180 457.333L469.333 168Z" />
<glyph glyph-name="Back" unicode="&#xE112;" d="M33.3333 542.667L396 905.333L457.333 844L168 554.667L1024 554.667L1024 469.333L168 469.333L457.333 180L396 118.667L33.3333 481.333L4 512L33.3333 542.667Z" />
<glyph glyph-name="Back" unicode="&#xE72B;" d="M33.3333 542.667L396 905.333L457.333 844L168 554.667L1024 554.667L1024 469.333L168 469.333L457.333 180L396 118.667L33.3333 481.333L4 512L33.3333 542.667Z" />
<glyph glyph-name="ChromeBack" unicode="&#xE830;" d="M33.3333 542.667L396 905.333L457.333 844L168 554.667L1024 554.667L1024 469.333L168 469.333L457.333 180L396 118.667L33.3333 481.333L4 512L33.3333 542.667Z" />
<glyph glyph-name="LeftArrowKeyTime0" unicode="&#xEC52;" d="M33.3333 542.667L396 905.333L457.333 844L168 554.667L1024 554.667L1024 469.333L168 469.333L457.333 180L396 118.667L33.3333 481.333L4 512L33.3333 542.667Z" />
<glyph glyph-name="ArrowLeft8" unicode="&#xF0B0;" d="M33.3333 542.667L396 905.333L457.333 844L168 554.667L1024 554.667L1024 469.333L168 469.333L457.333 180L396 118.667L33.3333 481.333L4 512L33.3333 542.667Z" />
<glyph glyph-name="ForwardMirrored" unicode="&#xF0D3;" d="M33.3333 542.667L396 905.333L457.333 844L168 554.667L1024 554.667L1024 469.333L168 469.333L457.333 180L396 118.667L33.3333 481.333L4 512L33.3333 542.667Z" />
<glyph glyph-name="ChromeBackContrast" unicode="&#xF0D5;" d="M33.3333 542.667L396 905.333L457.333 844L168 554.667L1024 554.667L1024 469.333L168 469.333L457.333 180L396 118.667L33.3333 481.333L4 512L33.3333 542.667Z" />
<glyph glyph-name="HalfStarLeft" unicode="&#xE7C6;" d="M363.283 673.692L512 1007.26L512 215.961L195.592 33.4823L271.346 390.766L0 635.326L363.283 673.692Z" />
<glyph glyph-name="ThreeQuarterStarLeft" unicode="&#xF0CC;" d="M363.283 673.692L512 1007.26L512 215.961L195.592 33.4823L271.346 390.766L0 635.326L363.283 673.692Z" />
<glyph glyph-name="OutlineHalfStarLeft" unicode="&#xF0E7;" d="M363.283 673.692L512 1007.26L512 215.961L195.592 33.4823L271.346 390.766L0 635.326L363.283 673.692Z" />
<glyph glyph-name="Leaf" unicode="&#xE8BE;" d="M766.509 878.85L799.317 893.763L809.258 858.967C809.258 858.967 861.95 680.264 861.95 431.472C861.95 304.342 832.621 220.334 787.386 168.016C742.151 115.697 682.252 98.4233 633.289 98.4233C578.361 98.4233 531.262 123.402 494.105 149.126C456.948 174.85 425.258 204.179 419.542 207.783L453.344 261.468C475.713 247.301 497.833 224.062 529.895 201.817C561.957 179.573 598.99 162.05 633.289 162.05C667.713 162.05 706.485 172.614 738.672 209.771C770.858 246.928 798.322 314.159 798.322 431.472C798.322 638.26 765.763 770.61 755.573 809.258C646.089 768.621 518.586 750.229 415.565 713.818C358.649 693.685 311.052 668.085 278.369 632.295C245.685 596.505 225.678 550.276 225.678 480.186C225.678 418.548 259.355 380.148 296.264 353.926C315.402 340.256 334.043 331.682 347.961 326.089C402.641 413.452 486.524 521.942 616.388 661.126L662.12 617.383C445.515 385.243 362.128 240.217 332.054 152.109C317.017 107.992 315.153 78.2913 316.148 56.6679C316.547 47.9774 317.75 40.8324 318.916 33.902C320.652 23.5887 322.308 13.7503 321.118 0L257.491 5.96503C257.491 5.95576 257.49 5.951 257.489 5.95071C257.381 5.93114 253.745 25.4066 252.52 53.6854C251.278 82.3922 254.012 122.159 271.41 172.986C280.979 201.196 295.518 234.004 315.153 270.416C298.874 277.623 279.487 287.938 259.48 302.229C212.505 335.658 162.05 394.439 162.05 480.186C162.05 563.076 188.52 627.946 231.643 675.045C274.765 722.144 332.427 751.472 394.687 773.468C519.208 817.46 665.351 834.237 766.509 878.85Z" />
<glyph glyph-name="Airplane" unicode="&#xE709;" d="M395.801 899.329C395.801 963.026 448.303 1015.53 512 1015.53C575.697 1015.53 628.199 963.026 628.199 899.329L628.199 614.884L953.797 469.636L976.794 459.953L976.794 274.761L628.199 313.494L628.199 242.08L727.452 175.508L744.397 164.615L744.397 0L698.402 9.68323L512 47.2057L325.598 9.68323L279.603 0L279.603 164.615L296.548 175.508L395.801 242.08L395.801 313.494L47.2057 274.761L47.2057 459.953L70.2033 469.636L395.801 614.884L395.801 899.329ZM550.733 899.329C550.733 921.267 533.939 938.061 512 938.061C490.061 938.061 473.267 921.267 473.267 899.329L473.267 564.047L450.27 554.364L124.671 409.116L124.671 361.91L473.267 400.643L473.267 199.716L456.322 188.823L357.069 122.251L357.069 94.4113L504.738 123.461L512 125.882L519.262 123.461L666.931 94.4113L666.931 122.251L567.678 188.823L550.733 199.716L550.733 400.643L899.329 361.91L899.329 409.116L573.73 554.364L550.733 564.047L550.733 899.329Z" />
<glyph glyph-name="MobAirplane" unicode="&#xEC40;" d="M395.801 899.329C395.801 963.026 448.303 1015.53 512 1015.53C575.697 1015.53 628.199 963.026 628.199 899.329L628.199 614.884L953.797 469.636L976.794 459.953L976.794 274.761L628.199 313.494L628.199 242.08L727.452 175.508L744.397 164.615L744.397 0L698.402 9.68323L512 47.2057L325.598 9.68323L279.603 0L279.603 164.615L296.548 175.508L395.801 242.08L395.801 313.494L47.2057 274.761L47.2057 459.953L70.2033 469.636L395.801 614.884L395.801 899.329ZM550.733 899.329C550.733 921.267 533.939 938.061 512 938.061C490.061 938.061 473.267 921.267 473.267 899.329L473.267 564.047L450.27 554.364L124.671 409.116L124.671 361.91L473.267 400.643L473.267 199.716L456.322 188.823L357.069 122.251L357.069 94.4113L504.738 123.461L512 125.882L519.262 123.461L666.931 94.4113L666.931 122.251L567.678 188.823L550.733 199.716L550.733 400.643L899.329 361.91L899.329 409.116L573.73 554.364L550.733 564.047L550.733 899.329Z" />
<glyph glyph-name="Stopwatch" unicode="&#xE916;" d="M78.7692 433.231C78.7692 672 273.231 866.462 512 866.462C606.923 866.462 695.385 836 766.769 784L838.154 855.385L894.769 798.769L827.077 731.077C900.462 653.385 945.231 548.154 945.231 433.231C945.231 194.462 750.769 0 512 0C273.231 0 78.7692 194.462 78.7692 433.231ZM866.462 433.231C866.462 629.385 708.154 787.692 512 787.692C315.846 787.692 157.538 629.385 157.538 433.231C157.538 237.077 315.846 78.7692 512 78.7692C708.154 78.7692 866.462 237.077 866.462 433.231ZM472.615 500.923L472.615 708.923L551.385 708.923L551.385 500.923C574.923 487.231 590.769 462.308 590.769 433.231C590.769 404.154 574.923 379.231 551.385 365.538L551.385 315.077L472.615 315.077L472.615 365.538C449.077 379.231 433.231 404.154 433.231 433.231C433.231 462.308 449.077 487.231 472.615 500.923ZM393.846 905.846L393.846 984.615L630.154 984.615L630.154 905.846L393.846 905.846Z" />
<glyph glyph-name="Click" unicode="&#xE8B0;" d="M244.662 47.7389L244.662 1024L310.303 959.552L871.235 397.427L926.135 342.527L848.559 332.979L655.217 309.11L725.632 170.667L742.34 136.056L708.923 119.347L590.769 58.4802L556.159 40.5781L539.45 75.1888L461.874 229.147L307.916 100.252L244.662 47.7389ZM762.629 398.62L321.044 839.012L321.044 212.438L448.746 319.851L485.744 350.881L508.42 307.916L590.769 143.217L640.895 169.473L562.126 322.238L537.063 371.17L590.769 378.331L762.629 398.62Z" />
<glyph glyph-name="Emoji2" unicode="&#xE170;" d="M0 512C0 794.333 229.667 1024 512 1024C794.333 1024 1024 794.333 1024 512C1024 229.667 794.333 0 512 0C229.667 0 0 229.667 0 512ZM938.667 512C938.667 748.167 748.167 938.667 512 938.667C275.833 938.667 85.3333 748.167 85.3333 512C85.3333 275.833 275.833 85.3333 512 85.3333C748.167 85.3333 938.667 275.833 938.667 512ZM217.333 341.333L290.667 384C335 307.5 417 256 512 256C607 256 689 307.5 733.333 384L806.667 341.333C747.667 239.5 638 170.667 512 170.667C386 170.667 276.333 239.5 217.333 341.333ZM256 618.667C256 654 284.667 682.667 320 682.667C355.333 682.667 384 654 384 618.667C384 583.333 355.333 554.667 320 554.667C284.667 554.667 256 583.333 256 618.667ZM640 618.667C640 654 668.667 682.667 704 682.667C739.333 682.667 768 654 768 618.667C768 583.333 739.333 554.667 704 554.667C668.667 554.667 640 583.333 640 618.667Z" />
<glyph glyph-name="Emoji2" unicode="&#xE76E;" d="M0 512C0 794.333 229.667 1024 512 1024C794.333 1024 1024 794.333 1024 512C1024 229.667 794.333 0 512 0C229.667 0 0 229.667 0 512ZM938.667 512C938.667 748.167 748.167 938.667 512 938.667C275.833 938.667 85.3333 748.167 85.3333 512C85.3333 275.833 275.833 85.3333 512 85.3333C748.167 85.3333 938.667 275.833 938.667 512ZM217.333 341.333L290.667 384C335 307.5 417 256 512 256C607 256 689 307.5 733.333 384L806.667 341.333C747.667 239.5 638 170.667 512 170.667C386 170.667 276.333 239.5 217.333 341.333ZM256 618.667C256 654 284.667 682.667 320 682.667C355.333 682.667 384 654 384 618.667C384 583.333 355.333 554.667 320 554.667C284.667 554.667 256 583.333 256 618.667ZM640 618.667C640 654 668.667 682.667 704 682.667C739.333 682.667 768 654 768 618.667C768 583.333 739.333 554.667 704 554.667C668.667 554.667 640 583.333 640 618.667Z" />
<glyph glyph-name="RemoveFrom" unicode="&#xECC9;" d="M0 512C0 794.308 229.692 1024 512 1024C794.308 1024 1024 794.308 1024 512C1024 229.692 794.308 0 512 0C229.692 0 0 229.692 0 512ZM945.231 512C945.231 751.692 751.692 945.231 512 945.231C272.308 945.231 78.7692 751.692 78.7692 512C78.7692 272.308 272.308 78.7692 512 78.7692C751.692 78.7692 945.231 272.308 945.231 512ZM275.692 472.615L275.692 551.385L748.308 551.385L748.308 472.615L275.692 472.615Z" />
<glyph glyph-name="Blocked2" unicode="&#xECE4;" d="M0 512C0 794.308 229.692 1024 512 1024C794.308 1024 1024 794.308 1024 512C1024 229.692 794.308 0 512 0C229.692 0 0 229.692 0 512ZM945.231 512C945.231 751.692 751.692 945.231 512 945.231C272.308 945.231 78.7692 751.692 78.7692 512C78.7692 272.308 272.308 78.7692 512 78.7692C751.692 78.7692 945.231 272.308 945.231 512ZM275.692 472.615L275.692 551.385L748.308 551.385L748.308 472.615L275.692 472.615Z" />
<glyph glyph-name="StatusCircleBlock2" unicode="&#xF141;" d="M0 512C0 794.308 229.692 1024 512 1024C794.308 1024 1024 794.308 1024 512C1024 229.692 794.308 0 512 0C229.692 0 0 229.692 0 512ZM945.231 512C945.231 751.692 751.692 945.231 512 945.231C272.308 945.231 78.7692 751.692 78.7692 512C78.7692 272.308 272.308 78.7692 512 78.7692C751.692 78.7692 945.231 272.308 945.231 512ZM275.692 472.615L275.692 551.385L748.308 551.385L748.308 472.615L275.692 472.615Z" />
<glyph glyph-name="CalculatorDivide" unicode="&#xE94A;" d="M372.364 186.182C372.364 262.727 435.455 325.818 512 325.818C588.545 325.818 651.636 262.727 651.636 186.182C651.636 109.636 588.545 46.5454 512 46.5454C435.455 46.5454 372.364 109.636 372.364 186.182ZM558.545 186.182C558.545 212.364 538.182 232.727 512 232.727C485.818 232.727 465.455 212.364 465.455 186.182C465.455 160 485.818 139.636 512 139.636C538.182 139.636 558.545 160 558.545 186.182ZM0 465.455L0 558.545L1024 558.545L1024 465.455L0 465.455ZM372.364 837.818C372.364 914.364 435.455 977.455 512 977.455C588.545 977.455 651.636 914.364 651.636 837.818C651.636 761.273 588.545 698.182 512 698.182C435.455 698.182 372.364 761.273 372.364 837.818ZM558.545 837.818C558.545 864 538.182 884.364 512 884.364C485.818 884.364 465.455 864 465.455 837.818C465.455 811.636 485.818 791.273 512 791.273C538.182 791.273 558.545 811.636 558.545 837.818Z" />
<glyph glyph-name="PuncKey8" unicode="&#xE9BC;" d="M372.364 186.182C372.364 262.727 435.455 325.818 512 325.818C588.545 325.818 651.636 262.727 651.636 186.182C651.636 109.636 588.545 46.5454 512 46.5454C435.455 46.5454 372.364 109.636 372.364 186.182ZM558.545 186.182C558.545 212.364 538.182 232.727 512 232.727C485.818 232.727 465.455 212.364 465.455 186.182C465.455 160 485.818 139.636 512 139.636C538.182 139.636 558.545 160 558.545 186.182ZM0 465.455L0 558.545L1024 558.545L1024 465.455L0 465.455ZM372.364 837.818C372.364 914.364 435.455 977.455 512 977.455C588.545 977.455 651.636 914.364 651.636 837.818C651.636 761.273 588.545 698.182 512 698.182C435.455 698.182 372.364 761.273 372.364 837.818ZM558.545 837.818C558.545 864 538.182 884.364 512 884.364C485.818 884.364 465.455 864 465.455 837.818C465.455 811.636 485.818 791.273 512 791.273C538.182 791.273 558.545 811.636 558.545 837.818Z" />
<glyph glyph-name="Battery10" unicode="&#xE83F;" d="M0 196.923L0 827.077L945.231 827.077L945.231 630.154L1024 630.154L1024 393.846L945.231 393.846L945.231 196.923L0 196.923ZM866.462 748.308L78.7692 748.308L78.7692 275.692L866.462 275.692L866.462 748.308ZM157.538 354.462L157.538 669.538L787.692 669.538L787.692 354.462L157.538 354.462Z" />
<glyph glyph-name="BandBattery6" unicode="&#xECBF;" d="M0 196.923L0 827.077L945.231 827.077L945.231 630.154L1024 630.154L1024 393.846L945.231 393.846L945.231 196.923L0 196.923ZM866.462 748.308L78.7692 748.308L78.7692 275.692L866.462 275.692L866.462 748.308ZM157.538 354.462L157.538 669.538L787.692 669.538L787.692 354.462L157.538 354.462Z" />
<glyph glyph-name="ChromeMaximize" unicode="&#xE922;" d="M0 0L0 1024L1024 1024L1024 0L0 0ZM930.909 930.909L93.0909 930.909L93.0909 93.0909L930.909 93.0909L930.909 930.909ZM186.182 232.727L186.182 791.273L837.818 791.273L837.818 232.727L186.182 232.727ZM744.727 512L279.273 512L279.273 325.818L744.727 325.818L744.727 512ZM744.727 698.182L279.273 698.182L279.273 605.091L744.727 605.091L744.727 698.182Z" />
<glyph glyph-name="QuickNote" unicode="&#xE70B;" d="M0 0L0 1024L1024 1024L1024 306.909L1010.91 292.364L731.636 13.0909L717.091 0L0 0ZM930.909 930.909L93.0909 930.909L93.0909 93.0909L651.636 93.0909L651.636 372.364L930.909 372.364L930.909 930.909ZM864 279.273L744.727 279.273L744.727 160L864 279.273Z" />
<glyph glyph-name="Sticker2" unicode="&#xF4AA;" d="M0 0L0 1024L1024 1024L1024 306.909L1010.91 292.364L731.636 13.0909L717.091 0L0 0ZM930.909 930.909L93.0909 930.909L93.0909 93.0909L651.636 93.0909L651.636 372.364L930.909 372.364L930.909 930.909ZM864 279.273L744.727 279.273L744.727 160L864 279.273Z" />
<glyph glyph-name="Volume0" unicode="&#xE992;" d="M396 926.667L469.333 998.667L469.333 25.3333L396 97.3333L194.667 298.667L0 298.667L0 725.333L194.667 725.333L396 926.667ZM384 232L384 792L244 652L230.667 640L85.3333 640L85.3333 384L230.667 384L244 372L384 232ZM630.667 630.667L692 692L810.667 573.333L929.333 692L990.667 630.667L872 512L990.667 393.333L929.333 332L810.667 450.667L692 332L630.667 393.333L749.333 512L630.667 630.667Z" />
<glyph glyph-name="AlignRight" unicode="&#xE1A0;" d="M0 157.538L0 236.308L1024 236.308L1024 157.538L0 157.538ZM315.077 315.077L315.077 393.846L1024 393.846L1024 315.077L315.077 315.077ZM0 472.615L0 551.385L1024 551.385L1024 472.615L0 472.615ZM315.077 630.154L315.077 708.923L1024 708.923L1024 630.154L315.077 630.154ZM0 787.692L0 866.462L1024 866.462L1024 787.692L0 787.692Z" />
<glyph glyph-name="AlignRight" unicode="&#xE8E2;" d="M0 157.538L0 236.308L1024 236.308L1024 157.538L0 157.538ZM315.077 315.077L315.077 393.846L1024 393.846L1024 315.077L315.077 315.077ZM0 472.615L0 551.385L1024 551.385L1024 472.615L0 472.615ZM315.077 630.154L315.077 708.923L1024 708.923L1024 630.154L315.077 630.154ZM0 787.692L0 866.462L1024 866.462L1024 787.692L0 787.692Z" />
<glyph glyph-name="Switch" unicode="&#xE13C;" d="M30.3235 250.752L281.075 501.503L333.558 447.854L173.777 288.073L959.854 288.073L959.854 213.431L173.777 213.431L333.558 53.6492L281.075 0L30.3235 250.752ZM690.442 970.351L742.925 1024L993.677 773.248L742.925 522.497L690.442 576.146L850.223 735.927L64.1458 735.927L64.1458 810.569L850.223 810.569L690.442 970.351Z" />
<glyph glyph-name="Switch" unicode="&#xE8AB;" d="M30.3235 250.752L281.075 501.503L333.558 447.854L173.777 288.073L959.854 288.073L959.854 213.431L173.777 213.431L333.558 53.6492L281.075 0L30.3235 250.752ZM690.442 970.351L742.925 1024L993.677 773.248L742.925 522.497L690.442 576.146L850.223 735.927L64.1458 735.927L64.1458 810.569L850.223 810.569L690.442 970.351Z" />
<glyph glyph-name="Remove" unicode="&#xE108;" d="M0 558.545L0 465.455L1024 465.455L1024 558.545L0 558.545Z" />
<glyph glyph-name="Remove" unicode="&#xE738;" d="M0 558.545L0 465.455L1024 465.455L1024 558.545L0 558.545Z" />
<glyph glyph-name="CalculatorSubtract" unicode="&#xE949;" d="M0 558.545L0 465.455L1024 465.455L1024 558.545L0 558.545Z" />
<glyph glyph-name="DashKey" unicode="&#xE9AE;" d="M0 558.545L0 465.455L1024 465.455L1024 558.545L0 558.545Z" />
<glyph glyph-name="ChromeMinimizeContrast" unicode="&#xEF2D;" d="M0 558.545L0 465.455L1024 465.455L1024 558.545L0 558.545Z" />
<glyph glyph-name="Ferry" unicode="&#xE7E3;" d="M472.615 945.231L472.615 1024L551.385 1024L551.385 945.231L708.923 945.231L708.923 827.077L866.462 827.077L866.462 593.231L899.692 585.846C970.769 570.462 1006 488.154 968.615 425.846L905.846 320L905.846 123.077C938.615 131.846 960 148.923 960 148.923L1009.23 87.3846C1009.23 87.3846 950.923 39.3846 867.692 39.3846C809.692 39.3846 771.231 58.6154 748.308 72.6154C725.538 58.4615 688.923 39.3846 631.385 39.3846C573.385 39.3846 534.923 58.6154 512 72.6154C489.231 58.4615 452.615 39.3846 395.077 39.3846C337.077 39.3846 298.615 58.6154 275.692 72.6154C252.923 58.4615 216.308 39.3846 158.769 39.3846C75.5385 39.3846 14.7692 87.3846 14.7692 87.3846L64 148.923C64 148.923 86.3077 133.231 118.154 124.308L118.154 320L55.3846 425.846C18 488.154 53.2307 570.462 124.308 585.846L124.308 587.077L157.538 594.462L157.538 827.077L315.077 827.077L315.077 945.231L472.615 945.231ZM882.462 509.538L512 588.308L141.538 509.538C120.923 505.077 110.923 484.615 121.846 466.462L190.769 350.769L196.923 342.154L196.923 123.077C229.692 131.846 251.077 148.923 251.077 148.923L275.692 168.615L300.308 148.923C300.308 148.923 342.308 118.154 395.077 118.154C447.846 118.154 487.385 148.923 487.385 148.923L512 168.615L536.615 148.923C536.615 148.923 578.615 118.154 631.385 118.154C684.154 118.154 723.692 148.923 723.692 148.923L748.308 168.615L772.923 148.923C772.923 148.923 795.231 133.231 827.077 124.308L827.077 342.154L833.231 350.769L902.154 466.462C913.077 484.462 903.077 505.077 882.462 509.538ZM275.692 452.923C275.692 484.462 291.385 512 315.077 512C338.769 512 354.462 484.462 354.462 452.923C354.462 421.385 338.769 393.846 315.077 393.846C291.385 393.846 275.692 421.385 275.692 452.923ZM669.538 452.923C669.538 484.462 685.231 512 708.923 512C732.615 512 748.308 484.462 748.308 452.923C748.308 421.385 732.615 393.846 708.923 393.846C685.231 393.846 669.538 421.385 669.538 452.923ZM630.154 748.308L630.154 866.462L393.846 866.462L393.846 748.308L236.308 748.308L236.308 610.462L503.385 668.308L512 669.538L520.615 668.308L787.692 610.462L787.692 748.308L630.154 748.308Z" />
<glyph glyph-name="Bold" unicode="&#xE19B;" d="M0 1024L512 1024C693.455 1024 837.818 879.636 837.818 698.182C837.818 656.364 828.545 614.364 814.545 577.091C884.364 516.727 930.909 423.636 930.909 325.818C930.909 144.364 786.545 0 605.091 0L0 0L0 1024ZM744.727 698.182C744.727 828.545 642.364 930.909 512 930.909L93.0909 930.909L93.0909 93.0909L605.091 93.0909C735.455 93.0909 837.818 195.455 837.818 325.818C837.818 428.182 772.727 512 684.182 544.545C721.455 586.545 744.727 637.636 744.727 698.182ZM605.091 186.182L186.182 186.182L186.182 465.455L605.091 465.455C684.182 465.455 744.727 404.909 744.727 325.818C744.727 246.727 684.182 186.182 605.091 186.182ZM605.091 372.364L279.273 372.364L279.273 279.273L605.091 279.273C633.091 279.273 651.636 297.818 651.636 325.818C651.636 353.818 633.091 372.364 605.091 372.364ZM512 558.545L186.182 558.545L186.182 837.818L512 837.818C591.091 837.818 651.636 777.273 651.636 698.182C651.636 619.091 591.091 558.545 512 558.545ZM512 744.727L279.273 744.727L279.273 651.636L512 651.636C540 651.636 558.545 670.182 558.545 698.182C558.545 726.182 540 744.727 512 744.727Z" />
<glyph glyph-name="Bold" unicode="&#xE8DD;" d="M0 1024L512 1024C693.455 1024 837.818 879.636 837.818 698.182C837.818 656.364 828.545 614.364 814.545 577.091C884.364 516.727 930.909 423.636 930.909 325.818C930.909 144.364 786.545 0 605.091 0L0 0L0 1024ZM744.727 698.182C744.727 828.545 642.364 930.909 512 930.909L93.0909 930.909L93.0909 93.0909L605.091 93.0909C735.455 93.0909 837.818 195.455 837.818 325.818C837.818 428.182 772.727 512 684.182 544.545C721.455 586.545 744.727 637.636 744.727 698.182ZM605.091 186.182L186.182 186.182L186.182 465.455L605.091 465.455C684.182 465.455 744.727 404.909 744.727 325.818C744.727 246.727 684.182 186.182 605.091 186.182ZM605.091 372.364L279.273 372.364L279.273 279.273L605.091 279.273C633.091 279.273 651.636 297.818 651.636 325.818C651.636 353.818 633.091 372.364 605.091 372.364ZM512 558.545L186.182 558.545L186.182 837.818L512 837.818C591.091 837.818 651.636 777.273 651.636 698.182C651.636 619.091 591.091 558.545 512 558.545ZM512 744.727L279.273 744.727L279.273 651.636L512 651.636C540 651.636 558.545 670.182 558.545 698.182C558.545 726.182 540 744.727 512 744.727Z" />
<glyph glyph-name="ChevronDown" unicode="&#xE70D;" d="M0 658.459L55.6785 714.137L512 257.816L968.322 714.137L1024 658.459L539.839 174.298L512 147.669L484.161 174.298L0 658.459Z" />
<glyph glyph-name="PageRight" unicode="&#xE761;" d="M0 512C0 794.308 229.692 1024 512 1024C794.308 1024 1024 794.308 1024 512C1024 229.692 794.308 0 512 0C229.692 0 0 229.692 0 512ZM945.231 512C945.231 751.692 751.692 945.231 512 945.231C272.308 945.231 78.7692 751.692 78.7692 512C78.7692 272.308 272.308 78.7692 512 78.7692C751.692 78.7692 945.231 272.308 945.231 512ZM385.231 720L441.846 776.615L678.154 540.308L705.231 512L678.154 483.692L441.846 247.385L385.231 304L593.231 512L385.231 720Z" />
<glyph glyph-name="Movies" unicode="&#xE8B2;" d="M0 0L0 1024L1024 1024L1024 0L0 0ZM170.667 938.667L85.3333 938.667L85.3333 85.3333L170.667 85.3333L170.667 128L256 128L256 85.3333L768 85.3333L768 128L853.333 128L853.333 85.3333L938.667 85.3333L938.667 938.667L853.333 938.667L853.333 896L768 896L768 938.667L256 938.667L256 896L170.667 896L170.667 938.667ZM170.667 213.333L170.667 298.667L256 298.667L256 213.333L170.667 213.333ZM768 213.333L768 298.667L853.333 298.667L853.333 213.333L768 213.333ZM170.667 384L170.667 469.333L256 469.333L256 384L170.667 384ZM768 384L768 469.333L853.333 469.333L853.333 384L768 384ZM170.667 554.667L170.667 640L256 640L256 554.667L170.667 554.667ZM768 554.667L768 640L853.333 640L853.333 554.667L768 554.667ZM170.667 725.333L170.667 810.667L256 810.667L256 725.333L170.667 725.333ZM768 725.333L768 810.667L853.333 810.667L853.333 725.333L768 725.333Z" />
<glyph glyph-name="People" unicode="&#xE125;" d="M68.2666 614.4C68.2666 727.067 160.4 819.2 273.067 819.2C385.733 819.2 477.867 727.067 477.867 614.4C477.867 546.667 444.533 486.4 393.6 449.067C443.333 424.4 485.067 385.467 512 337.067C538.933 385.467 580.667 424.4 630.4 449.067C579.467 486.4 546.133 546.667 546.133 614.4C546.133 727.067 638.267 819.2 750.933 819.2C863.6 819.2 955.733 727.067 955.733 614.4C955.733 546.667 922.4 486.4 871.467 449.067C961.467 404.4 1024 311.867 1024 204.8L955.733 204.8C955.733 318.267 864.4 409.6 750.933 409.6C637.467 409.6 546.133 318.267 546.133 204.8L477.867 204.8C477.867 318.267 386.533 409.6 273.067 409.6C159.6 409.6 68.2666 318.267 68.2666 204.8L0 204.8C0 311.867 62.5333 404.4 152.533 449.067C101.6 486.4 68.2666 546.667 68.2666 614.4ZM409.6 614.4C409.6 690.267 348.933 750.933 273.067 750.933C197.2 750.933 136.533 690.267 136.533 614.4C136.533 538.533 197.2 477.867 273.067 477.867C348.933 477.867 409.6 538.533 409.6 614.4ZM887.467 614.4C887.467 690.267 826.8 750.933 750.933 750.933C675.067 750.933 614.4 690.267 614.4 614.4C614.4 538.533 675.067 477.867 750.933 477.867C826.8 477.867 887.467 538.533 887.467 614.4Z" />
<glyph glyph-name="People" unicode="&#xE716;" d="M68.2666 614.4C68.2666 727.067 160.4 819.2 273.067 819.2C385.733 819.2 477.867 727.067 477.867 614.4C477.867 546.667 444.533 486.4 393.6 449.067C443.333 424.4 485.067 385.467 512 337.067C538.933 385.467 580.667 424.4 630.4 449.067C579.467 486.4 546.133 546.667 546.133 614.4C546.133 727.067 638.267 819.2 750.933 819.2C863.6 819.2 955.733 727.067 955.733 614.4C955.733 546.667 922.4 486.4 871.467 449.067C961.467 404.4 1024 311.867 1024 204.8L955.733 204.8C955.733 318.267 864.4 409.6 750.933 409.6C637.467 409.6 546.133 318.267 546.133 204.8L477.867 204.8C477.867 318.267 386.533 409.6 273.067 409.6C159.6 409.6 68.2666 318.267 68.2666 204.8L0 204.8C0 311.867 62.5333 404.4 152.533 449.067C101.6 486.4 68.2666 546.667 68.2666 614.4ZM409.6 614.4C409.6 690.267 348.933 750.933 273.067 750.933C197.2 750.933 136.533 690.267 136.533 614.4C136.533 538.533 197.2 477.867 273.067 477.867C348.933 477.867 409.6 538.533 409.6 614.4ZM887.467 614.4C887.467 690.267 826.8 750.933 750.933 750.933C675.067 750.933 614.4 690.267 614.4 614.4C614.4 538.533 675.067 477.867 750.933 477.867C826.8 477.867 887.467 538.533 887.467 614.4Z" />
<glyph glyph-name="ChromeRestore" unicode="&#xE923;" d="M0 0L0 1024L1024 1024L1024 0L0 0ZM930.909 930.909L93.0909 930.909L93.0909 93.0909L930.909 93.0909L930.909 930.909ZM325.818 651.636L325.818 837.818L837.818 837.818L837.818 372.364L698.182 372.364L698.182 186.182L186.182 186.182L186.182 651.636L325.818 651.636ZM325.818 417.455L279.273 417.455L279.273 279.273L605.091 279.273L605.091 372.364L325.818 372.364L325.818 417.455ZM744.727 605.091L418.909 605.091L418.909 465.455L744.727 465.455L744.727 605.091ZM325.818 558.545L279.273 558.545L279.273 510.545L325.818 510.545L325.818 558.545ZM744.727 744.727L418.909 744.727L418.909 698.182L744.727 698.182L744.727 744.727Z" />
<glyph glyph-name="MicOff" unicode="&#xEC54;" d="M0 970.351L53.6492 1024L325.394 752.255L325.394 885.212C325.394 926.323 358.925 959.854 400.036 959.854L623.964 959.854C665.075 959.854 698.606 926.323 698.606 885.212L698.606 437.358C698.606 421.03 693.503 405.285 684.61 393.039L737.093 340.556C759.69 366.506 773.248 400.328 773.248 437.358L773.248 586.642L847.891 586.642L847.891 437.358C847.891 379.772 825.44 327.727 789.576 288.073L1024 53.6492L970.351 0L0 970.351ZM176.109 437.358L176.109 586.642L250.752 586.642L250.752 437.358C250.752 354.989 317.667 288.073 400.036 288.073L579.645 288.073L651.954 215.763C642.77 214.597 633.44 213.431 623.964 213.431L549.321 213.431L549.321 138.788L698.606 138.788L698.606 64.1458L325.394 64.1458L325.394 138.788L474.679 138.788L474.679 213.431L400.036 213.431C276.556 213.431 176.109 313.877 176.109 437.358ZM325.394 437.358L325.394 542.323L400.036 467.681L400.036 437.358L430.36 437.358L505.002 362.715L400.036 362.715C358.925 362.715 325.394 396.246 325.394 437.358ZM623.964 885.212L400.036 885.212L400.036 677.613L623.964 453.686L623.964 885.212Z" />
<glyph glyph-name="MicOff2" unicode="&#xF781;" d="M0 970.351L53.6492 1024L325.394 752.255L325.394 885.212C325.394 926.323 358.925 959.854 400.036 959.854L623.964 959.854C665.075 959.854 698.606 926.323 698.606 885.212L698.606 437.358C698.606 421.03 693.503 405.285 684.61 393.039L737.093 340.556C759.69 366.506 773.248 400.328 773.248 437.358L773.248 586.642L847.891 586.642L847.891 437.358C847.891 379.772 825.44 327.727 789.576 288.073L1024 53.6492L970.351 0L0 970.351ZM176.109 437.358L176.109 586.642L250.752 586.642L250.752 437.358C250.752 354.989 317.667 288.073 400.036 288.073L579.645 288.073L651.954 215.763C642.77 214.597 633.44 213.431 623.964 213.431L549.321 213.431L549.321 138.788L698.606 138.788L698.606 64.1458L325.394 64.1458L325.394 138.788L474.679 138.788L474.679 213.431L400.036 213.431C276.556 213.431 176.109 313.877 176.109 437.358ZM325.394 437.358L325.394 542.323L400.036 467.681L400.036 437.358L430.36 437.358L505.002 362.715L400.036 362.715C358.925 362.715 325.394 396.246 325.394 437.358ZM623.964 885.212L400.036 885.212L400.036 677.613L623.964 453.686L623.964 885.212Z" />
<glyph glyph-name="Favorite" unicode="&#xE113;" d="M660.717 673.692L1024 635.326L752.654 390.766L828.408 33.4823L512 215.961L195.592 33.4823L271.346 390.766L0 635.326L363.283 673.692L512 1007.26L660.717 673.692Z" />
<glyph glyph-name="SolidStar" unicode="&#xE1CF;" d="M660.717 673.692L1024 635.326L752.654 390.766L828.408 33.4823L512 215.961L195.592 33.4823L271.346 390.766L0 635.326L363.283 673.692L512 1007.26L660.717 673.692Z" />
<glyph glyph-name="FavoriteStarFill" unicode="&#xE735;" d="M660.717 673.692L1024 635.326L752.654 390.766L828.408 33.4823L512 215.961L195.592 33.4823L271.346 390.766L0 635.326L363.283 673.692L512 1007.26L660.717 673.692Z" />
<glyph glyph-name="Battery1" unicode="&#xE851;" d="M0 196.923L0 827.077L945.231 827.077L945.231 630.154L1024 630.154L1024 393.846L945.231 393.846L945.231 196.923L0 196.923ZM866.462 748.308L78.7692 748.308L78.7692 275.692L866.462 275.692L866.462 748.308ZM157.538 354.462L157.538 669.538L315.077 669.538L315.077 354.462L157.538 354.462Z" />
<glyph glyph-name="Battery2" unicode="&#xE852;" d="M0 196.923L0 827.077L945.231 827.077L945.231 630.154L1024 630.154L1024 393.846L945.231 393.846L945.231 196.923L0 196.923ZM866.462 748.308L78.7692 748.308L78.7692 275.692L866.462 275.692L866.462 748.308ZM157.538 354.462L157.538 669.538L315.077 669.538L315.077 354.462L157.538 354.462Z" />
<glyph glyph-name="Battery3" unicode="&#xE853;" d="M0 196.923L0 827.077L945.231 827.077L945.231 630.154L1024 630.154L1024 393.846L945.231 393.846L945.231 196.923L0 196.923ZM866.462 748.308L78.7692 748.308L78.7692 275.692L866.462 275.692L866.462 748.308ZM157.538 354.462L157.538 669.538L315.077 669.538L315.077 354.462L157.538 354.462Z" />
<glyph glyph-name="Battery4" unicode="&#xE854;" d="M0 196.923L0 827.077L945.231 827.077L945.231 630.154L1024 630.154L1024 393.846L945.231 393.846L945.231 196.923L0 196.923ZM866.462 748.308L78.7692 748.308L78.7692 275.692L866.462 275.692L866.462 748.308ZM157.538 354.462L157.538 669.538L315.077 669.538L315.077 354.462L157.538 354.462Z" />
<glyph glyph-name="BandBattery1" unicode="&#xECBA;" d="M0 196.923L0 827.077L945.231 827.077L945.231 630.154L1024 630.154L1024 393.846L945.231 393.846L945.231 196.923L0 196.923ZM866.462 748.308L78.7692 748.308L78.7692 275.692L866.462 275.692L866.462 748.308ZM157.538 354.462L157.538 669.538L315.077 669.538L315.077 354.462L157.538 354.462Z" />
<glyph glyph-name="BandBattery2" unicode="&#xECBB;" d="M0 196.923L0 827.077L945.231 827.077L945.231 630.154L1024 630.154L1024 393.846L945.231 393.846L945.231 196.923L0 196.923ZM866.462 748.308L78.7692 748.308L78.7692 275.692L866.462 275.692L866.462 748.308ZM157.538 354.462L157.538 669.538L315.077 669.538L315.077 354.462L157.538 354.462Z" />
<glyph glyph-name="ActionCenterNotification" unicode="&#xE7E7;" d="M15.8043 130.311L15.8043 893.689L1008.2 893.689L1008.2 130.311L642.311 130.311L512 0L381.689 130.311L15.8043 130.311ZM931.858 206.649L931.858 817.351L92.1421 817.351L92.1421 206.649L413.298 206.649L512 107.946L610.702 206.649L931.858 206.649ZM244.818 321.156L244.818 397.493L626.507 397.493L626.507 321.156L244.818 321.156ZM244.818 473.831L244.818 550.169L779.182 550.169L779.182 473.831L244.818 473.831ZM244.818 626.507L244.818 702.844L779.182 702.844L779.182 626.507L244.818 626.507Z" />
<glyph glyph-name="MobActionCenter" unicode="&#xEC42;" d="M15.8043 130.311L15.8043 893.689L1008.2 893.689L1008.2 130.311L642.311 130.311L512 0L381.689 130.311L15.8043 130.311ZM931.858 206.649L931.858 817.351L92.1421 817.351L92.1421 206.649L413.298 206.649L512 107.946L610.702 206.649L931.858 206.649ZM244.818 321.156L244.818 397.493L626.507 397.493L626.507 321.156L244.818 321.156ZM244.818 473.831L244.818 550.169L779.182 550.169L779.182 473.831L244.818 473.831ZM244.818 626.507L244.818 702.844L779.182 702.844L779.182 626.507L244.818 626.507Z" />
<glyph glyph-name="Filter" unicode="&#xE16E;" d="M42.6667 924L42.6667 1024L981.333 1024L981.333 924L972 912L640 497.333L640 192L622.667 178.667L452 50.6667L384 0L384 497.333L52 912L42.6667 924ZM554.667 469.333L469.333 469.333L469.333 170.667L554.667 234.667L554.667 469.333ZM884 938.667L140 938.667L446.667 554.667L577.333 554.667L884 938.667Z" />
<glyph glyph-name="Filter" unicode="&#xE71C;" d="M42.6667 924L42.6667 1024L981.333 1024L981.333 924L972 912L640 497.333L640 192L622.667 178.667L452 50.6667L384 0L384 497.333L52 912L42.6667 924ZM554.667 469.333L469.333 469.333L469.333 170.667L554.667 234.667L554.667 469.333ZM884 938.667L140 938.667L446.667 554.667L577.333 554.667L884 938.667Z" />
<glyph glyph-name="Processing" unicode="&#xE9F5;" d="M197.679 469.026L197.679 512L276.259 512L276.259 467.799C300.201 462.58 322.763 453.986 342.561 440.787L372.029 470.254L427.281 415.002L397.813 385.535C412.24 364.355 422.062 340.259 427.281 314.321L471.482 315.549L473.938 236.969L427.281 235.741C421.909 210.724 411.779 187.549 397.813 166.983L427.281 137.516L372.029 82.2638L342.561 111.731C322.763 98.5324 300.201 89.9377 276.259 84.7194L276.259 40.518L197.679 40.518L197.679 83.4916C171.281 88.5563 146.724 98.3789 125.237 112.959L94.542 82.2638L38.0623 137.516L69.9856 169.439C56.6331 189.851 46.8105 212.412 41.7458 236.969L1.22781 236.969L1.22781 315.549L41.7458 315.549C46.8105 340.106 56.6331 362.667 69.9856 383.079L38.0623 415.002L94.542 470.254L125.237 439.559C146.724 454.139 171.281 463.962 197.679 469.026ZM747.741 467.799L747.741 512L826.321 512L826.321 466.571C849.65 461.352 871.904 452.297 891.396 439.559L922.091 470.254L977.343 415.002L946.647 384.307C960.767 363.281 972.278 339.952 977.343 314.321L1021.54 315.549L1024 236.969L977.343 235.741C971.971 210.571 961.995 187.549 947.875 166.983L977.343 137.516L922.091 82.2638L891.396 112.959C871.597 99.9137 850.11 89.9377 826.321 84.7194L826.321 40.518L747.741 40.518L747.741 84.7194C721.803 89.7841 696.633 98.6859 675.3 112.959L644.604 82.2638L588.125 137.516L620.048 169.439C606.695 189.698 596.873 212.566 591.808 236.969L551.29 236.969L551.29 315.549L591.808 315.549C596.873 339.952 606.695 362.82 620.048 383.079L588.125 415.002L644.604 470.254L675.3 439.559C696.633 453.832 721.803 462.734 747.741 467.799ZM352.384 276.259C352.384 341.794 300.048 394.129 234.513 394.129C168.978 394.129 116.643 341.794 116.643 276.259C116.643 210.724 168.978 158.388 234.513 158.388C300.048 158.388 352.384 210.724 352.384 276.259ZM902.446 276.259C902.446 341.794 850.11 394.129 784.576 394.129C719.041 394.129 666.705 341.794 666.705 276.259C666.705 210.724 719.041 158.388 784.576 158.388C850.11 158.388 902.446 210.724 902.446 276.259ZM472.71 939.281L472.71 983.482L551.29 983.482L551.29 939.281C575.233 934.062 597.794 925.468 617.592 912.269L647.06 941.736L702.312 886.484L672.844 857.017C686.964 836.144 697.094 812.508 702.312 787.031L747.741 787.031L747.741 708.451L702.312 708.451C697.094 682.974 686.964 659.338 672.844 638.465L702.312 608.998L647.06 553.746L617.592 583.213C597.794 570.014 575.233 561.42 551.29 556.201L551.29 512L472.71 512L472.71 556.201C446.772 561.266 421.602 570.168 400.269 584.441L369.573 553.746L313.094 608.998L345.017 640.921C331.664 661.18 321.842 684.048 316.777 708.451L276.259 708.451L276.259 787.031L316.777 787.031C321.842 811.434 331.664 834.302 345.017 854.561L313.094 886.484L369.573 941.736L400.269 911.041C421.602 925.314 446.772 934.216 472.71 939.281ZM627.415 747.741C627.415 813.276 575.079 865.612 509.544 865.612C444.01 865.612 391.674 813.276 391.674 747.741C391.674 682.206 444.01 629.87 509.544 629.87C575.079 629.87 627.415 682.206 627.415 747.741Z" />
<glyph glyph-name="CalculatorPercentage" unicode="&#xE94C;" d="M268.8 0L140.8 0L755.2 1024L883.2 1024L268.8 0ZM665.6 332.8C665.6 431.2 746.4 512 844.8 512C943.2 512 1024 431.2 1024 332.8L1024 179.2C1024 80.8 943.2 0 844.8 0C746.4 0 665.6 80.8 665.6 179.2L665.6 332.8ZM921.6 332.8C921.6 375.8 887.8 409.6 844.8 409.6C801.8 409.6 768 375.8 768 332.8L768 179.2C768 136.2 801.8 102.4 844.8 102.4C887.8 102.4 921.6 136.2 921.6 179.2L921.6 332.8ZM0 844.8C0 943.2 80.8 1024 179.2 1024C277.6 1024 358.4 943.2 358.4 844.8L358.4 691.2C358.4 592.8 277.6 512 179.2 512C80.8 512 0 592.8 0 691.2L0 844.8ZM256 844.8C256 887.8 222.2 921.6 179.2 921.6C136.2 921.6 102.4 887.8 102.4 844.8L102.4 691.2C102.4 648.2 136.2 614.4 179.2 614.4C222.2 614.4 256 648.2 256 691.2L256 844.8Z" />
<glyph glyph-name="PuncKey1" unicode="&#xE9B4;" d="M268.8 0L140.8 0L755.2 1024L883.2 1024L268.8 0ZM665.6 332.8C665.6 431.2 746.4 512 844.8 512C943.2 512 1024 431.2 1024 332.8L1024 179.2C1024 80.8 943.2 0 844.8 0C746.4 0 665.6 80.8 665.6 179.2L665.6 332.8ZM921.6 332.8C921.6 375.8 887.8 409.6 844.8 409.6C801.8 409.6 768 375.8 768 332.8L768 179.2C768 136.2 801.8 102.4 844.8 102.4C887.8 102.4 921.6 136.2 921.6 179.2L921.6 332.8ZM0 844.8C0 943.2 80.8 1024 179.2 1024C277.6 1024 358.4 943.2 358.4 844.8L358.4 691.2C358.4 592.8 277.6 512 179.2 512C80.8 512 0 592.8 0 691.2L0 844.8ZM256 844.8C256 887.8 222.2 921.6 179.2 921.6C136.2 921.6 102.4 887.8 102.4 844.8L102.4 691.2C102.4 648.2 136.2 614.4 179.2 614.4C222.2 614.4 256 648.2 256 691.2L256 844.8Z" />
<glyph glyph-name="Undo" unicode="&#xE10E;" d="M33.3333 628L374.667 969.333L436 908L168 640L725.333 640C889.333 640 1024 505.333 1024 341.333L1024 42.6667L938.667 42.6667L938.667 341.333C938.667 458.833 842.833 554.667 725.333 554.667L168 554.667L436 286.667L374.667 225.333L33.3333 566.667L4 597.333L33.3333 628Z" />
<glyph glyph-name="Undo" unicode="&#xE7A7;" d="M33.3333 628L374.667 969.333L436 908L168 640L725.333 640C889.333 640 1024 505.333 1024 341.333L1024 42.6667L938.667 42.6667L938.667 341.333C938.667 458.833 842.833 554.667 725.333 554.667L168 554.667L436 286.667L374.667 225.333L33.3333 566.667L4 597.333L33.3333 628Z" />
<glyph glyph-name="RevToggleKey" unicode="&#xE845;" d="M33.3333 628L374.667 969.333L436 908L168 640L725.333 640C889.333 640 1024 505.333 1024 341.333L1024 42.6667L938.667 42.6667L938.667 341.333C938.667 458.833 842.833 554.667 725.333 554.667L168 554.667L436 286.667L374.667 225.333L33.3333 566.667L4 597.333L33.3333 628Z" />
<glyph glyph-name="Mail" unicode="&#xE119;" d="M0 118.154L0 827.077L1024 827.077L1024 118.154L0 118.154ZM489.846 439.385L78.7692 713.846L78.7692 196.923L945.231 196.923L945.231 713.846L534.154 439.385L512 425.846L489.846 439.385ZM512 520.615L854.154 748.308L169.846 748.308L512 520.615Z" />
<glyph glyph-name="Mail" unicode="&#xE715;" d="M0 118.154L0 827.077L1024 827.077L1024 118.154L0 118.154ZM489.846 439.385L78.7692 713.846L78.7692 196.923L945.231 196.923L945.231 713.846L534.154 439.385L512 425.846L489.846 439.385ZM512 520.615L854.154 748.308L169.846 748.308L512 520.615Z" />
<glyph glyph-name="MailBadge12" unicode="&#xEDB3;" d="M0 118.154L0 827.077L1024 827.077L1024 118.154L0 118.154ZM489.846 439.385L78.7692 713.846L78.7692 196.923L945.231 196.923L945.231 713.846L534.154 439.385L512 425.846L489.846 439.385ZM512 520.615L854.154 748.308L169.846 748.308L512 520.615Z" />
<glyph glyph-name="Design" unicode="&#xEB3C;" d="M201.846 995.692L228.923 1024L512 740.923L706.462 935.385C738.154 967.077 779.538 983.385 820.923 983.385C862.308 983.385 903.692 967.077 935.385 935.385C998.769 872 998.769 769.846 935.385 706.462L740.923 512L1022.77 230.154L994.462 203.077L820.923 29.5385L793.846 1.23074L512 283.077L315.077 86.1538L302.769 83.6923L86.1538 40.6154L28.3077 28.3077L40.6154 86.1538L83.6923 302.769L86.1538 315.077L283.077 512L0 795.077L28.3077 822.154L201.846 995.692ZM779.077 363.077L685.538 456.615L567.385 338.462L792.615 113.231L910.769 231.385L835.692 306.462L776.615 247.385L720 304L779.077 363.077ZM259.692 155.077C239.846 202.308 202.308 239.846 155.077 259.692L129.231 129.231L259.692 155.077ZM798.769 681.846L681.846 798.769L205.538 322.462C255.538 296.462 296.462 255.538 322.462 205.538L798.769 681.846ZM305.231 834.462L228.923 912L110.769 795.077L338.462 567.385L455.385 684.308L361.846 777.846L304 720L247.385 776.615L305.231 834.462ZM880 880C862.154 897.846 841.385 907.077 820.923 907.077C800.462 907.077 780.923 897.846 763.077 880L737.231 854.154L854.154 737.231L880 763.077C915.538 798.615 915.538 844.462 880 880Z" />
<glyph glyph-name="Battery5" unicode="&#xE855;" d="M0 196.923L0 827.077L945.231 827.077L945.231 630.154L1024 630.154L1024 393.846L945.231 393.846L945.231 196.923L0 196.923ZM866.462 275.692L866.462 748.308L78.7692 748.308L78.7692 275.692L866.462 275.692ZM157.538 354.462L157.538 669.538L472.615 669.538L472.615 354.462L157.538 354.462Z" />
<glyph glyph-name="BandBattery3" unicode="&#xECBC;" d="M0 196.923L0 827.077L945.231 827.077L945.231 630.154L1024 630.154L1024 393.846L945.231 393.846L945.231 196.923L0 196.923ZM866.462 275.692L866.462 748.308L78.7692 748.308L78.7692 275.692L866.462 275.692ZM157.538 354.462L157.538 669.538L472.615 669.538L472.615 354.462L157.538 354.462Z" />
<glyph glyph-name="Headset" unicode="&#xE95B;" d="M78.7692 590.769C78.7692 828.923 273.846 1024 512 1024C750.154 1024 945.231 828.923 945.231 590.769L945.231 354.462C945.231 289.692 891.846 236.308 827.077 236.308L708.923 236.308L708.923 590.769L866.462 590.769C866.462 785.846 707.077 945.231 512 945.231C316.923 945.231 157.538 785.846 157.538 590.769L315.077 590.769L315.077 236.308L236.308 236.308C236.308 171.077 289.231 118.154 354.462 118.154L404.923 118.154C418.615 141.692 443.538 157.538 472.615 157.538L551.385 157.538C594.769 157.538 630.154 122.154 630.154 78.7692C630.154 35.3846 594.769 0 551.385 0L472.615 0C443.538 0 418.615 15.8461 404.923 39.3846L354.462 39.3846C246.308 39.3846 157.538 128.154 157.538 236.308L157.538 243.692C112 260.154 78.7692 303.538 78.7692 354.462L78.7692 590.769ZM236.308 512L157.538 512L157.538 354.462C157.538 332.615 175.077 315.077 196.923 315.077L236.308 315.077L236.308 512ZM866.462 354.462L866.462 512L787.692 512L787.692 315.077L827.077 315.077C848.923 315.077 866.462 332.615 866.462 354.462Z" />
<glyph glyph-name="Train" unicode="&#xE7C0;" d="M331.077 945.231C348.462 988.923 383.692 1024 433.231 1024L590.769 1024C640.308 1024 675.538 988.923 692.923 945.231L748.308 945.231C856.615 945.231 945.231 856.615 945.231 748.308L945.231 315.077C945.231 219.538 888.154 136.923 806.154 99.6923L905.846 0L813.538 0L733.538 80C725.692 79.2307 717.077 78.7692 708.923 78.7692L315.077 78.7692C306.923 78.7692 298.308 79.2307 290.462 80L210.462 0L118.154 0L217.846 99.6923C135.846 136.923 78.7692 219.538 78.7692 315.077L78.7692 748.308C78.7692 856.615 167.385 945.231 275.692 945.231L331.077 945.231ZM866.462 433.231L157.538 433.231L157.538 315.077C157.538 227.692 227.692 157.538 315.077 157.538L708.923 157.538C796.308 157.538 866.462 227.692 866.462 315.077L866.462 433.231ZM433.231 315.077C433.231 358.615 468.462 393.846 512 393.846C555.538 393.846 590.769 358.615 590.769 315.077C590.769 271.538 555.538 236.308 512 236.308C468.462 236.308 433.231 271.538 433.231 315.077ZM866.462 708.923L157.538 708.923L157.538 512L866.462 512L866.462 708.923ZM590.769 945.231L433.231 945.231C410.923 945.231 393.846 928.154 393.846 905.846L393.846 866.462L275.692 866.462C223.692 866.462 179.692 833.846 163.692 787.692L860.308 787.692C844.308 833.846 800.308 866.462 748.308 866.462L630.154 866.462L630.154 905.846C630.154 928.154 613.077 945.231 590.769 945.231Z" />
<glyph glyph-name="FolderOpen" unicode="&#xE838;" d="M129.359 101.096L129.359 964.212L894.641 964.212L894.641 602.225L884.858 591.355L825.07 531.567L825.07 94.5732L616.357 94.5732L616.357 0L573.962 8.69635L156.535 95.6603L129.359 101.096ZM477.214 815.287L198.93 884.858L198.93 157.622L546.786 84.7898L546.786 444.603L486.998 504.391L477.214 515.261L477.214 815.287ZM825.07 894.641L446.777 894.641L546.786 869.639L546.786 544.611L606.573 484.824L616.357 473.953L616.357 164.144L755.499 164.144L755.499 560.917L765.282 571.788L825.07 631.575L825.07 894.641Z" />
<glyph glyph-name="TreeFolderFolderOpen" unicode="&#xED43;" d="M129.359 101.096L129.359 964.212L894.641 964.212L894.641 602.225L884.858 591.355L825.07 531.567L825.07 94.5732L616.357 94.5732L616.357 0L573.962 8.69635L156.535 95.6603L129.359 101.096ZM477.214 815.287L198.93 884.858L198.93 157.622L546.786 84.7898L546.786 444.603L486.998 504.391L477.214 515.261L477.214 815.287ZM825.07 894.641L446.777 894.641L546.786 869.639L546.786 544.611L606.573 484.824L616.357 473.953L616.357 164.144L755.499 164.144L755.499 560.917L765.282 571.788L825.07 631.575L825.07 894.641Z" />
<glyph glyph-name="Video" unicode="&#xE116;" d="M0 219.429L0 804.571L804.571 804.571L804.571 681.143L1024 790.857L1024 233.143L804.571 342.857L804.571 219.429L0 219.429ZM731.429 731.429L73.1428 731.429L73.1428 292.571L731.429 292.571L731.429 731.429ZM950.857 352L950.857 672L804.571 598.857L804.571 425.143L950.857 352Z" />
<glyph glyph-name="Video" unicode="&#xE714;" d="M0 219.429L0 804.571L804.571 804.571L804.571 681.143L1024 790.857L1024 233.143L804.571 342.857L804.571 219.429L0 219.429ZM731.429 731.429L73.1428 731.429L73.1428 292.571L731.429 292.571L731.429 731.429ZM950.857 352L950.857 672L804.571 598.857L804.571 425.143L950.857 352Z" />
<glyph glyph-name="PresenceChickletVideo" unicode="&#xE979;" d="M0 219.429L0 804.571L804.571 804.571L804.571 681.143L1024 790.857L1024 233.143L804.571 342.857L804.571 219.429L0 219.429ZM731.429 731.429L73.1428 731.429L73.1428 292.571L731.429 292.571L731.429 731.429ZM950.857 352L950.857 672L804.571 598.857L804.571 425.143L950.857 352Z" />
<glyph glyph-name="VideoSolid" unicode="&#xEA0C;" d="M0 219.429L0 804.571L804.571 804.571L804.571 681.143L1024 790.857L1024 233.143L804.571 342.857L804.571 219.429L0 219.429ZM731.429 731.429L73.1428 731.429L73.1428 292.571L731.429 292.571L731.429 731.429ZM950.857 352L950.857 672L804.571 598.857L804.571 425.143L950.857 352Z" />
<glyph glyph-name="Folder" unicode="&#xE188;" d="M118.154 0L118.154 1024L984.615 1024L984.615 614.154L973.538 601.846L905.846 534.154L905.846 0L118.154 0ZM748.308 945.231L196.923 945.231L196.923 78.7692L827.077 78.7692L827.077 534.154L759.385 601.846L748.308 614.154L748.308 945.231ZM905.846 647.385L905.846 945.231L827.077 945.231L827.077 647.385L866.462 608L905.846 647.385Z" />
<glyph glyph-name="Folder" unicode="&#xE8B7;" d="M118.154 0L118.154 1024L984.615 1024L984.615 614.154L973.538 601.846L905.846 534.154L905.846 0L118.154 0ZM748.308 945.231L196.923 945.231L196.923 78.7692L827.077 78.7692L827.077 534.154L759.385 601.846L748.308 614.154L748.308 945.231ZM905.846 647.385L905.846 945.231L827.077 945.231L827.077 647.385L866.462 608L905.846 647.385Z" />
<glyph glyph-name="TreeFolderFolder" unicode="&#xED41;" d="M118.154 0L118.154 1024L984.615 1024L984.615 614.154L973.538 601.846L905.846 534.154L905.846 0L118.154 0ZM748.308 945.231L196.923 945.231L196.923 78.7692L827.077 78.7692L827.077 534.154L759.385 601.846L748.308 614.154L748.308 945.231ZM905.846 647.385L905.846 945.231L827.077 945.231L827.077 647.385L866.462 608L905.846 647.385Z" />
<glyph glyph-name="Battery0" unicode="&#xE850;" d="M0 196.923L0 827.077L945.231 827.077L945.231 630.154L1024 630.154L1024 393.846L945.231 393.846L945.231 196.923L0 196.923ZM866.462 748.308L78.7692 748.308L78.7692 275.692L866.462 275.692L866.462 748.308Z" />
<glyph glyph-name="BandBattery0" unicode="&#xECB9;" d="M0 196.923L0 827.077L945.231 827.077L945.231 630.154L1024 630.154L1024 393.846L945.231 393.846L945.231 196.923L0 196.923ZM866.462 748.308L78.7692 748.308L78.7692 275.692L866.462 275.692L866.462 748.308Z" />
<glyph glyph-name="SettingsBattery" unicode="&#xEE63;" d="M0 196.923L0 827.077L945.231 827.077L945.231 630.154L1024 630.154L1024 393.846L945.231 393.846L945.231 196.923L0 196.923ZM866.462 748.308L78.7692 748.308L78.7692 275.692L866.462 275.692L866.462 748.308Z" />
<glyph glyph-name="Flag" unicode="&#xE129;" d="M78.7692 0L78.7692 945.231L551.385 945.231L551.385 827.077L945.231 827.077L945.231 275.692L472.615 275.692L472.615 393.846L157.538 393.846L157.538 0L78.7692 0ZM866.462 748.308L551.385 748.308L551.385 354.462L866.462 354.462L866.462 748.308ZM472.615 866.462L157.538 866.462L157.538 472.615L472.615 472.615L472.615 866.462Z" />
<glyph glyph-name="Flag" unicode="&#xE7C1;" d="M78.7692 0L78.7692 945.231L551.385 945.231L551.385 827.077L945.231 827.077L945.231 275.692L472.615 275.692L472.615 393.846L157.538 393.846L157.538 0L78.7692 0ZM866.462 748.308L551.385 748.308L551.385 354.462L866.462 354.462L866.462 748.308ZM472.615 866.462L157.538 866.462L157.538 472.615L472.615 472.615L472.615 866.462Z" />
<glyph glyph-name="EndPoint" unicode="&#xE81B;" d="M78.7692 0L78.7692 945.231L551.385 945.231L551.385 827.077L945.231 827.077L945.231 275.692L472.615 275.692L472.615 393.846L157.538 393.846L157.538 0L78.7692 0ZM866.462 748.308L551.385 748.308L551.385 354.462L866.462 354.462L866.462 748.308ZM472.615 866.462L157.538 866.462L157.538 472.615L472.615 472.615L472.615 866.462Z" />
<glyph glyph-name="Calculator" unicode="&#xE1D0;" d="M118.154 0L118.154 1024L905.846 1024L905.846 0L118.154 0ZM827.077 945.231L196.923 945.231L196.923 78.7692L827.077 78.7692L827.077 945.231ZM315.077 157.538L315.077 236.308L393.846 236.308L393.846 157.538L315.077 157.538ZM472.615 157.538L472.615 236.308L551.385 236.308L551.385 157.538L472.615 157.538ZM630.154 157.538L630.154 236.308L708.923 236.308L708.923 157.538L630.154 157.538ZM315.077 315.077L315.077 393.846L393.846 393.846L393.846 315.077L315.077 315.077ZM472.615 315.077L472.615 393.846L551.385 393.846L551.385 315.077L472.615 315.077ZM630.154 315.077L630.154 393.846L708.923 393.846L708.923 315.077L630.154 315.077ZM315.077 472.615L315.077 551.385L393.846 551.385L393.846 472.615L315.077 472.615ZM472.615 472.615L472.615 551.385L551.385 551.385L551.385 472.615L472.615 472.615ZM630.154 472.615L630.154 551.385L708.923 551.385L708.923 472.615L630.154 472.615ZM275.692 630.154L275.692 866.462L748.308 866.462L748.308 630.154L275.692 630.154ZM669.538 787.692L354.462 787.692L354.462 708.923L669.538 708.923L669.538 787.692Z" />
<glyph glyph-name="Calculator" unicode="&#xE8EF;" d="M118.154 0L118.154 1024L905.846 1024L905.846 0L118.154 0ZM827.077 945.231L196.923 945.231L196.923 78.7692L827.077 78.7692L827.077 945.231ZM315.077 157.538L315.077 236.308L393.846 236.308L393.846 157.538L315.077 157.538ZM472.615 157.538L472.615 236.308L551.385 236.308L551.385 157.538L472.615 157.538ZM630.154 157.538L630.154 236.308L708.923 236.308L708.923 157.538L630.154 157.538ZM315.077 315.077L315.077 393.846L393.846 393.846L393.846 315.077L315.077 315.077ZM472.615 315.077L472.615 393.846L551.385 393.846L551.385 315.077L472.615 315.077ZM630.154 315.077L630.154 393.846L708.923 393.846L708.923 315.077L630.154 315.077ZM315.077 472.615L315.077 551.385L393.846 551.385L393.846 472.615L315.077 472.615ZM472.615 472.615L472.615 551.385L551.385 551.385L551.385 472.615L472.615 472.615ZM630.154 472.615L630.154 551.385L708.923 551.385L708.923 472.615L630.154 472.615ZM275.692 630.154L275.692 866.462L748.308 866.462L748.308 630.154L275.692 630.154ZM669.538 787.692L354.462 787.692L354.462 708.923L669.538 708.923L669.538 787.692Z" />
<glyph glyph-name="RightQuote" unicode="&#xE849;" d="M0 597.333C0 738.167 115.167 853.333 256 853.333L256 768C161.333 768 85.3333 692 85.3333 597.333L426.667 597.333L426.667 170.667L0 170.667L0 597.333ZM597.333 597.333C597.333 738.167 712.5 853.333 853.333 853.333L853.333 768C758.667 768 682.667 692 682.667 597.333L1024 597.333L1024 170.667L597.333 170.667L597.333 597.333ZM341.333 512L85.3333 512L85.3333 256L341.333 256L341.333 512ZM938.667 512L682.667 512L682.667 256L938.667 256L938.667 512Z" />
<glyph glyph-name="LeftDoubleQuote" unicode="&#xE9B2;" d="M0 597.333C0 738.167 115.167 853.333 256 853.333L256 768C161.333 768 85.3333 692 85.3333 597.333L426.667 597.333L426.667 170.667L0 170.667L0 597.333ZM597.333 597.333C597.333 738.167 712.5 853.333 853.333 853.333L853.333 768C758.667 768 682.667 692 682.667 597.333L1024 597.333L1024 170.667L597.333 170.667L597.333 597.333ZM341.333 512L85.3333 512L85.3333 256L341.333 256L341.333 512ZM938.667 512L682.667 512L682.667 256L938.667 256L938.667 512Z" />
<glyph glyph-name="CollapseContentSingle" unicode="&#xF166;" d="M0 0L0 1024L1024 1024L1024 0L0 0ZM930.909 930.909L93.0909 930.909L93.0909 93.0909L930.909 93.0909L930.909 930.909ZM279.273 465.455L279.273 558.545L744.727 558.545L744.727 465.455L279.273 465.455Z" />
<glyph glyph-name="EmojiTabFoodPlants" unicode="&#xED56;" d="M346.585 988.554L359.713 1024L396.472 1014.81C396.472 1014.81 632.944 955.569 794.256 794.256C955.569 632.944 1014.81 396.472 1014.81 396.472L1024 359.713L988.554 346.585L68.2667 10.5026L43.3231 1.31281L1.31281 43.3231L10.5026 68.2667L346.585 988.554ZM414.851 758.81C391.877 768 373.826 773.415 359.713 777.19L322.954 677.415C359.221 668.062 385.969 635.241 385.969 596.021C385.969 549.579 348.39 512 301.949 512C288.656 512 276.349 515.774 265.19 521.19L118.154 118.154L240.246 162.79C239.426 166.892 238.933 171.487 238.933 175.918C238.933 210.708 267.159 238.933 301.949 238.933C325.908 238.933 346.421 225.805 357.087 206.113L777.19 358.4C773.415 372.513 768.328 391.221 758.81 414.851C757.169 418.954 754.051 423.713 752.246 427.979C737.641 402.872 711.056 385.969 680.041 385.969C633.6 385.969 596.021 423.549 596.021 469.99C596.021 515.446 632.287 552.533 677.415 554.01C660.677 575.508 642.133 597.169 619.651 619.651C542.851 696.451 469.005 736.985 414.851 758.81ZM364.964 385.969C364.964 420.759 393.19 448.985 427.979 448.985C462.769 448.985 490.995 420.759 490.995 385.969C490.995 351.18 462.769 322.954 427.979 322.954C393.19 322.954 364.964 351.18 364.964 385.969ZM733.867 733.867C614.072 853.662 458.667 905.518 410.913 920.287L387.282 855.959C404.349 851.364 423.713 845.292 446.359 836.267C509.867 810.667 593.231 764.226 678.728 678.728C764.226 593.231 811.979 509.867 837.579 446.359C846.605 423.877 851.692 404.185 855.959 387.282L920.287 410.913C905.518 458.667 853.662 614.072 733.867 733.867Z" />
<glyph glyph-name="Package" unicode="&#xE7B8;" d="M0 725.333L0 981.333L1024 981.333L1024 725.333L981.333 725.333L981.333 42.6667L42.6667 42.6667L42.6667 725.333L0 725.333ZM896 725.333L128 725.333L128 128L896 128L896 725.333ZM337.333 593.333C335.167 616.833 352.5 637.833 376 640L640 640C655.333 640.167 669.667 632.167 677.5 618.833C685.167 605.5 685.167 589.167 677.5 575.833C669.667 562.5 655.333 554.5 640 554.667L384 554.667C360.5 552.5 339.5 569.833 337.333 593.333ZM938.667 896L85.3333 896L85.3333 810.667L938.667 810.667L938.667 896Z" />
<glyph glyph-name="PlayerSettings" unicode="&#xEF58;" d="M771.188 380.813L771.188 448L835.188 448L835.188 380.813C854.388 377.613 873.625 367.975 889.625 358.375L937.625 406.375L982.375 361.625L934.375 313.625C943.975 294.425 953.612 275.2 956.813 256L1024 256L1024 192L950.375 192C947.175 169.6 940.8 150.375 928 134.375L976 86.375L931.188 41.625L883.188 89.625C867.188 80.025 848.013 70.3875 828.813 67.1875L828.813 0L764.813 0L764.813 67.1875C745.612 70.3875 726.375 80.025 710.375 89.625L662.375 41.625L617.625 86.375L665.625 134.375C656.025 153.575 646.388 172.8 643.188 192L576 192L576 256L649.625 256C652.825 278.4 659.2 297.625 672 313.625L624 361.625L668.813 406.375L716.813 358.375C732.813 367.975 751.987 377.613 771.188 380.813ZM896 224C896 278.4 854.4 320 800 320C745.6 320 704 278.4 704 224C704 169.6 745.6 128 800 128C854.4 128 896 169.6 896 224ZM288 640C288 764.8 387.2 864 512 864C636.8 864 736 764.8 736 640C736 515.2 636.8 416 512 416C371.2 416 256 300.8 256 160L192 160C192 291.406 272.32 404.885 386.25 454C326.719 494.031 288 562 288 640ZM788.25 253.25C792 255 796 256 800 256C816 256 832 240 832 224C832 208 816 192 800 192C796 192 792 193 788.25 194.75C777 200 768 212 768 224C768 228 769 232 770.75 235.75C772.5 239.5 775 243 778 246C781 249 784.5 251.5 788.25 253.25ZM672 640C672 729.6 601.6 800 512 800C422.4 800 352 729.6 352 640C352 550.4 422.4 480 512 480C601.6 480 672 550.4 672 640Z" />
<glyph glyph-name="Warning" unicode="&#xE7BA;" d="M479.344 933.03L512 989.011L544.656 933.03L992.51 157.449L1024 101.467L0 101.467L31.4897 157.449L479.344 933.03ZM894.542 176.109L512 839.727L129.458 176.109L894.542 176.109ZM474.679 250.752L474.679 325.394L549.321 325.394L549.321 250.752L474.679 250.752ZM474.679 362.715L474.679 586.642L549.321 586.642L549.321 362.715L474.679 362.715Z" />
<glyph glyph-name="IncidentTriangle" unicode="&#xE814;" d="M479.344 933.03L512 989.011L544.656 933.03L992.51 157.449L1024 101.467L0 101.467L31.4897 157.449L479.344 933.03ZM894.542 176.109L512 839.727L129.458 176.109L894.542 176.109ZM474.679 250.752L474.679 325.394L549.321 325.394L549.321 250.752L474.679 250.752ZM474.679 362.715L474.679 586.642L549.321 586.642L549.321 362.715L474.679 362.715Z" />
<glyph glyph-name="StatusTriangleExclamation" unicode="&#xF13B;" d="M479.344 933.03L512 989.011L544.656 933.03L992.51 157.449L1024 101.467L0 101.467L31.4897 157.449L479.344 933.03ZM894.542 176.109L512 839.727L129.458 176.109L894.542 176.109ZM474.679 250.752L474.679 325.394L549.321 325.394L549.321 250.752L474.679 250.752ZM474.679 362.715L474.679 586.642L549.321 586.642L549.321 362.715L474.679 362.715Z" />
<glyph glyph-name="Courthouse" unicode="&#xEC08;" d="M24.6154 785.231L512 988.308L999.385 785.231L1024 774.154L1024 669.538L945.231 669.538L945.231 236.308L1024 236.308L1024 39.3846L0 39.3846L0 236.308L78.7692 236.308L78.7692 669.538L0 669.538L0 774.154L24.6154 785.231ZM945.231 157.538L78.7692 157.538L78.7692 118.154L945.231 118.154L945.231 157.538ZM236.308 669.538L157.538 669.538L157.538 236.308L236.308 236.308L236.308 669.538ZM393.846 669.538L315.077 669.538L315.077 236.308L393.846 236.308L393.846 669.538ZM551.385 669.538L472.615 669.538L472.615 236.308L551.385 236.308L551.385 669.538ZM708.923 669.538L630.154 669.538L630.154 236.308L708.923 236.308L708.923 669.538ZM866.462 669.538L787.692 669.538L787.692 236.308L866.462 236.308L866.462 669.538ZM881.231 748.308L512 902.154L142.769 748.308L881.231 748.308Z" />
<glyph glyph-name="TouchPointer" unicode="&#xE1E3;" d="M292.571 914.286C292.571 974.429 342.143 1024 402.286 1024C462.429 1024 512 974.429 512 914.286L512 761.143C523.571 765.286 535.714 768 548.571 768C576.571 768 602.286 757 621.714 739.429C641.143 757 666.857 768 694.857 768C745.857 768 789.143 732.143 801.143 684.571C814.571 690.571 829 694.857 844.571 694.857C904.714 694.857 954.286 645.286 954.286 585.143L954.286 299.429C954.286 133.571 820.714 0 654.857 0L592 0C521.286 0 458.429 24.7143 409.143 61.7143L408 64L405.714 65.1428L106.286 361.143L106.286 362.286C64.1428 404.429 64.1428 473.286 106.286 515.429C148.429 557.571 217.286 557.571 259.429 515.429L268.571 507.429L292.571 482.286L292.571 914.286ZM438.857 914.286C438.857 934.571 422.571 950.857 402.286 950.857C382 950.857 365.714 934.571 365.714 914.286L365.714 306.286L208 464C191.714 480.286 174 480.286 157.714 464C141.429 447.714 141.429 430 157.714 413.714L453.714 121.143C492.143 92.2857 538.429 73.1428 592 73.1428L654.857 73.1428C781.571 73.1428 881.143 172.714 881.143 299.429L881.143 585.143C881.143 605.429 864.857 621.714 844.571 621.714C824.286 621.714 808 605.429 808 585.143L808 512L731.429 512L731.429 658.286C731.429 678.571 715.143 694.857 694.857 694.857C674.571 694.857 658.286 678.571 658.286 658.286L658.286 512L585.143 512L585.143 658.286C585.143 678.571 568.857 694.857 548.571 694.857C528.286 694.857 512 678.571 512 658.286L512 512L438.857 512L438.857 914.286Z" />
<glyph glyph-name="TouchPointer" unicode="&#xE7C9;" d="M292.571 914.286C292.571 974.429 342.143 1024 402.286 1024C462.429 1024 512 974.429 512 914.286L512 761.143C523.571 765.286 535.714 768 548.571 768C576.571 768 602.286 757 621.714 739.429C641.143 757 666.857 768 694.857 768C745.857 768 789.143 732.143 801.143 684.571C814.571 690.571 829 694.857 844.571 694.857C904.714 694.857 954.286 645.286 954.286 585.143L954.286 299.429C954.286 133.571 820.714 0 654.857 0L592 0C521.286 0 458.429 24.7143 409.143 61.7143L408 64L405.714 65.1428L106.286 361.143L106.286 362.286C64.1428 404.429 64.1428 473.286 106.286 515.429C148.429 557.571 217.286 557.571 259.429 515.429L268.571 507.429L292.571 482.286L292.571 914.286ZM438.857 914.286C438.857 934.571 422.571 950.857 402.286 950.857C382 950.857 365.714 934.571 365.714 914.286L365.714 306.286L208 464C191.714 480.286 174 480.286 157.714 464C141.429 447.714 141.429 430 157.714 413.714L453.714 121.143C492.143 92.2857 538.429 73.1428 592 73.1428L654.857 73.1428C781.571 73.1428 881.143 172.714 881.143 299.429L881.143 585.143C881.143 605.429 864.857 621.714 844.571 621.714C824.286 621.714 808 605.429 808 585.143L808 512L731.429 512L731.429 658.286C731.429 678.571 715.143 694.857 694.857 694.857C674.571 694.857 658.286 678.571 658.286 658.286L658.286 512L585.143 512L585.143 658.286C585.143 678.571 568.857 694.857 548.571 694.857C528.286 694.857 512 678.571 512 658.286L512 512L438.857 512L438.857 914.286Z" />
<glyph glyph-name="PointerHand" unicode="&#xF271;" d="M292.571 914.286C292.571 974.429 342.143 1024 402.286 1024C462.429 1024 512 974.429 512 914.286L512 761.143C523.571 765.286 535.714 768 548.571 768C576.571 768 602.286 757 621.714 739.429C641.143 757 666.857 768 694.857 768C745.857 768 789.143 732.143 801.143 684.571C814.571 690.571 829 694.857 844.571 694.857C904.714 694.857 954.286 645.286 954.286 585.143L954.286 299.429C954.286 133.571 820.714 0 654.857 0L592 0C521.286 0 458.429 24.7143 409.143 61.7143L408 64L405.714 65.1428L106.286 361.143L106.286 362.286C64.1428 404.429 64.1428 473.286 106.286 515.429C148.429 557.571 217.286 557.571 259.429 515.429L268.571 507.429L292.571 482.286L292.571 914.286ZM438.857 914.286C438.857 934.571 422.571 950.857 402.286 950.857C382 950.857 365.714 934.571 365.714 914.286L365.714 306.286L208 464C191.714 480.286 174 480.286 157.714 464C141.429 447.714 141.429 430 157.714 413.714L453.714 121.143C492.143 92.2857 538.429 73.1428 592 73.1428L654.857 73.1428C781.571 73.1428 881.143 172.714 881.143 299.429L881.143 585.143C881.143 605.429 864.857 621.714 844.571 621.714C824.286 621.714 808 605.429 808 585.143L808 512L731.429 512L731.429 658.286C731.429 678.571 715.143 694.857 694.857 694.857C674.571 694.857 658.286 678.571 658.286 658.286L658.286 512L585.143 512L585.143 658.286C585.143 678.571 568.857 694.857 548.571 694.857C528.286 694.857 512 678.571 512 658.286L512 512L438.857 512L438.857 914.286Z" />
<glyph glyph-name="Emoji" unicode="&#xE11D;" d="M0 512C0 794.309 229.691 1024 512 1024C794.309 1024 1024 794.309 1024 512C1024 229.691 794.309 0 512 0C229.691 0 0 229.691 0 512ZM945.231 512C945.231 750.868 750.868 945.231 512 945.231C273.132 945.231 78.7692 750.868 78.7692 512C78.7692 273.132 273.132 78.7692 512 78.7692C750.868 78.7692 945.231 273.132 945.231 512ZM512 196.923C299.52 196.923 236.308 393.846 236.308 393.846L787.692 393.846C787.692 393.846 724.48 196.923 512 196.923ZM172.923 622C172.923 622 232.606 669.538 315.077 669.538C397.548 669.538 457.229 622 457.308 622L409.308 559.538C409.308 559.538 366.708 590.769 315.154 590.769C263.599 590.769 220.923 559.538 220.923 559.538L172.923 622ZM566.769 622C566.769 622 626.452 669.538 708.923 669.538C791.394 669.538 851.075 622 851.154 622L803.154 559.538C803.154 559.538 760.554 590.769 709 590.769C657.446 590.769 614.769 559.538 614.769 559.538L566.769 622Z" />
<glyph glyph-name="Emoji" unicode="&#xE899;" d="M0 512C0 794.309 229.691 1024 512 1024C794.309 1024 1024 794.309 1024 512C1024 229.691 794.309 0 512 0C229.691 0 0 229.691 0 512ZM945.231 512C945.231 750.868 750.868 945.231 512 945.231C273.132 945.231 78.7692 750.868 78.7692 512C78.7692 273.132 273.132 78.7692 512 78.7692C750.868 78.7692 945.231 273.132 945.231 512ZM512 196.923C299.52 196.923 236.308 393.846 236.308 393.846L787.692 393.846C787.692 393.846 724.48 196.923 512 196.923ZM172.923 622C172.923 622 232.606 669.538 315.077 669.538C397.548 669.538 457.229 622 457.308 622L409.308 559.538C409.308 559.538 366.708 590.769 315.154 590.769C263.599 590.769 220.923 559.538 220.923 559.538L172.923 622ZM566.769 622C566.769 622 626.452 669.538 708.923 669.538C791.394 669.538 851.075 622 851.154 622L803.154 559.538C803.154 559.538 760.554 590.769 709 590.769C657.446 590.769 614.769 559.538 614.769 559.538L566.769 622Z" />
<glyph glyph-name="Robot" unicode="&#xE99A;" d="M443.733 955.733C443.733 993.467 474.267 1024 512 1024C549.733 1024 580.267 993.467 580.267 955.733C580.267 930.533 566.533 908.933 546.133 897.067L546.133 819.2L716.8 819.2C810.667 819.2 887.467 742.4 887.467 648.533L887.467 580.267L989.867 580.267L989.867 307.2L887.467 307.2L887.467 136.533L136.533 136.533L136.533 307.2L34.1333 307.2L34.1333 580.267L136.533 580.267L136.533 648.533C136.533 742.4 213.333 819.2 307.2 819.2L477.867 819.2L477.867 897.067C457.467 908.933 443.733 930.533 443.733 955.733ZM716.8 750.933L307.2 750.933C250.267 750.933 204.8 705.467 204.8 648.533L204.8 204.8L273.067 204.8L273.067 375.467L750.933 375.467L750.933 204.8L819.2 204.8L819.2 648.533C819.2 705.467 773.733 750.933 716.8 750.933ZM409.6 307.2L341.333 307.2L341.333 204.8L409.6 204.8L409.6 307.2ZM546.133 307.2L477.867 307.2L477.867 204.8L546.133 204.8L546.133 307.2ZM682.667 307.2L614.4 307.2L614.4 204.8L682.667 204.8L682.667 307.2ZM136.533 512L102.4 512L102.4 375.467L136.533 375.467L136.533 512ZM921.6 512L887.467 512L887.467 375.467L921.6 375.467L921.6 512ZM307.2 546.133C307.2 583.867 337.733 614.4 375.467 614.4C413.2 614.4 443.733 583.867 443.733 546.133C443.733 508.4 413.2 477.867 375.467 477.867C337.733 477.867 307.2 508.4 307.2 546.133ZM580.267 546.133C580.267 583.867 610.8 614.4 648.533 614.4C686.267 614.4 716.8 583.867 716.8 546.133C716.8 508.4 686.267 477.867 648.533 477.867C610.8 477.867 580.267 508.4 580.267 546.133Z" />
<glyph glyph-name="Camera" unicode="&#xE114;" d="M322.462 889.846L334.769 905.846L689.231 905.846L701.538 889.846L748.308 827.077L1024 827.077L1024 118.154L0 118.154L0 827.077L275.692 827.077L322.462 889.846ZM696.615 764.308L649.846 827.077L374.154 827.077L327.385 764.308L315.077 748.308L78.7692 748.308L78.7692 196.923L945.231 196.923L945.231 748.308L708.923 748.308L696.615 764.308ZM275.692 472.615C275.692 602.615 382 708.923 512 708.923C642 708.923 748.308 602.615 748.308 472.615C748.308 342.615 642 236.308 512 236.308C382 236.308 275.692 342.615 275.692 472.615ZM669.538 472.615C669.538 560.154 599.538 630.154 512 630.154C424.462 630.154 354.462 560.154 354.462 472.615C354.462 385.077 424.462 315.077 512 315.077C599.538 315.077 669.538 385.077 669.538 472.615ZM157.538 669.538C157.538 691.231 175.231 708.923 196.923 708.923C218.615 708.923 236.308 691.231 236.308 669.538C236.308 647.846 218.615 630.154 196.923 630.154C175.231 630.154 157.538 647.846 157.538 669.538Z" />
<glyph glyph-name="Camera" unicode="&#xE722;" d="M322.462 889.846L334.769 905.846L689.231 905.846L701.538 889.846L748.308 827.077L1024 827.077L1024 118.154L0 118.154L0 827.077L275.692 827.077L322.462 889.846ZM696.615 764.308L649.846 827.077L374.154 827.077L327.385 764.308L315.077 748.308L78.7692 748.308L78.7692 196.923L945.231 196.923L945.231 748.308L708.923 748.308L696.615 764.308ZM275.692 472.615C275.692 602.615 382 708.923 512 708.923C642 708.923 748.308 602.615 748.308 472.615C748.308 342.615 642 236.308 512 236.308C382 236.308 275.692 342.615 275.692 472.615ZM669.538 472.615C669.538 560.154 599.538 630.154 512 630.154C424.462 630.154 354.462 560.154 354.462 472.615C354.462 385.077 424.462 315.077 512 315.077C599.538 315.077 669.538 385.077 669.538 472.615ZM157.538 669.538C157.538 691.231 175.231 708.923 196.923 708.923C218.615 708.923 236.308 691.231 236.308 669.538C236.308 647.846 218.615 630.154 196.923 630.154C175.231 630.154 157.538 647.846 157.538 669.538Z" />
<glyph glyph-name="BodyCam" unicode="&#xEC80;" d="M322.462 889.846L334.769 905.846L689.231 905.846L701.538 889.846L748.308 827.077L1024 827.077L1024 118.154L0 118.154L0 827.077L275.692 827.077L322.462 889.846ZM696.615 764.308L649.846 827.077L374.154 827.077L327.385 764.308L315.077 748.308L78.7692 748.308L78.7692 196.923L945.231 196.923L945.231 748.308L708.923 748.308L696.615 764.308ZM275.692 472.615C275.692 602.615 382 708.923 512 708.923C642 708.923 748.308 602.615 748.308 472.615C748.308 342.615 642 236.308 512 236.308C382 236.308 275.692 342.615 275.692 472.615ZM669.538 472.615C669.538 560.154 599.538 630.154 512 630.154C424.462 630.154 354.462 560.154 354.462 472.615C354.462 385.077 424.462 315.077 512 315.077C599.538 315.077 669.538 385.077 669.538 472.615ZM157.538 669.538C157.538 691.231 175.231 708.923 196.923 708.923C218.615 708.923 236.308 691.231 236.308 669.538C236.308 647.846 218.615 630.154 196.923 630.154C175.231 630.154 157.538 647.846 157.538 669.538Z" />
<glyph glyph-name="Color" unicode="&#xE790;" d="M437.756 982.595C457.745 985.593 477.733 987.734 497.151 988.306C516.569 988.877 535.273 987.877 554.262 986.021C819.828 960.892 1024 717.028 982.595 437.756L982.595 436.613C950.898 242.436 797.983 81.0976 603.378 44.8321L602.235 44.8321C547.409 33.2671 496.152 33.6955 445.751 41.4055C445.652 41.6045 445.275 41.526 444.958 41.4602C444.821 41.4316 444.695 41.4055 444.609 41.4055C358.8 53.3987 321.249 164.765 384.071 227.587C429.046 272.562 429.046 339.096 384.071 384.071C339.096 429.046 272.562 429.046 227.587 384.071C164.765 321.249 53.3987 358.8 41.4055 444.609C41.4055 444.695 41.4316 444.821 41.4602 444.958C41.526 445.275 41.6046 445.652 41.4055 445.751C33.6955 496.58 32.9816 548.123 44.8321 603.378C84.3815 797.412 242.008 950.755 436.613 982.595L437.756 982.595ZM547.409 914.061C531.275 915.489 514.856 915.775 498.293 915.204C481.731 914.632 465.169 913.205 448.036 910.635C284.413 883.935 150.345 752.58 116.792 588.529C106.798 541.841 106.655 498.722 113.365 454.889C117.078 424.906 150.63 411.056 175.045 435.471C247.005 507.431 363.511 507.431 435.471 435.471C507.431 363.511 507.431 247.005 435.471 175.045C411.056 150.63 424.906 117.078 454.889 113.365C498.722 106.655 541.841 106.798 588.529 116.792L589.671 116.792C752.723 146.775 883.935 284.413 910.635 448.036C946.044 686.902 773.854 893.359 547.409 914.061ZM548.551 256.143C548.551 296.549 581.247 329.245 621.653 329.245C662.059 329.245 694.755 296.549 694.755 256.143C694.755 215.737 662.059 183.041 621.653 183.041C581.247 183.041 548.551 215.737 548.551 256.143ZM694.755 438.898C694.755 479.304 727.451 512 767.857 512C808.263 512 840.959 479.304 840.959 438.898C840.959 398.492 808.263 365.796 767.857 365.796C727.451 365.796 694.755 398.492 694.755 438.898ZM183.041 621.653C183.041 662.059 215.737 694.755 256.143 694.755C296.549 694.755 329.245 662.059 329.245 621.653C329.245 581.247 296.549 548.551 256.143 548.551C215.737 548.551 183.041 581.247 183.041 621.653ZM621.653 694.755C621.653 735.161 654.349 767.857 694.755 767.857C735.161 767.857 767.857 735.161 767.857 694.755C767.857 654.349 735.161 621.653 694.755 621.653C654.349 621.653 621.653 654.349 621.653 694.755ZM365.796 767.857C365.796 808.263 398.492 840.959 438.898 840.959C479.304 840.959 512 808.263 512 767.857C512 727.451 479.304 694.755 438.898 694.755C398.492 694.755 365.796 727.451 365.796 767.857Z" />
<glyph glyph-name="GripperBarHorizontal" unicode="&#xE76F;" d="M0 315.077L0 393.846L1024 393.846L1024 315.077L0 315.077ZM0 630.154L0 708.923L1024 708.923L1024 630.154L0 630.154Z" />
<glyph glyph-name="ChatBubbles" unicode="&#xE8F2;" d="M802.625 693.641L802.625 766.297L1020.59 766.297L1020.59 185.047L875.282 185.047L875.282 0L644.825 185.047L306.519 185.047L397.339 257.703L669.8 257.703L802.625 152.124L802.625 257.703L947.938 257.703L947.938 693.641L802.625 693.641ZM3.40576 330.359L3.40576 911.61L729.969 911.61L729.969 330.359L379.175 330.359L207.752 192.993L148.718 145.313L148.718 330.359L3.40576 330.359ZM657.313 838.953L76.0621 838.953L76.0621 403.016L221.375 403.016L221.375 297.437L343.982 395.069L354.2 403.016L657.313 403.016L657.313 838.953Z" />
<glyph glyph-name="DialUp" unicode="&#xE83C;" d="M196.923 157.538C196.923 201.077 232.154 236.308 275.692 236.308C319.231 236.308 354.462 201.077 354.462 157.538C354.462 114 319.231 78.7692 275.692 78.7692C232.154 78.7692 196.923 114 196.923 157.538ZM433.231 157.538C433.231 201.077 468.462 236.308 512 236.308C555.538 236.308 590.769 201.077 590.769 157.538C590.769 114 555.538 78.7692 512 78.7692C468.462 78.7692 433.231 114 433.231 157.538ZM669.538 157.538C669.538 201.077 704.769 236.308 748.308 236.308C791.846 236.308 827.077 201.077 827.077 157.538C827.077 114 791.846 78.7692 748.308 78.7692C704.769 78.7692 669.538 114 669.538 157.538ZM196.923 393.846C196.923 437.385 232.154 472.615 275.692 472.615C319.231 472.615 354.462 437.385 354.462 393.846C354.462 350.308 319.231 315.077 275.692 315.077C232.154 315.077 196.923 350.308 196.923 393.846ZM433.231 393.846C433.231 437.385 468.462 472.615 512 472.615C555.538 472.615 590.769 437.385 590.769 393.846C590.769 350.308 555.538 315.077 512 315.077C468.462 315.077 433.231 350.308 433.231 393.846ZM669.538 393.846C669.538 437.385 704.769 472.615 748.308 472.615C791.846 472.615 827.077 437.385 827.077 393.846C827.077 350.308 791.846 315.077 748.308 315.077C704.769 315.077 669.538 350.308 669.538 393.846ZM141.538 930.462C228.769 956.462 358.615 984.615 512 984.615C665.385 984.615 795.231 956.308 882.462 930.462C966 905.538 1024 828.308 1024 740.923L1024 630.154C1024 587.077 988.308 551.385 945.231 551.385L787.692 551.385C744.615 551.385 708.923 587.077 708.923 630.154L708.923 733.538C701.538 736.923 700 738.308 678.154 744.615C642.308 755.077 587.538 765.538 512 765.538C436.462 765.538 381.692 755.077 345.846 744.615C324 738.308 322.462 736.923 315.077 733.538L315.077 630.154C315.077 587.077 279.385 551.385 236.308 551.385L78.7692 551.385C35.6923 551.385 0 587.077 0 630.154L0 740.923C0 828.308 58 905.692 141.538 930.462ZM860.308 855.385C778.615 879.692 655.692 905.846 512 905.846C368.308 905.846 245.385 879.692 163.692 855.385C112.769 840.308 78.7692 793.692 78.7692 740.923L78.7692 630.154L236.308 630.154L236.308 782.769L256 793.846C256 793.846 281.077 808.462 323.692 820.923C366.308 833.385 428.923 844.308 512 844.308C595.077 844.308 657.692 833.385 700.308 820.923C742.923 808.462 768 793.846 768 793.846L787.692 782.769L787.692 630.154L945.231 630.154L945.231 740.923C945.231 793.692 911.231 840.308 860.308 855.385Z" />
<glyph glyph-name="ChevronRight" unicode="&#xE76C;" d="M341.333 997.744L368.783 1024L396.233 997.744L854.527 539.45L880.783 512L854.527 484.55L396.233 26.2564L368.783 0L341.333 26.2564L204.084 164.699L177.827 190.956L204.084 218.406L497.678 512L204.084 805.594L177.827 833.044L204.084 859.301L341.333 997.744ZM772.177 512L368.783 915.394L285.24 831.851L578.834 539.45L606.284 512L578.834 484.55L285.24 192.149L368.783 108.606L772.177 512Z" />
<glyph glyph-name="ChevronRightSmall" unicode="&#xE970;" d="M341.333 997.744L368.783 1024L396.233 997.744L854.527 539.45L880.783 512L854.527 484.55L396.233 26.2564L368.783 0L341.333 26.2564L204.084 164.699L177.827 190.956L204.084 218.406L497.678 512L204.084 805.594L177.827 833.044L204.084 859.301L341.333 997.744ZM772.177 512L368.783 915.394L285.24 831.851L578.834 539.45L606.284 512L578.834 484.55L285.24 192.149L368.783 108.606L772.177 512Z" />
<glyph glyph-name="ChevronRightMed" unicode="&#xE974;" d="M341.333 997.744L368.783 1024L396.233 997.744L854.527 539.45L880.783 512L854.527 484.55L396.233 26.2564L368.783 0L341.333 26.2564L204.084 164.699L177.827 190.956L204.084 218.406L497.678 512L204.084 805.594L177.827 833.044L204.084 859.301L341.333 997.744ZM772.177 512L368.783 915.394L285.24 831.851L578.834 539.45L606.284 512L578.834 484.55L285.24 192.149L368.783 108.606L772.177 512Z" />
<glyph glyph-name="CheveronRight20" unicode="&#xF745;" d="M341.333 997.744L368.783 1024L396.233 997.744L854.527 539.45L880.783 512L854.527 484.55L396.233 26.2564L368.783 0L341.333 26.2564L204.084 164.699L177.827 190.956L204.084 218.406L497.678 512L204.084 805.594L177.827 833.044L204.084 859.301L341.333 997.744ZM772.177 512L368.783 915.394L285.24 831.851L578.834 539.45L606.284 512L578.834 484.55L285.24 192.149L368.783 108.606L772.177 512Z" />
<glyph glyph-name="CheveronRight32" unicode="&#xF746;" d="M341.333 997.744L368.783 1024L396.233 997.744L854.527 539.45L880.783 512L854.527 484.55L396.233 26.2564L368.783 0L341.333 26.2564L204.084 164.699L177.827 190.956L204.084 218.406L497.678 512L204.084 805.594L177.827 833.044L204.084 859.301L341.333 997.744ZM772.177 512L368.783 915.394L285.24 831.851L578.834 539.45L606.284 512L578.834 484.55L285.24 192.149L368.783 108.606L772.177 512Z" />
<glyph glyph-name="ClosedCaption" unicode="&#xE190;" d="M0 222.857L0 877.714L1024 877.714L1024 222.857L0 222.857ZM950.857 804.571L73.1428 804.571L73.1428 296L950.857 296L950.857 804.571ZM182.857 548.571C182.857 649.143 265.143 731.429 365.714 731.429C409.429 731.429 449 715.286 480 690.286L434.286 633.143C415 648.714 391.571 658.286 365.714 658.286C304.714 658.286 256 609.571 256 548.571C256 487.571 304.714 438.857 365.714 438.857C391.571 438.857 415 448.429 434.286 464L480 406.857C449 381.857 409.429 365.714 365.714 365.714C265.143 365.714 182.857 448 182.857 548.571ZM548.571 548.571C548.571 649.143 630.857 731.429 731.429 731.429C775.143 731.429 814.714 715.286 845.714 690.286L800 633.143C780.714 648.714 757.286 658.286 731.429 658.286C670.429 658.286 621.714 609.571 621.714 548.571C621.714 487.571 670.429 438.857 731.429 438.857C757.286 438.857 780.714 448.429 800 464L845.714 406.857C814.714 381.857 775.143 365.714 731.429 365.714C630.857 365.714 548.571 448 548.571 548.571Z" />
<glyph glyph-name="Dislike" unicode="&#xE19E;" d="M166.154 812.308C177.846 866.615 226.308 905.846 281.846 905.846L945.231 905.846L945.231 275.692L764.308 275.692L497.231 11.0769L484.923 0L468.923 0C405.231 0 354.462 48.4615 354.462 104.615C354.462 157.231 372.923 196.308 391.385 221.538C402.923 237.385 408 240 416 246.154L423.385 275.692L196.923 275.692C122.615 275.692 65.6923 345.692 81.2307 418.462L166.154 812.308ZM708.923 827.077L281.846 827.077C263.077 827.077 246.462 814.769 242.462 796.308L158.769 402.462C153.385 377.077 170.923 354.462 196.923 354.462L525.538 354.462L513.231 305.231L489.846 216.615L484.923 200.615L471.385 193.231C471.385 193.231 464.308 189.846 454.154 176C444 162.154 433.231 140.154 433.231 104.615C433.231 92.4615 440 85.6923 456.615 82.4615L708.923 331.077L708.923 827.077ZM866.462 827.077L787.692 827.077L787.692 354.462L866.462 354.462L866.462 827.077Z" />
<glyph glyph-name="Dislike" unicode="&#xE8E0;" d="M166.154 812.308C177.846 866.615 226.308 905.846 281.846 905.846L945.231 905.846L945.231 275.692L764.308 275.692L497.231 11.0769L484.923 0L468.923 0C405.231 0 354.462 48.4615 354.462 104.615C354.462 157.231 372.923 196.308 391.385 221.538C402.923 237.385 408 240 416 246.154L423.385 275.692L196.923 275.692C122.615 275.692 65.6923 345.692 81.2307 418.462L166.154 812.308ZM708.923 827.077L281.846 827.077C263.077 827.077 246.462 814.769 242.462 796.308L158.769 402.462C153.385 377.077 170.923 354.462 196.923 354.462L525.538 354.462L513.231 305.231L489.846 216.615L484.923 200.615L471.385 193.231C471.385 193.231 464.308 189.846 454.154 176C444 162.154 433.231 140.154 433.231 104.615C433.231 92.4615 440 85.6923 456.615 82.4615L708.923 331.077L708.923 827.077ZM866.462 827.077L787.692 827.077L787.692 354.462L866.462 354.462L866.462 827.077Z" />
<glyph glyph-name="Accept" unicode="&#xE10B;" d="M325.394 229.759L970.351 874.715L1024 821.066L352.219 149.285L325.394 123.626L298.569 149.285L0 447.854L53.6492 501.503L325.394 229.759Z" />
<glyph glyph-name="CheckMark" unicode="&#xE73E;" d="M325.394 229.759L970.351 874.715L1024 821.066L352.219 149.285L325.394 123.626L298.569 149.285L0 447.854L53.6492 501.503L325.394 229.759Z" />
<glyph glyph-name="Accept" unicode="&#xE8FB;" d="M325.394 229.759L970.351 874.715L1024 821.066L352.219 149.285L325.394 123.626L298.569 149.285L0 447.854L53.6492 501.503L325.394 229.759Z" />
<glyph glyph-name="AcceptMedium" unicode="&#xF78C;" d="M325.394 229.759L970.351 874.715L1024 821.066L352.219 149.285L325.394 123.626L298.569 149.285L0 447.854L53.6492 501.503L325.394 229.759Z" />
<glyph glyph-name="Forward" unicode="&#xE111;" d="M566.667 844L628 905.333L990.667 542.667L1020 512L990.667 481.333L628 118.667L566.667 180L856 469.333L0 469.333L0 554.667L856 554.667L566.667 844Z" />
<glyph glyph-name="Forward" unicode="&#xE72A;" d="M566.667 844L628 905.333L990.667 542.667L1020 512L990.667 481.333L628 118.667L566.667 180L856 469.333L0 469.333L0 554.667L856 554.667L566.667 844Z" />
<glyph glyph-name="ForwardSm" unicode="&#xE9AC;" d="M566.667 844L628 905.333L990.667 542.667L1020 512L990.667 481.333L628 118.667L566.667 180L856 469.333L0 469.333L0 554.667L856 554.667L566.667 844Z" />
<glyph glyph-name="ChromeBackMirrored" unicode="&#xEA47;" d="M566.667 844L628 905.333L990.667 542.667L1020 512L990.667 481.333L628 118.667L566.667 180L856 469.333L0 469.333L0 554.667L856 554.667L566.667 844Z" />
<glyph glyph-name="ResizeTouchNarrowerMirrored" unicode="&#xEA62;" d="M566.667 844L628 905.333L990.667 542.667L1020 512L990.667 481.333L628 118.667L566.667 180L856 469.333L0 469.333L0 554.667L856 554.667L566.667 844Z" />
<glyph glyph-name="RightArrowKeyTime0" unicode="&#xEBE7;" d="M566.667 844L628 905.333L990.667 542.667L1020 512L990.667 481.333L628 118.667L566.667 180L856 469.333L0 469.333L0 554.667L856 554.667L566.667 844Z" />
<glyph glyph-name="ArrowRight8" unicode="&#xF0AF;" d="M566.667 844L628 905.333L990.667 542.667L1020 512L990.667 481.333L628 118.667L566.667 180L856 469.333L0 469.333L0 554.667L856 554.667L566.667 844Z" />
<glyph glyph-name="BackMirrored" unicode="&#xF0D2;" d="M566.667 844L628 905.333L990.667 542.667L1020 512L990.667 481.333L628 118.667L566.667 180L856 469.333L0 469.333L0 554.667L856 554.667L566.667 844Z" />
<glyph glyph-name="ChromeBackContrastMirrored" unicode="&#xF0D6;" d="M566.667 844L628 905.333L990.667 542.667L1020 512L990.667 481.333L628 118.667L566.667 180L856 469.333L0 469.333L0 554.667L856 554.667L566.667 844Z" />
<glyph glyph-name="Pictures" unicode="&#xE158;" d="M0 256L0 914.286L877.714 914.286L877.714 768L1024 768L1024 109.714L146.286 109.714L146.286 256L0 256ZM950.857 694.857L877.714 694.857L877.714 256L219.429 256L219.429 182.857L950.857 182.857L950.857 694.857ZM804.571 841.143L73.1428 841.143L73.1428 329.143L804.571 329.143L804.571 841.143ZM146.286 402.286L146.286 768L731.429 768L731.429 402.286L146.286 402.286ZM658.286 694.857L219.429 694.857L219.429 475.429L658.286 475.429L658.286 694.857Z" />
<glyph glyph-name="BrowsePhotos" unicode="&#xE7C5;" d="M0 256L0 914.286L877.714 914.286L877.714 768L1024 768L1024 109.714L146.286 109.714L146.286 256L0 256ZM950.857 694.857L877.714 694.857L877.714 256L219.429 256L219.429 182.857L950.857 182.857L950.857 694.857ZM804.571 841.143L73.1428 841.143L73.1428 329.143L804.571 329.143L804.571 841.143ZM146.286 402.286L146.286 768L731.429 768L731.429 402.286L146.286 402.286ZM658.286 694.857L219.429 694.857L219.429 475.429L658.286 475.429L658.286 694.857Z" />
</font>
</defs>
</svg>
